<?xml version="1.0" encoding="UTF-8" standalone="no"?>
<svg width="70px" height="112px" viewBox="0 0 70 112" version="1.1" xmlns="http://www.w3.org/2000/svg" xmlns:xlink="http://www.w3.org/1999/xlink" xmlns:sketch="http://www.bohemiancoding.com/sketch/ns">
    <!-- Generator: Sketch 3.3.3 (12072) - http://www.bohemiancoding.com/sketch -->
    <title>Group</title>
    <desc>Created with Sketch.</desc>
    <defs></defs>
    <g id="Page-1" stroke="none" stroke-width="1" fill="none" fill-rule="evenodd" sketch:type="MSPage">
        <g id="Group" sketch:type="MSLayerGroup">
            <path d="M59.9,0 L10.1,0 C4.6,0 0.1,4.5 0.1,10 L0.1,102 C0.1,107.5 4.6,112 10.1,112 L59.9,112 C65.4,112 69.9,107.5 69.9,102 L69.9,10 C69.8,4.5 65.4,0 59.9,0 L59.9,0 Z M64.9,102 C64.9,104.7 62.7,107 59.9,107 L10.1,107 C7.4,107 5.1,104.8 5.1,102 L5.1,94.5 L64.8,94.5 L64.8,102 L64.9,102 Z M64.9,89.6 L5.1,89.6 L5.1,22.4 L64.8,22.4 L64.8,89.6 L64.9,89.6 Z M64.9,17.4 L5.1,17.4 L5.1,10 C5.1,7.3 7.3,5 10.1,5 L59.9,5 C62.6,5 64.9,7.2 64.9,10 L64.9,17.4 L64.9,17.4 Z" id="Shape" fill="#000000" sketch:type="MSShapeGroup"></path>
            <circle id="Oval" fill="#000000" sketch:type="MSShapeGroup" cx="35" cy="100.8" r="3.7"></circle>
            <rect id="Rectangle-path" fill="#000000" sketch:type="MSShapeGroup" x="12.6" y="44.8" width="44.8" height="37.3"></rect>
            <rect id="Rectangle-path" fill="#000000" sketch:type="MSShapeGroup" x="17.6" y="29.9" width="34.8" height="5"></rect>
            <rect id="Rectangle-path" fill="#000000" sketch:type="MSShapeGroup" x="15.1" y="37.3" width="39.8" height="5"></rect>
            <circle id="Oval" fill="#000000" sketch:type="MSShapeGroup" cx="30" cy="11.2" r="1.2"></circle>
            <path d="M33.8,10 L40,10 C40.7,10 41.2,10.6 41.2,11.2 C41.2,11.9 40.6,12.4 40,12.4 L33.8,12.4 C33.1,12.4 32.6,11.8 32.6,11.2 C32.5,10.5 33.1,10 33.8,10 L33.8,10 Z" id="Shape" fill="#000000" sketch:type="MSShapeGroup"></path>
            <rect id="Rectangle-path" fill="#41FF23" sketch:type="MSShapeGroup" x="20.1" y="57.2" width="17.4" height="2.5"></rect>
            <rect id="Rectangle-path" fill="#41FF23" sketch:type="MSShapeGroup" x="20.1" y="62.2" width="29.9" height="2.5"></rect>
            <rect id="Rectangle-path" fill="#41FF23" sketch:type="MSShapeGroup" x="20.1" y="67.2" width="24.9" height="2.5"></rect>
        </g>
    </g>
</svg>