<svg xmlns="http://www.w3.org/2000/svg" viewBox="0 0 602 666">
	<path d="M579.272 643.336c-30.016 30.016-78.656 30.016-108.608 0L301 449.416 131.336 643.272c-30.016 30.016-78.656 30.016-108.608 0-30.016-30.016-30.016-78.656 0-108.608l176.512-201.6L22.664 131.336c-30.016-30.016-30.016-78.592 0-108.608 30.016-30.016 78.592-30.016 108.608 0L301 216.712 470.664 22.728c30.016-30.016 78.592-30.016 108.608 0 30.016 30.016 30.016 78.656 0 108.608L402.76 333.064l176.512 201.6c30.016 30.016 30.016 78.656 0 108.672z"/>
</svg>