<?xml version="1.0" standalone="no"?>
<!DOCTYPE svg PUBLIC "-//W3C//DTD SVG 20010904//EN"
 "http://www.w3.org/TR/2001/REC-SVG-20010904/DTD/svg10.dtd">
<svg version="1.0" xmlns="http://www.w3.org/2000/svg"
 width="900.000000pt" height="900.000000pt" viewBox="0 0 900.000000 900.000000"
 preserveAspectRatio="xMidYMid meet">
<metadata>
Created by potrace 1.11, written by Peter Selinger 2001-2013
</metadata>
<g transform="translate(0.000000,900.000000) scale(0.100000,-0.100000)"
fill="#000000" stroke="none">
<path d="M3030 7255 l0 -585 1015 0 1016 0 -4 -1837 c-3 -2007 0 -1897 -60
-2055 -72 -188 -219 -326 -429 -400 -211 -75 -487 -52 -665 54 -199 118 -352
368 -419 686 -10 46 -23 82 -29 82 -14 0 -1325 -258 -1341 -264 -22 -8 40
-277 108 -475 113 -329 272 -591 491 -813 303 -307 679 -488 1177 -565 145
-22 671 -26 815 -5 284 41 529 112 744 217 604 294 944 770 1048 1465 16 106
17 312 20 2598 l4 2482 -1746 0 -1745 0 0 -585z"/>
</g>
</svg>
