<svg width="120px" height="120px" viewBox="0 0 120 120" version="1.1" xmlns="https://www.w3.org/2000/svg">
    <path d="M83.7256637,69.0265487 C81.9292035,66.5486726 80.0088496,64.5663717 80.0088496,59.9823009 L80.0088496,44.7433628 C80.0088496,38.2389381 80.4424779,32.3539823 75.6725664,27.8938053 C71.8938053,24.2389381 65.699115,23 60.9292035,23 C51.6371681,23 41.2300885,26.4690265 39.0619469,37.9911504 C38.8761062,39.2300885 39.7433628,39.8495575 40.5486726,40.0353982 L50.0265487,41.0884956 C50.8938053,41.0265487 51.5132743,40.159292 51.699115,39.2920354 C52.5044248,35.3274336 55.8495575,33.4070796 59.5663717,33.4070796 C61.6106195,33.4070796 63.9026549,34.1504425 65.079646,35.9469027 C66.4424779,37.9911504 66.2566372,40.7168142 66.2566372,43.0707965 L66.2566372,44.3097345 C60.5575221,44.9292035 53.1858407,45.3628319 47.8584071,47.7168142 C41.7256637,50.380531 37.4513274,55.7699115 37.4513274,63.699115 C37.4513274,73.8584071 43.8318584,78.9380531 52.0707965,78.9380531 C59.0088496,78.9380531 62.7876106,77.2654867 68.1769912,71.8141593 C69.9734513,74.3539823 70.5309735,75.5929204 73.8141593,78.3185841 C74.4955752,78.6902655 75.4867257,78.6283186 76.1061947,78.0707965 C78.0884956,76.3362832 81.619469,73.2389381 83.7256637,71.6283186 C84.4690265,70.9469027 84.3451327,69.8938053 83.7256637,69.0265487 Z M64.3982301,64.5663717 C62.8495575,67.3539823 60.3716814,69.0265487 57.6460177,69.0265487 C53.8672566,69.0265487 51.699115,66.1769912 51.699115,61.9646018 C51.699115,53.6637168 59.1946903,52.1150442 66.2566372,52.1150442 L66.2566372,54.2212389 C66.2566372,58.0619469 66.3185841,61.2212389 64.3982301,64.5663717 Z"></path>
    <path d="M88.2477876,86.4336283 C80.6902655,93.4955752 69.6637168,97.2743363 60.1858407,97.2743363 C46.9292035,97.2743363 34.9734513,91.079646 25.9292035,80.7964602 C25.1858407,79.9911504 25.8672566,78.8761062 26.7345133,79.4955752 C36.5221239,86.6814159 48.539823,90.9557522 60.9911504,90.9557522 C69.4159292,90.9557522 78.6460177,88.7876106 87.1327434,84.2035398 C88.4336283,83.5221239 89.4867257,85.2566372 88.2477876,86.4336283 Z"></path>
    <path d="M91.2212389,82.2831858 C90.2300885,81.0442478 84.7168142,81.6637168 82.1769912,81.9734513 C81.4336283,82.0353982 81.3097345,81.4159292 81.9911504,80.920354 C86.3893805,77.8230088 93.6371681,78.6902655 94.5044248,79.7433628 C95.3716814,80.7964602 94.2566372,88.0442478 90.1681416,91.5132743 C89.5486726,92.0707965 88.9292035,91.7610619 89.2389381,91.079646 C90.1061947,88.7256637 92.2123894,83.5221239 91.2212389,82.2831858 Z"></path>
</svg>