<svg width="120px" height="120px" viewBox="0 0 120 120" version="1.1" xmlns="http://www.w3.org/2000/svg">
    <path d="M21.9448505,47.3389241 L20.8265781,47.3389241 L9,73.0971519 L10.8637874,73.0971519 L14.9980066,64.1156646 L27.807309,64.1156646 L31.9415282,73.0971519 L33.8053156,73.0971519 L21.9448505,47.3389241 Z M15.7774086,62.4210443 L21.4026578,50.1858861 L27.027907,62.4210443 L15.7774086,62.4210443 Z"></path>
    <polygon points="109.1701 47.2372468 109.1701 59.3707278 91.6166113 59.3707278 91.6166113 47.2372468 89.9222591 47.2372468 89.9222591 73.0971519 91.6166113 73.0971519 91.6166113 61.0653481 109.1701 61.0653481 109.1701 73.0971519 110.864452 73.0971519 110.864452 47.2372468"></polygon>
    <path d="M48.3767442,60.0485759 C49.4272425,59.9130063 50.3421927,59.5401899 51.1215947,59.0318038 C52.7481728,57.9133544 53.69701,56.0492722 53.69701,53.778481 C53.69701,51.9143987 52.917608,50.2197785 51.6299003,49.0335443 C50.4777409,47.9828797 48.9528239,47.3389241 47.1906977,47.3389241 L38.6511628,47.3389241 L38.6511628,73.0971519 L40.345515,73.0971519 L40.345515,60.7264241 L46.4112957,60.7264241 C47.0890365,61.0653481 48.1734219,61.6754114 49.4272425,63.4717089 C50.3083056,64.7257278 53.730897,70.012943 55.6963455,73.0632595 L58.0684385,73.0632595 C56.0352159,69.9451582 51.358804,62.8616456 50.613289,61.9465506 C49.6644518,60.7942089 48.7833887,60.2519304 48.3767442,60.0485759 Z M46.5807309,59.0318038 L40.345515,59.0318038 L40.345515,49.0335443 L46.5468439,49.0335443 C49.2916944,49.0674367 51.5960133,51.3043354 51.5960133,54.0496203 C51.5960133,57.3371835 48.1395349,59.0318038 46.5807309,59.0318038 Z"></path>
    <path d="M83.0770764,71.0975 C80.1627907,72.7243354 76.8418605,73.6394304 73.8259136,73.6394304 C66.4724252,73.6394304 60.5083056,67.6743671 60.5083056,60.3197152 C60.5083056,52.9650633 66.4724252,47 73.8259136,47 C77.4857143,47 80.1966777,47.6778481 83.0770764,49.1013291 L83.0770764,51.1687658 C80.4677741,49.9147468 78.2312292,48.7962975 74.7408638,48.7962975 C67.082392,48.7962975 62.7448505,53.947943 62.7448505,60.3197152 C62.7448505,66.6914873 67.2518272,71.8431329 74.7408638,71.8431329 C77.4518272,71.8431329 80.4677741,70.5552215 83.0770764,69.1317405 L83.0770764,71.0975 L83.0770764,71.0975 Z"></path>
</svg>