<svg width="120px" height="120px" viewBox="0 0 120 120" version="1.1" xmlns="http://www.w3.org/2000/svg">
    <path d="M6.09829684,48.3545598 L4,48.3545598 L4,48 L10.7854015,48 C14.0827251,48 15.9357664,49.6637039 15.9357664,51.4637769 C15.9357664,54.8730062 13.0744526,55.1730184 11.4666667,55.3366614 L11.4666667,55.3912091 C13.8919708,55.5821259 16.3445255,56.6458054 16.3445255,59.4550103 C16.3445255,62.4551321 13.6739659,63.6551808 11.6029197,63.6551808 L4,63.6551808 L4,63.300621 L6.09829684,63.300621 L6.09829684,48.3545598 Z M8.38734793,55.1457446 L9.85888078,55.1457446 C11.8754258,55.1457446 13.6739659,54.7093632 13.6739659,51.6819676 C13.6739659,50.5091927 12.7746959,48.3545598 9.53187348,48.3545598 L8.38734793,48.3545598 C8.38734793,48.3545598 8.38734793,55.1457446 8.38734793,55.1457446 Z M8.38734793,63.2733471 L10.2403893,63.2733471 C12.5839416,63.2733471 13.810219,61.8278339 13.810219,59.2368197 C13.810219,56.7549008 12.0934307,55.5003044 9.55912409,55.5003044 L8.36009732,55.5003044 L8.38734793,63.2733471 L8.38734793,63.2733471 Z"></path>
    <path d="M25.1737226,62.4278583 C25.1737226,62.8369658 25.2282238,63.4097163 25.8277372,63.4097163 C26.3454988,63.4097163 26.6452555,62.973335 26.9722628,62.5096798 L27.2175182,62.7005966 C26.8087591,63.4369901 26.2092457,63.9006453 25.2554745,63.9006453 C24.2199513,63.9006453 23.4569343,63.300621 23.2934307,62.5096798 L23.2389294,62.5096798 C22.4759124,63.5188116 21.4948905,63.9006453 20.0233577,63.9006453 C18.2793187,63.9006453 17.2437956,63.0278826 17.2437956,61.5278217 C17.2437956,59.0459028 20.5411192,58.4186047 22.8301703,58.4186047 L23.2389294,58.4186047 L23.2389294,55.6912212 C23.2389294,54.6548155 22.2579075,54.409351 21.4131387,54.409351 C20.7591241,54.409351 19.2603406,54.6548155 19.2603406,55.4457567 C19.2603406,55.9912334 19.9961071,55.7457689 19.9961071,56.7276269 C19.9961071,57.2731036 19.5600973,57.6549373 18.9878345,57.6549373 C18.3610706,57.6549373 18.0068127,57.1640083 18.0068127,56.4003409 C18.0068127,55.2548399 19.2058394,54.0275174 21.4403893,54.0275174 C23.129927,54.0275174 25.1192214,54.90028 25.1192214,56.6185316 L25.1192214,62.4278583 L25.1737226,62.4278583 L25.1737226,62.4278583 Z M22.9119221,58.7731645 C21.2768856,58.7731645 19.2603406,58.8277122 19.2603406,61.2005357 C19.2603406,62.4551321 19.4510949,63.3824425 20.8681265,63.3824425 C22.5304136,63.3824425 23.26618,62.1278461 23.26618,61.6914648 L23.26618,58.7731645 L22.9119221,58.7731645 L22.9119221,58.7731645 Z"></path>
    <path d="M28.1440389,54.8730062 L26.3727494,54.8730062 L26.3727494,54.5184464 L28.1440389,54.5184464 C28.8525547,54.5184464 29.5610706,54.4638987 29.9970803,54.0275174 L29.9970803,61.9914769 C29.9970803,62.9460611 30.5420925,63.5460855 31.3868613,63.5460855 C32.940146,63.5460855 34.329927,61.8005601 34.329927,60.1368562 L34.329927,54.8730062 L32.5858881,54.8730062 L32.5858881,54.5184464 L34.329927,54.5184464 C35.0384428,54.5184464 35.7469586,54.4638987 36.1829684,54.0275174 L36.1829684,63.2733471 L37.9542579,63.2733471 L37.9542579,63.627907 L34.3026764,63.627907 L34.3026764,61.6096432 L34.2481752,61.6096432 C34.0574209,62.1278461 33.1036496,63.9006453 31.1416058,63.9006453 C28.9343066,63.9006453 28.1167883,62.7278704 28.1167883,61.4460002 L28.1440389,54.8730062 L28.1440389,54.8730062 Z"></path>
    <path d="M40.1888078,60.1914039 C40.1615572,61.7732863 40.379562,63.5460855 42.4778589,63.5460855 C44.3309002,63.5460855 45.7206813,62.2914891 46.020438,60.491416 L46.3746959,60.491416 C46.020438,62.5369536 44.5216545,63.9279192 42.4778589,63.9279192 C39.8890511,63.9279192 38.0632603,61.9369293 38.0632603,58.9913552 C38.0632603,56.8367223 39.8072993,54.0547912 42.2053528,54.0547912 C44.8214112,54.0547912 46.1839416,57.0003653 46.1839416,57.9276756 C46.1839416,58.0640448 46.1294404,58.1185925 45.9931873,58.1185925 L40.1888078,58.1185925 L40.1888078,60.1914039 Z M44.0583942,57.1367344 C44.0583942,55.7184951 43.6768856,54.409351 42.2053528,54.409351 C40.6520681,54.409351 40.1888078,55.7184951 40.1888078,57.1367344 L40.1888078,57.7640326 L43.8948905,57.7640326 C44.0038929,57.7640326 44.0583942,57.709485 44.0583942,57.6003896 L44.0583942,57.1367344 L44.0583942,57.1367344 Z"></path>
    <path d="M48.6092457,54.8730062 L46.7562044,54.8730062 L46.7562044,54.5184464 L48.6092457,54.5184464 C49.3177616,54.5184464 50.0262774,54.4638987 50.4622871,54.0275174 L50.4622871,56.6458054 L50.5167883,56.6458054 C50.7892944,55.6366736 51.5523114,54.0275174 53.3781022,54.0275174 C54.1956204,54.0275174 54.849635,54.572994 54.849635,55.3366614 C54.849635,55.9094119 54.4953771,56.3730671 53.8413625,56.3730671 C53.1055961,56.3730671 52.8603406,55.9912334 52.8603406,55.3912091 C52.8603406,54.90028 53.1055961,54.572994 53.3508516,54.4366249 C53.2690998,54.3820772 53.1600973,54.3820772 53.0510949,54.3820772 C52.1518248,54.3820772 50.4895377,55.8275904 50.4895377,58.7186168 L50.4895377,63.2733471 L52.5060827,63.2733471 L52.5060827,63.627907 L46.7562044,63.627907 L46.7562044,63.2733471 L48.6092457,63.2733471 L48.6092457,54.8730062 L48.6092457,54.8730062 Z"></path>
    <path d="M58.0107056,48.3545598 L55.7761557,48.3545598 L55.7761557,48 L62.4798054,48 L62.4798054,48.3545598 L60.2452555,48.3545598 L60.2452555,63.300621 L63.0248175,63.300621 C67.303163,63.300621 68.6111922,62.7551443 68.6111922,58.5549738 L68.9654501,58.5549738 L68.9654501,63.6551808 L55.7761557,63.6551808 L55.7761557,63.300621 L58.0107056,63.300621 L58.0107056,48.3545598 L58.0107056,48.3545598 Z"></path>
    <path d="M77.9854015,62.4278583 C77.9854015,62.8369658 78.0399027,63.4097163 78.6394161,63.4097163 C79.1571776,63.4097163 79.4569343,62.973335 79.7839416,62.5096798 L80.0291971,62.7005966 C79.620438,63.4369901 79.0209246,63.9006453 78.0671533,63.9006453 C77.0316302,63.9006453 76.2686131,63.300621 76.1051095,62.5096798 L76.0506083,62.5096798 C75.2875912,63.5188116 74.3065693,63.9006453 72.8350365,63.9006453 C71.0909976,63.9006453 70.0554745,63.0278826 70.0554745,61.5278217 C70.0554745,59.0459028 73.3527981,58.4186047 75.6418491,58.4186047 L76.0506083,58.4186047 L76.0506083,55.6912212 C76.0506083,54.6548155 75.0695864,54.409351 74.2248175,54.409351 C73.5708029,54.409351 72.0720195,54.6548155 72.0720195,55.4457567 C72.0720195,55.9912334 72.8077859,55.7457689 72.8077859,56.7276269 C72.8077859,57.2731036 72.3717762,57.6549373 71.7995134,57.6549373 C71.1727494,57.6549373 70.8184915,57.1640083 70.8184915,56.4003409 C70.8184915,55.2548399 72.0175182,54.0275174 74.2520681,54.0275174 C75.9416058,54.0275174 77.9309002,54.90028 77.9309002,56.6185316 L77.9309002,62.4278583 L77.9854015,62.4278583 L77.9854015,62.4278583 Z M75.7508516,58.7731645 C74.1430657,58.7731645 72.0992701,58.8277122 72.0992701,61.2005357 C72.0992701,62.4551321 72.2900243,63.3824425 73.7343066,63.3824425 C75.3965937,63.3824425 76.1323601,62.1278461 76.1323601,61.6914648 L76.1323601,58.7731645 L75.7508516,58.7731645 L75.7508516,58.7731645 Z"></path>
    <path d="M81.2009732,54.8730062 L79.26618,54.8730062 L79.26618,54.5184464 C81.5824818,54.572994 82.4272506,53.591136 82.8087591,51.4092293 L83.0812652,51.4092293 L83.0812652,54.5184464 L86.1333333,54.5184464 L86.1333333,54.8730062 L83.0812652,54.8730062 L83.0812652,62.3460368 C83.0812652,63.2460733 83.4627737,63.5460855 84.1712895,63.5460855 C85.2885645,63.5460855 85.7790754,62.5369536 85.9153285,62.1551199 L86.2423358,62.2096676 C86.0788321,62.7551443 85.4520681,63.9006453 83.789781,63.9006453 C82.2364964,63.9006453 81.2009732,63.3824425 81.2009732,61.9096554 L81.2009732,54.8730062 L81.2009732,54.8730062 Z"></path>
    <path d="M91.2019465,54.0275174 C94.0632603,54.0275174 95.9163017,56.4003409 95.9163017,58.9640813 C95.9163017,61.5278217 94.0632603,63.9006453 91.2019465,63.9006453 C88.3406326,63.9006453 86.4875912,61.5278217 86.4875912,58.9640813 C86.4875912,56.4003409 88.3406326,54.0275174 91.2019465,54.0275174 Z M93.7635036,58.0913186 C93.7635036,56.1548764 93.6817518,54.3820772 91.1746959,54.3820772 C88.6676399,54.3820772 88.5858881,56.1548764 88.5858881,58.0913186 L88.5858881,59.836844 C88.5858881,61.7732863 88.6676399,63.5460855 91.1746959,63.5460855 C93.6817518,63.5460855 93.7635036,61.7732863 93.7635036,59.836844 L93.7635036,58.0913186 Z"></path>
    <path d="M102.701703,54.8730062 L100.603406,54.8730062 C98.0145985,54.8730062 97.5513382,56.1003287 97.5513382,57.9276756 L97.1970803,57.9276756 L97.1970803,54.4911725 L105.26326,54.4911725 L98.9411192,63.2460733 L101.121168,63.2460733 C103.491971,63.2460733 104.309489,62.5915013 104.309489,60.3004992 L104.663747,60.3004992 L104.663747,63.6006331 L96.3523114,63.6006331 L102.701703,54.8730062 Z"></path>
    <path d="M113.819951,62.4278583 C113.819951,62.8369658 113.874453,63.4097163 114.473966,63.4097163 C114.991727,63.4097163 115.291484,62.973335 115.618491,62.5096798 L115.863747,62.7005966 C115.454988,63.4369901 114.855474,63.9006453 113.901703,63.9006453 C112.86618,63.9006453 112.103163,63.300621 111.939659,62.5096798 L111.885158,62.5096798 C111.122141,63.5188116 110.141119,63.9006453 108.669586,63.9006453 C106.925547,63.9006453 105.890024,63.0278826 105.890024,61.5278217 C105.890024,59.0459028 109.187348,58.4186047 111.476399,58.4186047 L111.885158,58.4186047 L111.885158,55.6912212 C111.885158,54.6548155 110.904136,54.409351 110.059367,54.409351 C109.405353,54.409351 107.906569,54.6548155 107.906569,55.4457567 C107.906569,55.9912334 108.642336,55.7457689 108.642336,56.7276269 C108.642336,57.2731036 108.206326,57.6549373 107.634063,57.6549373 C107.007299,57.6549373 106.653041,57.1640083 106.653041,56.4003409 C106.653041,55.2548399 107.852068,54.0275174 110.086618,54.0275174 C111.776156,54.0275174 113.76545,54.90028 113.76545,56.6185316 L113.76545,62.4278583 L113.819951,62.4278583 L113.819951,62.4278583 Z M111.585401,58.7731645 C109.977616,58.7731645 107.93382,58.8277122 107.93382,61.2005357 C107.93382,62.4551321 108.124574,63.3824425 109.568856,63.3824425 C111.231144,63.3824425 111.96691,62.1278461 111.96691,61.6914648 L111.96691,58.7731645 L111.585401,58.7731645 L111.585401,58.7731645 Z"></path>
    <path d="M81.9912409,69.9554365 L82.0729927,69.9554365 C82.0729927,70.8827469 82.6180049,71.3191282 83.2992701,71.3191282 C83.8442822,71.3191282 84.2257908,70.9918422 84.2257908,70.4736394 C84.2257908,69.9008888 83.9260341,69.7372458 83.2992701,69.6281505 C82.4272506,69.4917813 82.0184915,69.3554122 82.0184915,68.400828 C82.0184915,67.7735298 82.4272506,67.3098746 83.0540146,67.3098746 C83.6262774,67.3098746 83.8442822,67.6371606 84.0350365,67.6371606 C84.1712895,67.6371606 84.1712895,67.5007914 84.1985401,67.4189699 L84.280292,67.4189699 L84.280292,68.5917448 L84.1985401,68.5917448 C84.1440389,67.9644466 83.8170316,67.3916961 83.0540146,67.3916961 C82.5907543,67.3916961 82.2364964,67.6917083 82.2364964,68.2099111 C82.2364964,68.7008401 82.4272506,68.8099355 83.3537713,69.0008523 C84.1712895,69.1372215 84.4982968,69.4099598 84.4982968,70.1190795 C84.4982968,70.855473 84.0895377,71.4009497 83.2992701,71.4009497 C82.7542579,71.4009497 82.4545012,71.1009375 82.2364964,71.1009375 C82.1002433,71.1009375 82.1002433,71.2373067 82.1002433,71.346402 L82.0184915,71.346402 L82.0184915,69.9554365 L81.9912409,69.9554365 L81.9912409,69.9554365 Z"></path>
    <path d="M88.8311436,67.5007914 L88.7221411,67.5007914 C87.7411192,67.5007914 87.5231144,67.6644344 87.5231144,68.564471 L87.4413625,68.564471 L87.4413625,67.4189699 L90.8476886,67.4189699 L90.8476886,68.564471 L90.7659367,68.564471 C90.7659367,67.6644344 90.5479319,67.5007914 89.56691,67.5007914 L89.4579075,67.5007914 L89.4579075,71.2373067 L90.0301703,71.2373067 L90.0301703,71.3191282 L88.313382,71.3191282 L88.313382,71.2373067 L88.8856448,71.2373067 L88.8856448,67.5007914 L88.8311436,67.5007914 Z"></path>
    <path d="M93.4909976,67.4189699 L95.1805353,67.4189699 L95.1805353,67.5007914 L94.5810219,67.5007914 L94.5810219,70.4190917 C94.5810219,71.0463899 95.0715328,71.346402 95.5347932,71.346402 C96.3250608,71.346402 96.7883212,70.9645684 96.7883212,70.1463533 L96.7883212,67.9098989 C96.7883212,67.6098868 96.7065693,67.5280653 96.4613139,67.5280653 L96.1615572,67.5280653 L96.1615572,67.4462438 L97.4423358,67.4462438 L97.4423358,67.5280653 L97.1970803,67.5280653 C96.9518248,67.5280653 96.8973236,67.6371606 96.8973236,67.9098989 L96.8973236,70.2281748 C96.8973236,71.1009375 96.2705596,71.4554974 95.5347932,71.4554974 C94.6082725,71.4554974 94.0360097,71.2373067 94.0360097,70.364544 L94.0360097,67.5553391 L93.5182482,67.5553391 L93.5182482,67.4189699 L93.4909976,67.4189699 Z"></path>
    <path d="M100.494404,67.5007914 L99.9766423,67.5007914 L99.9766423,67.4189699 L101.720681,67.4189699 C103.192214,67.4189699 103.628224,68.6462925 103.628224,69.382686 C103.628224,70.5827347 102.865207,71.346402 101.747932,71.346402 L100.003893,71.346402 L100.003893,71.2645805 L100.521655,71.2645805 L100.521655,67.5007914 L100.494404,67.5007914 L100.494404,67.5007914 Z M101.066667,71.2373067 L101.557178,71.2373067 C102.047689,71.2373067 102.974209,71.0463899 102.974209,69.382686 C102.974209,68.4281018 102.701703,67.5007914 101.339173,67.5007914 L101.066667,67.5007914 L101.066667,71.2373067 Z"></path>
    <polygon points="107.03455 71.2373067 106.516788 71.2373067 106.516788 71.3191282 108.097324 71.3191282 108.097324 71.2373067 107.579562 71.2373067 107.579562 67.5007914 108.097324 67.5007914 108.097324 67.4189699 106.516788 67.4189699 106.516788 67.5007914 107.03455 67.5007914"></polygon>
    <path d="M112.729927,67.3371484 C113.656448,67.3371484 114.473966,68.237185 114.473966,69.382686 C114.473966,70.528187 113.656448,71.4282235 112.729927,71.4282235 C111.803406,71.4282235 110.985888,70.528187 110.985888,69.382686 C110.985888,68.237185 111.776156,67.3371484 112.729927,67.3371484 Z M112.729927,71.3191282 C113.710949,71.3191282 113.847202,70.0918057 113.847202,69.3554122 C113.847202,68.6190186 113.710949,67.3916961 112.729927,67.3916961 C111.748905,67.3916961 111.612652,68.6190186 111.612652,69.3554122 C111.612652,70.0918057 111.748905,71.3191282 112.729927,71.3191282 Z"></path>
    <rect x="4.16350365" y="67.5007914" width="11.9085158" height="2.2364544"></rect>
</svg>