<svg width="120px" height="120px" viewBox="0 0 120 120" version="1.1" xmlns="http://www.w3.org/2000/svg">
    <path d="M4.91908397,55.3453968 L4.02137405,55.3453968 L4.02137405,55.1422222 L6.43664122,55.1422222 C7.78320611,55.1422222 8.31755725,55.2438095 8.87328244,55.6095238 C9.30076336,55.8939683 9.53587786,56.3206349 9.53587786,56.808254 C9.53587786,57.6412698 8.89465649,58.1898413 7.65496183,58.4336508 C9.06564885,58.5555556 9.8351145,59.1853968 9.8351145,60.2419048 C9.8351145,60.7904762 9.57862595,61.2374603 9.06564885,61.6031746 C8.55267176,61.9485714 8.01832061,62.0501587 6.62900763,62.0501587 L4,62.0501587 L4,61.8469841 L4.89770992,61.8469841 L4.89770992,55.3453968 L4.91908397,55.3453968 L4.91908397,55.3453968 Z M6.07328244,58.3320635 C6.43664122,58.352381 6.5221374,58.352381 6.67175573,58.352381 C7.84732824,58.352381 8.31755725,57.9257143 8.31755725,56.8895238 C8.31755725,56.3206349 8.14656489,55.8736508 7.86870229,55.6501587 C7.59083969,55.4266667 7.24885496,55.3657143 6.37251908,55.3657143 L6.07328244,55.3657143 L6.07328244,58.3320635 Z M6.73587786,61.8469841 C7.46259542,61.8469841 7.78320611,61.7657143 8.0610687,61.5625397 C8.38167939,61.2984127 8.50992366,60.871746 8.50992366,60.2215873 C8.50992366,58.9822222 8.03969466,58.5352381 6.71450382,58.5352381 C6.54351145,58.5352381 6.37251908,58.5352381 6.07328244,58.5555556 L6.07328244,61.8469841 L6.73587786,61.8469841 L6.73587786,61.8469841 Z"></path>
    <path d="M11.3740458,58.1898413 L10.6473282,58.1898413 L10.6473282,57.9866667 L12.3572519,57.9866667 L12.3572519,58.9619048 C12.6564885,58.2304762 13.0412214,57.8647619 13.5328244,57.8647619 C13.9389313,57.8647619 14.2167939,58.1085714 14.2167939,58.4742857 C14.2167939,58.7790476 13.9816794,59.0025397 13.6824427,59.0025397 C13.4045802,59.0025397 13.2122137,58.8196825 13.1908397,58.5149206 C13.1694656,58.3320635 13.1694656,58.2914286 13.0839695,58.2914286 C12.9984733,58.2914286 12.8916031,58.3930159 12.7847328,58.5555556 C12.4641221,59.0838095 12.3572519,59.6730159 12.3572519,60.871746 L12.3572519,61.8266667 L13.0839695,61.8266667 L13.0839695,62.0298413 L10.6473282,62.0298413 L10.6473282,61.8266667 L11.3740458,61.8266667 L11.3740458,58.1898413 Z"></path>
    <path d="M15.5419847,58.1898413 L14.8152672,58.1898413 L14.8152672,57.9866667 L16.5251908,57.9866667 L16.5251908,61.8469841 L17.2519084,61.8469841 L17.2519084,62.0501587 L14.8152672,62.0501587 L14.8152672,61.8469841 L15.5419847,61.8469841 L15.5419847,58.1898413 Z M16.589313,55.8533333 C16.589313,56.1784127 16.3114504,56.4425397 15.9694656,56.4425397 C15.6274809,56.4425397 15.3709924,56.1784127 15.3709924,55.8330159 C15.3709924,55.5079365 15.6274809,55.2438095 15.9694656,55.2438095 C16.3328244,55.264127 16.589313,55.528254 16.589313,55.8533333 Z"></path>
    <path d="M20.8,61.8266667 C21.270229,61.8266667 21.4625954,61.8673016 21.6763359,62.0095238 C21.9328244,62.192381 22.0824427,62.4971429 22.0824427,62.9238095 C22.0824427,64.0819048 21.1419847,64.8742857 19.7740458,64.8742857 C18.6839695,64.8742857 17.8076336,64.3053968 17.8076336,63.6349206 C17.8076336,63.2285714 18.1282443,62.8831746 18.6625954,62.7206349 C18.1496183,62.5784127 17.8503817,62.2736508 17.8503817,61.8063492 C17.8503817,61.3390476 18.1709924,60.912381 18.8122137,60.5060317 C18.3419847,60.1606349 18.1282443,59.7949206 18.1282443,59.327619 C18.1282443,58.5149206 18.8763359,57.8850794 19.859542,57.8850794 C20.3725191,57.8850794 20.778626,58.0273016 21.0992366,58.311746 C21.3984733,58.0069841 21.6122137,57.8850794 21.8900763,57.8850794 C22.189313,57.8850794 22.3816794,58.0679365 22.3816794,58.352381 C22.3816794,58.575873 22.210687,58.7384127 21.9969466,58.7384127 C21.7832061,58.7384127 21.6763359,58.6368254 21.6335878,58.4336508 C21.6122137,58.311746 21.5694656,58.2711111 21.5053435,58.2711111 C21.4198473,58.2711111 21.3770992,58.311746 21.248855,58.4336508 C21.4839695,58.7180952 21.5908397,59.0228571 21.5908397,59.3479365 C21.5908397,60.2012698 20.8641221,60.7701587 19.8167939,60.7701587 C19.4961832,60.7701587 19.3038168,60.7295238 19.0045802,60.607619 C18.5343511,60.8920635 18.2778626,61.1968254 18.2778626,61.4609524 C18.2778626,61.7453968 18.470229,61.8469841 19.0259542,61.8469841 C19.1328244,61.8469841 19.1328244,61.8469841 19.880916,61.8266667 C19.9236641,61.8063492 20.1587786,61.8063492 20.4793893,61.8063492 L20.8,61.8063492 L20.8,61.8266667 L20.8,61.8266667 Z M18.4916031,63.5130159 C18.4916031,64.1631746 19.0259542,64.6101587 19.8167939,64.6101587 C20.9068702,64.6101587 21.740458,63.9803175 21.740458,63.1473016 C21.740458,62.8222222 21.5694656,62.7206349 21.1206107,62.7206349 C21.0778626,62.7206349 20.8641221,62.7206349 20.6076336,62.7409524 C20.3938931,62.7612698 19.6030534,62.7612698 19.4534351,62.7612698 C19.1755725,62.7612698 19.0900763,62.7612698 18.8335878,62.7206349 C18.5984733,62.9644444 18.4916031,63.208254 18.4916031,63.5130159 Z M19.2824427,58.3726984 C19.1969466,58.5352381 19.1755725,58.8806349 19.1755725,59.5714286 C19.1755725,60.3231746 19.3251908,60.5466667 19.859542,60.5466667 C20.1374046,60.5466667 20.329771,60.4653968 20.4366412,60.2825397 C20.5435115,60.12 20.5648855,59.8761905 20.5648855,59.2057143 C20.5648855,58.575873 20.5435115,58.3930159 20.4366412,58.2711111 C20.329771,58.1288889 20.1587786,58.0679365 19.859542,58.0679365 C19.5603053,58.088254 19.3465649,58.1695238 19.2824427,58.3726984 Z"></path>
    <path d="M23.3862595,58.1898413 L22.659542,58.1898413 L22.659542,57.9866667 L24.3694656,57.9866667 L24.3694656,61.8469841 L25.0961832,61.8469841 L25.0961832,62.0501587 L22.659542,62.0501587 L22.659542,61.8469841 L23.3862595,61.8469841 L23.3862595,58.1898413 Z M24.4549618,55.8533333 C24.4549618,56.1784127 24.1770992,56.4425397 23.8351145,56.4425397 C23.4931298,56.4425397 23.2366412,56.1784127 23.2366412,55.8330159 C23.2366412,55.5079365 23.4931298,55.2438095 23.8351145,55.2438095 C24.1770992,55.264127 24.4549618,55.528254 24.4549618,55.8533333 Z"></path>
    <path d="M33.2824427,59.6730159 L33.2824427,59.9777778 C33.2824427,60.9936508 33.3038168,61.2171429 33.4320611,61.4406349 C33.6030534,61.7453968 33.9022901,61.9079365 34.329771,61.9079365 C35.0351145,61.9079365 35.5694656,61.4609524 35.7832061,60.6685714 L36.0396947,60.6685714 C35.8687023,61.5422222 35.1419847,62.1314286 34.2656489,62.1314286 C33.1541985,62.1314286 32.1709924,61.135873 32.1709924,59.9777778 C32.1709924,58.8196825 33.1328244,57.8444444 34.2229008,57.8444444 C34.9068702,57.8444444 35.5053435,58.1492063 35.8473282,58.6774603 C36.0396947,58.9619048 36.1038168,59.2057143 36.1251908,59.632381 L33.2824427,59.632381 L33.2824427,59.6730159 Z M34.9709924,59.4698413 C34.9709924,58.7790476 34.9496183,58.6977778 34.8854962,58.5149206 C34.778626,58.2507937 34.5221374,58.1085714 34.1801527,58.1085714 C33.8167939,58.1085714 33.5175573,58.2507937 33.389313,58.4742857 C33.2610687,58.6774603 33.2610687,58.6774603 33.2610687,59.4495238 L34.9709924,59.4495238 L34.9709924,59.4698413 Z"></path>
    <path d="M43.6916031,56.8488889 L43.5206107,56.8488889 C43.4564885,56.4019048 43.3496183,56.1377778 43.1145038,55.8736508 C42.7938931,55.487619 42.3022901,55.264127 41.789313,55.264127 C40.9557252,55.264127 40.3572519,55.7720635 40.3572519,56.5034921 C40.3572519,56.8692063 40.5068702,57.1333333 40.8274809,57.3161905 C41.0198473,57.4177778 41.3618321,57.5193651 42.0671756,57.7022222 C42.9435115,57.9257143 43.1572519,58.0069841 43.4564885,58.2711111 C43.8839695,58.6368254 44.0977099,59.1650794 44.0977099,59.7949206 C44.0977099,61.1561905 43.178626,62.151746 41.9389313,62.151746 C41.319084,62.151746 40.8274809,61.9688889 40.3145038,61.5422222 L39.9083969,62.0298413 L39.6732824,62.0298413 L39.6732824,59.8965079 L39.8442748,59.8965079 C39.951145,60.4653968 40.0580153,60.7904762 40.2931298,61.0952381 C40.6778626,61.6031746 41.2763359,61.887619 41.9603053,61.887619 C42.9007634,61.887619 43.5419847,61.2780952 43.5419847,60.4044444 C43.5419847,59.9777778 43.3709924,59.6120635 43.0503817,59.3885714 C42.8366412,59.2260317 42.6442748,59.1650794 41.789313,58.9619048 C40.8916031,58.7384127 40.5709924,58.6165079 40.3145038,58.352381 C39.9725191,58.047619 39.8015267,57.6209524 39.8015267,57.1130159 C39.8015267,55.9346032 40.6778626,55 41.810687,55 C42.280916,55 42.7083969,55.1422222 43.178626,55.4266667 L43.5633588,55 L43.7129771,55 L43.7129771,56.8488889 L43.6916031,56.8488889 L43.6916031,56.8488889 Z"></path>
    <path d="M48.9068702,60.7295238 C48.5221374,61.7047619 47.9664122,62.151746 47.1114504,62.151746 C45.978626,62.151746 45.0167939,61.1765079 45.0167939,60.0387302 C45.0167939,58.8603175 46.021374,57.8647619 47.1969466,57.8647619 C48.0305344,57.8647619 48.7145038,58.352381 48.7145038,58.9415873 C48.7145038,59.2666667 48.5007634,59.4901587 48.2015267,59.4901587 C47.9236641,59.4901587 47.7099237,59.2869841 47.7099237,59.0025397 C47.7099237,58.84 47.7954198,58.6774603 47.9236641,58.5149206 C47.9664122,58.4742857 47.9664122,58.4742857 47.9664122,58.4336508 C47.9664122,58.2711111 47.5816794,58.1085714 47.2183206,58.1085714 C46.8335878,58.1085714 46.5343511,58.2507937 46.3633588,58.5352381 C46.2137405,58.7993651 46.1496183,59.3885714 46.1496183,60.3231746 C46.1496183,61.0749206 46.2137405,61.3796825 46.3847328,61.6031746 C46.5557252,61.8063492 46.8335878,61.928254 47.1541985,61.928254 C47.8381679,61.928254 48.329771,61.5219048 48.6076336,60.7498413 L48.9068702,60.7498413 L48.9068702,60.7295238 L48.9068702,60.7295238 Z"></path>
    <path d="M49.9328244,55.3453968 L49.2061069,55.3453968 L49.2061069,55.1422222 L50.9160305,55.1422222 L50.9160305,58.7180952 C51.3007634,58.1288889 51.7923664,57.8850794 52.519084,57.8850794 C53.010687,57.8850794 53.4167939,58.0273016 53.6519084,58.2711111 C53.8442748,58.4946032 53.8870229,58.6571429 53.8870229,59.3885714 L53.8870229,61.8469841 L54.6137405,61.8469841 L54.6137405,62.0501587 L52.2625954,62.0501587 L52.2625954,61.8469841 L52.9251908,61.8469841 L52.9251908,59.3885714 C52.9251908,58.6774603 52.9038168,58.5555556 52.7969466,58.4133333 C52.6900763,58.2711111 52.4763359,58.1898413 52.2198473,58.1898413 C51.7282443,58.1898413 51.3007634,58.4742857 51.1083969,58.9212698 C50.9801527,59.2260317 50.9374046,59.591746 50.9374046,60.3434921 L50.9374046,61.8469841 L51.6,61.8469841 L51.6,62.0501587 L49.2274809,62.0501587 L49.2274809,61.8469841 L49.9541985,61.8469841 L49.9328244,55.3453968 L49.9328244,55.3453968 Z"></path>
    <path d="M55.8320611,58.1898413 L55.1053435,58.1898413 L55.1053435,57.9866667 L56.8152672,57.9866667 L56.8152672,58.4946032 C57.2,58.0679365 57.648855,57.8647619 58.2259542,57.8647619 C58.5679389,57.8647619 58.8885496,57.9460317 59.1022901,58.1085714 C59.2519084,58.2101587 59.3374046,58.311746 59.4015267,58.5352381 C59.7648855,58.0679365 60.2351145,57.8444444 60.8977099,57.8444444 C61.3465649,57.8444444 61.7312977,57.9866667 61.9450382,58.2304762 C62.0946565,58.4336508 62.1587786,58.6977778 62.1587786,59.2463492 L62.1587786,61.7860317 L62.8854962,61.7860317 L62.8854962,61.9892063 L60.5343511,61.9892063 L60.5343511,61.7860317 L61.1969466,61.7860317 L61.1969466,59.2463492 C61.1969466,58.5555556 61.1755725,58.4336508 61.0259542,58.2914286 C60.919084,58.1898413 60.7694656,58.1492063 60.5984733,58.1492063 C60.2351145,58.1492063 59.8717557,58.352381 59.7007634,58.6571429 C59.5083969,59.0025397 59.5083969,59.0634921 59.5083969,60.6685714 L59.5083969,61.7860317 L60.1709924,61.7860317 L60.1709924,61.9892063 L57.8839695,61.9892063 L57.8839695,61.7860317 L58.5465649,61.7860317 L58.5465649,59.2463492 C58.5465649,58.7587302 58.5038168,58.5352381 58.4183206,58.3930159 C58.3328244,58.2507937 58.140458,58.1695238 57.9267176,58.1695238 C57.5633588,58.1695238 57.178626,58.3930159 57.0503817,58.6774603 C56.9007634,58.9619048 56.8580153,59.4901587 56.8580153,60.6685714 L56.8580153,61.7860317 L57.5206107,61.7860317 L57.5206107,61.9892063 L55.1480916,61.9892063 L55.1480916,61.7860317 L55.8748092,61.7860317 L55.8748092,58.1898413 L55.8320611,58.1898413 Z"></path>
    <path d="M64.1465649,58.1898413 L63.4198473,58.1898413 L63.4198473,57.9866667 L65.129771,57.9866667 L65.129771,61.8469841 L65.8564885,61.8469841 L65.8564885,62.0501587 L63.4198473,62.0501587 L63.4198473,61.8469841 L64.1465649,61.8469841 L64.1465649,58.1898413 Z M65.2152672,55.8533333 C65.2152672,56.1784127 64.9374046,56.4425397 64.5954198,56.4425397 C64.2534351,56.4425397 63.9969466,56.1784127 63.9969466,55.8330159 C63.9969466,55.5079365 64.2534351,55.2438095 64.5954198,55.2438095 C64.9374046,55.264127 65.2152672,55.528254 65.2152672,55.8533333 Z"></path>
    <path d="M70.5160305,61.8469841 L71.2427481,61.8469841 L71.2427481,62.0501587 L69.5328244,62.0501587 L69.5328244,61.2577778 C69.2977099,61.8266667 68.8274809,62.151746 68.2503817,62.151746 C67.2458015,62.151746 66.4122137,61.1765079 66.4122137,59.9980952 C66.4122137,58.8196825 67.2244275,57.8647619 68.2290076,57.8647619 C68.7633588,57.8647619 69.1694656,58.1288889 69.5328244,58.6977778 L69.5328244,55.3250794 L68.8061069,55.3250794 L68.8061069,55.1219048 L70.5160305,55.1219048 L70.5160305,61.8469841 Z M67.7587786,58.4336508 C67.6305344,58.6368254 67.5877863,59.0228571 67.5877863,60.1403175 C67.5877863,61.0952381 67.6091603,61.2984127 67.7160305,61.5015873 C67.8442748,61.7453968 68.1007634,61.9079365 68.3572519,61.9079365 C69.0198473,61.9079365 69.5114504,61.0952381 69.5114504,59.9980952 C69.5114504,58.9212698 69.0198473,58.1085714 68.3572519,58.1085714 C68.1221374,58.1085714 67.9083969,58.2304762 67.7587786,58.4336508 Z"></path>
    <path d="M78.5740458,55.3453968 L77.6763359,55.3453968 L77.6763359,55.1422222 L80.0916031,55.1422222 C81.4381679,55.1422222 81.9725191,55.2438095 82.5282443,55.6095238 C82.9557252,55.8939683 83.1908397,56.3206349 83.1908397,56.808254 C83.1908397,57.6412698 82.5496183,58.1898413 81.3099237,58.4336508 C82.7206107,58.5555556 83.4900763,59.1853968 83.4900763,60.2419048 C83.4900763,60.7904762 83.2335878,61.2374603 82.7206107,61.6031746 C82.2076336,61.9485714 81.6732824,62.0501587 80.2839695,62.0501587 L77.6763359,62.0501587 L77.6763359,61.8469841 L78.5740458,61.8469841 L78.5740458,55.3453968 Z M79.7282443,58.3320635 C80.0916031,58.352381 80.1770992,58.352381 80.3267176,58.352381 C81.5022901,58.352381 81.9725191,57.9257143 81.9725191,56.8895238 C81.9725191,56.3206349 81.8015267,55.8736508 81.5236641,55.6501587 C81.2458015,55.4266667 80.9038168,55.3657143 80.0274809,55.3657143 L79.7282443,55.3657143 L79.7282443,58.3320635 Z M80.3908397,61.8469841 C81.1175573,61.8469841 81.4381679,61.7657143 81.7160305,61.5625397 C82.0366412,61.2984127 82.1648855,60.871746 82.1648855,60.2215873 C82.1648855,58.9822222 81.6946565,58.5352381 80.3694656,58.5352381 C80.1984733,58.5352381 80.0274809,58.5352381 79.7282443,58.5555556 L79.7282443,61.8469841 L80.3908397,61.8469841 L80.3908397,61.8469841 Z"></path>
    <path d="M85.4778626,59.6730159 L85.4778626,59.9777778 C85.4778626,60.9936508 85.4992366,61.2171429 85.6274809,61.4406349 C85.7984733,61.7453968 86.0977099,61.9079365 86.5251908,61.9079365 C87.2305344,61.9079365 87.7648855,61.4609524 87.978626,60.6685714 L88.2351145,60.6685714 C88.0641221,61.5422222 87.3374046,62.1314286 86.4610687,62.1314286 C85.3496183,62.1314286 84.3664122,61.135873 84.3664122,59.9777778 C84.3664122,58.8196825 85.3282443,57.8444444 86.4183206,57.8444444 C87.1022901,57.8444444 87.7007634,58.1492063 88.0427481,58.6774603 C88.2351145,58.9619048 88.2992366,59.2057143 88.3206107,59.632381 L85.4778626,59.632381 L85.4778626,59.6730159 Z M87.1664122,59.4698413 C87.1664122,58.7790476 87.1450382,58.6977778 87.080916,58.5149206 C86.9740458,58.2507937 86.7175573,58.1085714 86.3755725,58.1085714 C86.0122137,58.1085714 85.7129771,58.2507937 85.5847328,58.4742857 C85.4564885,58.6774603 85.4564885,58.6774603 85.4564885,59.4495238 L87.1664122,59.4495238 L87.1664122,59.4698413 Z"></path>
    <polygon points="89.4320611 55.3453968 88.7053435 55.3453968 88.7053435 55.1422222 90.4152672 55.1422222 90.4152672 61.8469841 91.1419847 61.8469841 91.1419847 62.0501587 88.7053435 62.0501587 88.7053435 61.8469841 89.4320611 61.8469841"></polygon>
    <polygon points="92.2320611 55.3453968 91.5053435 55.3453968 91.5053435 55.1422222 93.2152672 55.1422222 93.2152672 61.8469841 93.9419847 61.8469841 93.9419847 62.0501587 91.5053435 62.0501587 91.5053435 61.8469841 92.2320611 61.8469841"></polygon>
    <path d="M95.0534351,63.4114286 C95.3954198,63.167619 95.5022901,63.0660317 95.6519084,62.8831746 C95.8870229,62.5784127 96.0152672,62.2533333 96.0152672,61.9892063 C96.0152672,61.7657143 95.929771,61.6031746 95.7374046,61.4812698 C95.7587786,61.5422222 95.7587786,61.5828571 95.7587786,61.5828571 C95.7587786,61.8673016 95.5450382,62.0907937 95.2458015,62.0907937 C94.9251908,62.0907937 94.6687023,61.8673016 94.6687023,61.5422222 C94.6687023,61.1765079 94.989313,60.8920635 95.4167939,60.8920635 C95.951145,60.8920635 96.3358779,61.2984127 96.3358779,61.887619 C96.3358779,62.4971429 95.9725191,63.1066667 95.2671756,63.6349206 L95.0534351,63.4114286 Z"></path>
    <path d="M100.760305,55.3453968 L99.8625954,55.3453968 L99.8625954,55.1422222 L102.662595,55.1422222 C103.966412,55.1422222 104.436641,55.2438095 104.970992,55.6501587 C105.398473,55.9752381 105.612214,56.4019048 105.612214,56.9098413 C105.612214,57.4787302 105.312977,57.9663492 104.778626,58.2914286 C104.308397,58.5961905 103.752672,58.6977778 102.683969,58.6977778 L101.935878,58.6977778 L101.935878,61.8266667 L102.833588,61.8266667 L102.833588,62.0298413 L99.8625954,62.0298413 L99.8625954,61.8266667 L100.760305,61.8266667 L100.760305,55.3453968 L100.760305,55.3453968 Z M102.683969,58.4946032 C103.389313,58.4946032 103.68855,58.4133333 103.923664,58.2304762 C104.180153,57.9866667 104.287023,57.5803175 104.287023,56.9504762 C104.287023,55.6298413 103.987786,55.3453968 102.662595,55.3453968 L101.935878,55.3453968 L101.935878,58.5149206 L102.683969,58.5149206 L102.683969,58.4946032 Z"></path>
    <path d="M106.680916,61.5219048 C106.680916,61.8469841 106.381679,62.1314286 106.018321,62.1314286 C105.676336,62.1314286 105.377099,61.8673016 105.377099,61.5219048 C105.377099,61.1765079 105.676336,60.912381 106.039695,60.912381 C106.403053,60.912381 106.680916,61.1968254 106.680916,61.5219048 Z"></path>
    <path d="M113.242748,62.0501587 L113.071756,62.0501587 L112.708397,61.5625397 C112.08855,61.9688889 111.532824,62.1720635 110.912977,62.1720635 C109.203053,62.1720635 107.81374,60.5669841 107.81374,58.6368254 C107.81374,56.6863492 109.267176,55.0609524 111.019847,55.0609524 C111.596947,55.0609524 112.19542,55.264127 112.729771,55.6501587 L113.09313,55.1625397 L113.264122,55.1625397 L113.264122,56.9911111 L113.09313,56.9911111 C112.815267,55.9142857 112.08855,55.3047619 111.062595,55.3047619 C110.357252,55.3047619 109.822901,55.5892063 109.523664,56.0971429 C109.28855,56.5034921 109.181679,57.3974603 109.181679,58.9212698 C109.181679,60.3434921 109.267176,60.9530159 109.523664,61.3187302 C109.801527,61.7250794 110.335878,61.9688889 110.955725,61.9688889 C111.917557,61.9688889 112.622901,61.3593651 113.071756,60.1403175 L113.242748,60.1403175 L113.242748,62.0501587 Z"></path>
    <path d="M115.914504,61.5219048 C115.914504,61.8469841 115.615267,62.1314286 115.251908,62.1314286 C114.909924,62.1314286 114.610687,61.8673016 114.610687,61.5219048 C114.610687,61.1765079 114.909924,60.912381 115.273282,60.912381 C115.636641,60.912381 115.914504,61.1968254 115.914504,61.5219048 Z"></path>
    <path d="M28.259542,61.2780952 C28.1740458,61.664127 28.0030534,61.8469841 27.6610687,61.8469841 C27.4687023,61.8469841 27.319084,61.7657143 27.2549618,61.6438095 C27.1694656,61.5422222 27.1694656,61.4406349 27.1694656,61.135873 L27.1694656,58.1898413 L28.259542,58.1898413 L28.259542,57.9866667 L27.1694656,57.9866667 L27.1694656,56.3815873 L26.1862595,56.3815873 L26.1862595,57.9663492 L25.5236641,57.9663492 L25.5236641,58.1695238 L26.1862595,58.1695238 L26.1862595,60.8107937 C26.1862595,61.4609524 26.2076336,61.5625397 26.4,61.7657143 C26.6137405,62.0095238 26.9343511,62.1314286 27.340458,62.1314286 C28.0030534,62.1314286 28.3877863,61.8266667 28.4946565,61.2577778 L28.259542,61.2577778 L28.259542,61.2780952 L28.259542,61.2780952 Z"></path>
    <path d="M31.5938931,61.2780952 C31.5083969,61.664127 31.3374046,61.8469841 30.9954198,61.8469841 C30.8030534,61.8469841 30.6534351,61.7657143 30.589313,61.6438095 C30.5038168,61.5422222 30.5038168,61.4406349 30.5038168,61.135873 L30.5038168,58.1898413 L31.5938931,58.1898413 L31.5938931,57.9866667 L30.5038168,57.9866667 L30.5038168,56.3815873 L29.5206107,56.3815873 L29.5206107,57.9663492 L28.8580153,57.9663492 L28.8580153,58.1695238 L29.5206107,58.1695238 L29.5206107,60.8107937 C29.5206107,61.4609524 29.5419847,61.5625397 29.7343511,61.7657143 C29.9480916,62.0095238 30.2687023,62.1314286 30.6748092,62.1314286 C31.3374046,62.1314286 31.7221374,61.8266667 31.8290076,61.2577778 L31.5938931,61.2577778 L31.5938931,61.2780952 L31.5938931,61.2780952 Z"></path>
    <path d="M74.4061069,61.2780952 C74.3206107,61.664127 74.1496183,61.8469841 73.8076336,61.8469841 C73.6152672,61.8469841 73.4656489,61.7657143 73.4015267,61.6438095 C73.3160305,61.5422222 73.3160305,61.4406349 73.3160305,61.135873 L73.3160305,58.1898413 L74.4061069,58.1898413 L74.4061069,57.9866667 L73.3160305,57.9866667 L73.3160305,56.3815873 L72.3328244,56.3815873 L72.3328244,57.9663492 L71.670229,57.9663492 L71.670229,58.1695238 L72.3328244,58.1695238 L72.3328244,60.8107937 C72.3328244,61.4609524 72.3541985,61.5625397 72.5465649,61.7657143 C72.7603053,62.0095238 73.080916,62.1314286 73.4870229,62.1314286 C74.1496183,62.1314286 74.5343511,61.8266667 74.6412214,61.2577778 L74.4061069,61.2577778 L74.4061069,61.2780952 L74.4061069,61.2780952 Z"></path>
</svg>