<svg width="120px" height="120px" viewBox="0 0 120 120" version="1.1" xmlns="https://www.w3.org/2000/svg">
    <path d="M12.4622222,64.8893429 C12.1635556,65.9799796 11.9644444,66.4261491 11.4666667,66.9218931 C10.72,67.7150834 9.72444444,68.1116786 8.57955556,68.1116786 C6.04088889,68.1116786 4,65.9799796 4,63.3029622 C4,60.5267961 6.09066667,58.4446714 8.77866667,58.4446714 C10.6204444,58.4446714 12.0142222,59.4857337 12.0142222,60.8242424 C12.0142222,61.4687096 11.616,61.9644535 11.0684444,61.9644535 C10.5208889,61.9644535 10.1226667,61.4687096 10.1226667,60.8242424 C10.1226667,60.4276473 10.272,60.0310521 10.5208889,59.7831801 C10.6204444,59.6840313 10.6702222,59.6344569 10.6702222,59.5353081 C10.6702222,59.1882874 9.77422222,58.890841 8.82844444,58.890841 C6.98666667,58.890841 6.24,59.8823289 6.24,62.4601975 L6.24,63.9474293 C6.24,65.4346612 6.33955556,66.1782772 6.688,66.6740211 C7.136,67.3184883 7.78311111,67.665509 8.62933333,67.665509 C9.62488889,67.665509 10.5706667,67.2193395 11.2177778,66.4757235 C11.5662222,66.029554 11.7653333,65.6825332 12.0142222,64.8893429 L12.4622222,64.8893429 L12.4622222,64.8893429 Z"></path>
    <path d="M19.4311111,60.4276473 C19.4311111,59.386585 18.8835556,58.890841 17.7386667,58.890841 C16.8426667,58.890841 15.7973333,59.386585 15.7973333,59.7831801 C15.7973333,59.8327545 15.8471111,59.9319033 15.9466667,60.1302009 C16.1955556,60.4772217 16.2453333,60.6259448 16.2453333,60.8738168 C16.2453333,61.4191352 15.8968889,61.8157303 15.3991111,61.8157303 C14.9013333,61.8157303 14.5528889,61.3695608 14.5528889,60.774668 C14.5528889,59.5848825 16.1955556,58.4942458 18.0373333,58.4942458 C19.0328889,58.4942458 19.9786667,58.7421178 20.5262222,59.2378618 C21.0737778,59.6840313 21.2728889,60.2293497 21.2728889,61.2208376 L21.2728889,66.5748723 C21.2728889,67.3184883 21.4222222,67.5663602 21.92,67.5663602 C22.1688889,67.5663602 22.368,67.4672114 22.6168889,67.2193395 L22.816,67.5167858 C22.0195556,68.1116786 21.7706667,68.161253 21.1733333,68.161253 C20.0782222,68.161253 19.5804444,67.6159346 19.3813333,66.2278515 C18.6346667,67.5663602 17.7386667,68.161253 16.3946667,68.161253 C14.8515556,68.161253 13.9057778,67.3184883 13.9057778,65.9799796 C13.9057778,64.7901941 14.6524444,63.8482806 16.0462222,63.3029622 C16.8924444,62.9559414 17.6888889,62.8567926 19.4311111,62.8072182 L19.4311111,60.4276473 L19.4311111,60.4276473 Z M19.4311111,63.154239 C18.0871111,63.2038134 17.4897778,63.3029622 16.7928889,63.7491318 C16.096,64.1953013 15.6977778,64.7901941 15.6977778,65.5833844 C15.6977778,66.5748723 16.2951111,67.2193395 17.2408889,67.2193395 C18.0373333,67.2193395 18.8337778,66.6244467 19.1822222,65.8312564 C19.3315556,65.4346612 19.3813333,64.7901941 19.3813333,63.9970037 L19.3813333,63.154239 L19.4311111,63.154239 Z"></path>
    <path d="M27.3955556,61.0721144 C27.6942222,60.2293497 27.8435556,59.9319033 28.0924444,59.4857337 C28.5404444,58.8412666 29.1875556,58.4446714 29.9342222,58.4446714 C30.7306667,58.4446714 31.2782222,58.9404154 31.2782222,59.6840313 C31.2782222,60.3780729 30.88,60.8738168 30.3324444,60.8738168 C29.7848889,60.8738168 29.536,60.4772217 29.4862222,59.6840313 C29.4862222,59.4361593 29.3866667,59.2874362 29.1377778,59.2874362 C28.64,59.2874362 28.192,59.8823289 27.8435556,60.9233912 C27.4453333,62.0140279 27.3457778,62.7080695 27.3457778,64.6414709 L27.3457778,67.417637 L28.9386667,67.417637 L28.9386667,67.8638066 L23.9608889,67.8638066 L23.9608889,67.417637 L25.5537778,67.417637 L25.5537778,59.0891386 L23.9608889,59.0891386 L23.9608889,58.642969 L27.3955556,58.642969 L27.3955556,61.0721144 Z"></path>
    <path d="M36.2062222,61.0721144 C36.5048889,60.2293497 36.6542222,59.9319033 36.9031111,59.4857337 C37.3511111,58.8412666 37.9982222,58.4446714 38.7448889,58.4446714 C39.5413333,58.4446714 40.0888889,58.9404154 40.0888889,59.6840313 C40.0888889,60.3780729 39.6906667,60.8738168 39.1431111,60.8738168 C38.5955556,60.8738168 38.3466667,60.4772217 38.2968889,59.6840313 C38.2968889,59.4361593 38.1973333,59.2874362 37.9484444,59.2874362 C37.4506667,59.2874362 37.0026667,59.8823289 36.6542222,60.9233912 C36.256,62.0140279 36.1564444,62.7080695 36.1564444,64.6414709 L36.1564444,67.417637 L37.7493333,67.417637 L37.7493333,67.8638066 L32.7217778,67.8638066 L32.7217778,67.417637 L34.3146667,67.417637 L34.3146667,59.0891386 L32.7217778,59.0891386 L32.7217778,58.642969 L36.1564444,58.642969 L36.1564444,61.0721144 L36.2062222,61.0721144 Z"></path>
    <path d="M49.5466667,64.8893429 C49.248,65.9799796 49.0488889,66.4261491 48.5511111,66.9218931 C47.8044444,67.7150834 46.8088889,68.1116786 45.664,68.1116786 C43.1253333,68.1116786 41.0844444,65.9799796 41.0844444,63.3029622 C41.0844444,60.5267961 43.1751111,58.4446714 45.8631111,58.4446714 C47.7048889,58.4446714 49.0986667,59.4857337 49.0986667,60.8242424 C49.0986667,61.4687096 48.7004444,61.9644535 48.1528889,61.9644535 C47.6053333,61.9644535 47.2071111,61.4687096 47.2071111,60.8242424 C47.2071111,60.4276473 47.3564444,60.0310521 47.6053333,59.7831801 C47.7048889,59.6840313 47.7546667,59.6344569 47.7546667,59.5353081 C47.7546667,59.1882874 46.8586667,58.890841 45.9128889,58.890841 C44.0711111,58.890841 43.3244444,59.8823289 43.3244444,62.4601975 L43.3244444,63.9474293 C43.3244444,65.4346612 43.424,66.1782772 43.7724444,66.6740211 C44.2204444,67.3184883 44.8675556,67.665509 45.7137778,67.665509 C46.7093333,67.665509 47.6551111,67.2193395 48.3022222,66.4757235 C48.6506667,66.029554 48.8497778,65.6825332 49.0986667,64.8893429 L49.5466667,64.8893429 L49.5466667,64.8893429 Z"></path>
    <path d="M54.1262222,67.4672114 L55.7191111,67.4672114 L55.7191111,67.913381 L50.6915556,67.913381 L50.6915556,67.4672114 L52.2844444,67.4672114 L52.2844444,59.138713 L50.6915556,59.138713 L50.6915556,58.6925434 L54.1262222,58.6925434 L54.1262222,67.4672114 Z M54.3253333,53.6359551 C54.3253333,54.3299966 53.728,54.8753149 53.0311111,54.8753149 C52.3342222,54.8753149 51.7866667,54.2804222 51.7866667,53.5863807 C51.7866667,52.8923391 52.384,52.3470208 53.0311111,52.3470208 C53.728,52.3470208 54.3253333,52.9419135 54.3253333,53.6359551 Z"></path>
    <path d="M62.5884444,60.4276473 C62.5884444,59.386585 62.0408889,58.890841 60.896,58.890841 C60,58.890841 58.9546667,59.386585 58.9546667,59.7831801 C58.9546667,59.8327545 59.0044444,59.9319033 59.104,60.1302009 C59.3528889,60.4772217 59.4026667,60.6259448 59.4026667,60.8738168 C59.4026667,61.4191352 59.0542222,61.8157303 58.5564444,61.8157303 C58.0586667,61.8157303 57.7102222,61.3695608 57.7102222,60.774668 C57.7102222,59.5848825 59.3528889,58.4942458 61.1946667,58.4942458 C62.1902222,58.4942458 63.136,58.7421178 63.6835556,59.2378618 C64.2311111,59.6840313 64.4302222,60.2293497 64.4302222,61.2208376 L64.4302222,66.5748723 C64.4302222,67.3184883 64.5795556,67.5663602 65.0773333,67.5663602 C65.3262222,67.5663602 65.5253333,67.4672114 65.7742222,67.2193395 L65.9733333,67.5167858 C65.1768889,68.1116786 64.928,68.161253 64.3306667,68.161253 C63.2355556,68.161253 62.7377778,67.6159346 62.5386667,66.2278515 C61.792,67.5663602 60.896,68.161253 59.552,68.161253 C58.0088889,68.161253 57.0631111,67.3184883 57.0631111,65.9799796 C57.0631111,64.7901941 57.8097778,63.8482806 59.2035556,63.3029622 C60.0497778,62.9559414 60.8462222,62.8567926 62.5884444,62.8072182 L62.5884444,60.4276473 L62.5884444,60.4276473 Z M62.5884444,63.154239 C61.2444444,63.2038134 60.6471111,63.3029622 59.9502222,63.7491318 C59.2533333,64.1953013 58.8551111,64.7901941 58.8551111,65.5833844 C58.8551111,66.5748723 59.4524444,67.2193395 60.3982222,67.2193395 C61.1946667,67.2193395 61.9911111,66.6244467 62.3395556,65.8312564 C62.4888889,65.4346612 62.5386667,64.7901941 62.5386667,63.9970037 L62.5386667,63.154239 L62.5884444,63.154239 Z"></path>
    <polygon points="70.5528889 67.4672114 72.3448889 67.4672114 72.3448889 67.913381 66.8693333 67.913381 66.8693333 67.4672114 68.7111111 67.4672114 68.7111111 52.4461696 66.8693333 52.4461696 66.8693333 52 70.5528889 52 70.5528889 67.4672114"></polygon>
    <path d="M80.4586667,65.9304052 C79.6622222,67.5663602 78.9155556,68.161253 77.5715556,68.161253 C75.232,68.161253 73.5395556,66.1287028 73.5395556,63.3029622 C73.5395556,60.4772217 75.232,58.4942458 77.5217778,58.4942458 C78.8657778,58.4942458 79.712,59.0891386 80.5084444,60.6259448 L80.5084444,52.4461696 L78.6168889,52.4461696 L78.6168889,52 L82.3502222,52 L82.3502222,67.4672114 L83.9431111,67.4672114 L83.9431111,67.913381 L80.5084444,67.913381 L80.5084444,65.9304052 L80.4586667,65.9304052 Z M75.7297778,63.9970037 C75.7297778,65.4346612 75.7795556,66.0791284 76.0284444,66.6244467 C76.3271111,67.3184883 76.8746667,67.7150834 77.6213333,67.7150834 C79.264,67.7150834 80.3591111,65.9799796 80.3591111,63.402111 C80.3591111,60.7250936 79.264,58.9899898 77.5217778,58.9899898 C76.7253333,58.9899898 76.1777778,59.386585 75.9288889,60.0806265 C75.7795556,60.4772217 75.68,61.3695608 75.68,62.4106231 L75.68,63.9970037 L75.7297778,63.9970037 Z"></path>
    <path d="M86.9297778,64.2944501 C86.9297778,65.6825332 87.0293333,66.2774259 87.4773333,66.8227443 C87.8755556,67.3680626 88.5724444,67.665509 89.3688889,67.665509 C91.0613333,67.665509 92.3555556,66.5748723 92.704,64.7901941 L93.2017778,64.7901941 C92.8533333,66.8227443 91.4097778,68.1116786 89.4186667,68.1116786 C86.9297778,68.1116786 84.7395556,65.8808308 84.7395556,63.3029622 C84.7395556,62.1627511 85.1377778,61.0721144 85.8844444,60.1302009 C86.7804444,58.9899898 87.8755556,58.395097 89.2195556,58.395097 C91.5093333,58.395097 93.2017778,60.0806265 93.3013333,62.4106231 L86.9297778,62.4106231 L86.9297778,64.2944501 L86.9297778,64.2944501 Z M91.1111111,61.02254 C91.1111111,59.5353081 90.5137778,58.9404154 89.12,58.9404154 C87.6266667,58.9404154 86.9297778,59.6840313 86.9297778,61.270412 L86.9297778,62.0636023 L91.1111111,62.0636023 L91.1111111,61.02254 Z"></path>
    <polygon points="97.8808889 67.4672114 99.6728889 67.4672114 99.6728889 67.913381 94.1973333 67.913381 94.1973333 67.4672114 96.0391111 67.4672114 96.0391111 52.4461696 94.1973333 52.4461696 94.1973333 52 97.8808889 52"></polygon>
    <polygon points="103.754667 67.4672114 105.546667 67.4672114 105.546667 67.913381 100.071111 67.913381 100.071111 67.4672114 101.912889 67.4672114 101.912889 52.4461696 100.071111 52.4461696 100.071111 52 103.754667 52"></polygon>
    <path d="M112.216889,60.4276473 C112.216889,59.386585 111.669333,58.890841 110.524444,58.890841 C109.628444,58.890841 108.583111,59.386585 108.583111,59.7831801 C108.583111,59.8327545 108.632889,59.9319033 108.732444,60.1302009 C108.981333,60.4772217 109.031111,60.6259448 109.031111,60.8738168 C109.031111,61.4191352 108.682667,61.8157303 108.184889,61.8157303 C107.687111,61.8157303 107.338667,61.3695608 107.338667,60.774668 C107.338667,59.5848825 108.981333,58.4942458 110.823111,58.4942458 C111.818667,58.4942458 112.764444,58.7421178 113.312,59.2378618 C113.859556,59.6840313 114.058667,60.2293497 114.058667,61.2208376 L114.058667,66.5748723 C114.058667,67.3184883 114.208,67.5663602 114.705778,67.5663602 C114.954667,67.5663602 115.153778,67.4672114 115.402667,67.2193395 L115.601778,67.5167858 C114.805333,68.1116786 114.556444,68.161253 113.959111,68.161253 C112.864,68.161253 112.366222,67.6159346 112.167111,66.2278515 C111.420444,67.5663602 110.524444,68.161253 109.180444,68.161253 C107.637333,68.161253 106.691556,67.3184883 106.691556,65.9799796 C106.691556,64.7901941 107.438222,63.8482806 108.832,63.3029622 C109.678222,62.9559414 110.474667,62.8567926 112.216889,62.8072182 L112.216889,60.4276473 L112.216889,60.4276473 Z M112.216889,63.154239 C110.872889,63.2038134 110.275556,63.3029622 109.578667,63.7491318 C108.881778,64.1953013 108.483556,64.7901941 108.483556,65.5833844 C108.483556,66.5748723 109.080889,67.2193395 110.026667,67.2193395 C110.823111,67.2193395 111.619556,66.6244467 111.968,65.8312564 C112.117333,65.4346612 112.167111,64.7901941 112.167111,63.9970037 L112.167111,63.154239 L112.216889,63.154239 Z"></path>
</svg>