<svg width="120px" height="120px" viewBox="0 0 120 120" version="1.1" xmlns="http://www.w3.org/2000/svg">
    <path d="M12.7623952,69.2087168 C12.7623952,65.726402 14.0694611,63.6664412 15.7552096,63.3598994 L15.7552096,60.6868549 C11.662994,60.9320883 9,64.6473749 9,69.1841935 C9,75.1924126 12.6768862,77.4362986 15.7552096,77.6202237 L15.7552096,75.0697959 C14.0694611,74.7755158 12.7623952,72.8749567 12.7623952,69.2087168 Z"></path>
    <path d="M19.4687425,66.1187755 L22.7913772,66.1187755 C22.400479,62.7958625 21.0323353,60.833995 16.7324551,60.6868549 L16.7324551,63.3476377 C18.4548503,63.5193011 19.1755689,64.5860665 19.4687425,66.1187755 Z"></path>
    <path d="M16.7324551,75.0575342 L16.7324551,77.6324853 C21.0567665,77.4730836 22.4371257,75.4744311 22.8158084,71.9430696 L19.3832335,71.9430696 C18.9679042,73.6229186 18.1250299,74.8245625 16.7324551,75.0575342 Z"></path>
    <path d="M70.6764072,62.9552642 C73.571497,62.9552642 74.731976,65.3830752 74.8419162,68.4730165 L78.6287425,68.4730165 C78.445509,63.9607213 76.0512575,60.3925748 70.6641916,60.3925748 C65.2893413,60.3925748 62.8828743,63.9607213 62.6996407,68.4730165 L66.4986826,68.4730165 C66.6330539,65.3830752 67.7813174,62.9552642 70.6764072,62.9552642 Z"></path>
    <path d="M70.6764072,75.0084876 C67.7568862,75.0084876 66.6086228,72.5438915 66.5108982,69.4049036 L62.7118563,69.4049036 C62.834012,73.9907688 65.2160479,77.644747 70.6764072,77.644747 C76.1367665,77.644747 78.5188024,73.9907688 78.6409581,69.4049036 L74.8419162,69.4049036 C74.7564072,72.5438915 73.5959281,75.0084876 70.6764072,75.0084876 Z"></path>
    <path d="M69.4304192,38.8856025 C68.0256287,37.4632485 65.5947305,34.9496058 63.7257485,33 L63.7257485,34.3610456 C63.7257485,36.138988 63.7135329,38.5545373 63.7257485,40.3692647 L47.9188024,40.3692647 C49.0792814,41.5341236 50.3130539,42.7848141 51.3147305,43.7902712 C56.5552096,43.7902712 63.1027545,43.7902712 66.0833533,43.8025328 C66.0711377,42.8093374 66.0833533,41.3501985 66.0833533,40.5654515 C68.3188024,42.8215991 70.4687425,45.0041767 72.6553293,47.2112776 L59.548024,47.2112776 C60.4397605,48.1063796 61.9178443,49.5777803 62.9805988,50.6445457 C66.291018,50.6200224 71.0428743,50.6077607 74.3288623,50.6077607 C75.2450299,49.6881353 76.8452695,48.1063796 77.737006,47.2112776 C75.1961677,44.6731115 71.7513772,41.2521051 69.4304192,38.8856025 Z"></path>
    <path d="M54.1853892,71.3054627 C55.6390419,68.6078949 58.1432335,63.9116746 59.8045509,60.8094716 L56.1032335,60.8094716 C54.5762874,64.0955997 52.3164072,69.0002684 50.7039521,72.4457982 C50.7039521,73.8068437 50.7161677,75.9403746 50.7039521,77.2278502 C51.6811976,77.2155885 53.1959281,77.2155885 54.1853892,77.2278502 L54.1853892,71.3054627 Z"></path>
    <path d="M49.3358084,60.8094716 L45.1092216,60.8094716 C46.9171257,64.1691697 48.6761677,67.4430361 50.4840719,70.8027341 C50.7650299,70.1896505 51.4857485,68.6692032 52.2064671,67.1610176 C51.754491,66.1800839 50.3497006,63.0656192 49.3358084,60.8094716 Z"></path>
    <path d="M34.8725749,62.9552642 C37.7676647,62.9552642 38.9281437,65.3830752 39.0380838,68.4730165 L42.8249102,68.4730165 C42.6416766,63.9607213 40.2474251,60.3925748 34.8603593,60.3925748 C29.485509,60.3925748 27.0790419,63.9607213 26.8958084,68.4730165 L30.6948503,68.4730165 C30.817006,65.3830752 31.977485,62.9552642 34.8725749,62.9552642 Z"></path>
    <path d="M34.8725749,75.0084876 C31.9530539,75.0084876 30.8047904,72.5438915 30.7070659,69.4049036 L26.908024,69.4049036 C27.0301796,73.9907688 29.4122156,77.644747 34.8725749,77.644747 C40.3329341,77.644747 42.7149701,73.9907688 42.8371257,69.4049036 L39.0380838,69.4049036 C38.9403593,72.5438915 37.7920958,75.0084876 34.8725749,75.0084876 Z"></path>
    <rect x="81.7559281" y="60.6868549" width="13.4371257" height="2.82018451"></rect>
    <rect x="86.6543713" y="64.4021415" width="3.57916168" height="12.850232"></rect>
    <rect x="104.037126" y="60.6868549" width="6.63305389" height="2.82018451"></rect>
    <rect x="104.037126" y="74.4076656" width="6.8651497" height="2.82018451"></rect>
    <rect x="104.037126" y="67.295896" width="6.16886228" height="2.82018451"></rect>
    <rect x="99.5173653" y="60.6623316" width="3.57916168" height="16.5655186"></rect>
</svg>