<svg width="120px" height="120px" viewBox="0 0 120 120" version="1.1" xmlns="http://www.w3.org/2000/svg">
    <path d="M7.7,56.2 C8.3,56.2 8.8,56.3 9.2,56.5 C9.7,56.7 10.1,56.9 10.4,57.3 C10.7,57.7 11,58.1 11.2,58.6 C11.4,59.1 11.5,59.7 11.5,60.5 C11.5,61.1 11.4,61.7 11.3,62.2 C11.2,62.7 10.9,63.2 10.6,63.6 C10.3,64 9.9,64.3 9.4,64.5 C8.9,64.7 8.3,64.8 7.7,64.8 L4,64.8 L4,56.2 L7.7,56.2 Z M7.5,63.1 C7.8,63.1 8,63.1 8.3,63 C8.6,62.9 8.8,62.8 9,62.6 C9.2,62.4 9.4,62.1 9.5,61.8 C9.6,61.5 9.7,61.1 9.7,60.6 C9.7,60.2 9.7,59.8 9.6,59.4 C9.5,59.1 9.4,58.8 9.2,58.5 C9,58.3 8.8,58.1 8.4,57.9 C8.1,57.8 7.7,57.7 7.2,57.7 L5.8,57.7 L5.8,63.1 L7.5,63.1 L7.5,63.1 Z"></path>
    <path d="M21.3,56.2 L21.3,57.8 L16.8,57.8 L16.8,59.6 L21,59.6 L21,61.1 L16.8,61.1 L16.8,63.2 L21.4,63.2 L21.4,64.8 L14.9,64.8 L14.9,56.2 L21.3,56.2 Z"></path>
    <path d="M28.8,56.2 C29.2,56.2 29.6,56.2 29.9,56.3 C30.2,56.4 30.5,56.5 30.8,56.7 C31,56.9 31.2,57.1 31.4,57.4 C31.5,57.7 31.6,58 31.6,58.4 C31.6,58.8 31.5,59.2 31.3,59.5 C31.1,59.8 30.8,60 30.4,60.2 C30.9,60.4 31.3,60.6 31.6,61 C31.9,61.4 32,61.8 32,62.4 C32,62.8 31.9,63.2 31.7,63.5 C31.5,63.8 31.3,64.1 31,64.3 C30.7,64.5 30.4,64.6 30,64.7 C29.6,64.8 29.3,64.8 28.9,64.8 L24.8,64.8 L24.8,56.2 L28.8,56.2 Z M28.6,59.6 C28.9,59.6 29.2,59.5 29.4,59.4 C29.6,59.2 29.7,59 29.7,58.6 C29.7,58.4 29.7,58.2 29.6,58.1 C29.5,58 29.4,57.9 29.3,57.8 C29.2,57.7 29,57.7 28.9,57.7 L28.4,57.7 L26.6,57.7 L26.6,59.7 L28.6,59.7 L28.6,59.6 Z M28.7,63.3 C28.9,63.3 29.1,63.3 29.2,63.2 C29.3,63.1 29.5,63.1 29.6,63 C29.7,62.9 29.8,62.8 29.9,62.7 C30,62.6 30,62.4 30,62.1 C30,61.7 29.9,61.3 29.6,61.2 C29.4,61 29,60.9 28.6,60.9 L26.5,60.9 L26.5,63.3 C26.5,63.3 28.7,63.3 28.7,63.3 Z"></path>
    <path d="M45.3,56.2 C45.7,56.2 46,56.3 46.3,56.4 C46.6,56.5 46.9,56.7 47.1,56.9 C47.3,57.1 47.5,57.4 47.6,57.7 C47.7,58 47.8,58.3 47.8,58.6 C47.8,59.1 47.7,59.5 47.5,59.9 C47.3,60.3 46.9,60.5 46.5,60.7 L46.5,60.7 C46.7,60.8 46.9,60.9 47.1,61 C47.3,61.1 47.4,61.3 47.5,61.5 C47.6,61.7 47.7,61.9 47.7,62.1 C47.7,62.3 47.8,62.5 47.8,62.7 L47.8,63.2 L47.8,63.8 C47.8,64 47.9,64.2 47.9,64.3 C47.9,64.4 48,64.6 48.1,64.7 L46.2,64.7 C46.1,64.4 46,64.1 46,63.7 C46,63.3 45.9,63 45.9,62.6 C45.8,62.2 45.7,61.8 45.5,61.6 C45.3,61.4 45,61.3 44.5,61.3 L42.6,61.3 L42.6,64.6 L40.7,64.6 L40.7,56 L45.3,56 L45.3,56.2 L45.3,56.2 Z M44.7,60 C45.1,60 45.5,59.9 45.7,59.7 C45.9,59.5 46,59.2 46,58.8 C46,58.4 45.9,58.1 45.7,57.9 C45.5,57.7 45.2,57.6 44.7,57.6 L42.6,57.6 L42.6,60 L44.7,60 Z"></path>
    <path d="M57.9,56.2 L57.9,57.8 L53.4,57.8 L53.4,59.6 L57.6,59.6 L57.6,61.1 L53.4,61.1 L53.4,63.2 L58,63.2 L58,64.8 L51.5,64.8 L51.5,56.2 L57.9,56.2 Z"></path>
    <path d="M63.2,56.2 L63.2,64.8 L61.3,64.8 L61.3,56.2 C61.3,56.2 63.2,56.2 63.2,56.2 Z"></path>
    <path d="M68.8,56.2 L72.4,61.9 L72.4,61.9 L72.4,56.2 L74.2,56.2 L74.2,64.8 L72.3,64.8 L68.7,59.1 L68.7,59.1 L68.7,64.8 L66.9,64.8 L66.9,56.2 L68.8,56.2 Z"></path>
    <path d="M79.8,56.2 L79.8,59.5 L83.3,59.5 L83.3,56.2 L85.2,56.2 L85.2,64.8 L83.3,64.8 L83.3,61.1 L79.8,61.1 L79.8,64.8 L77.9,64.8 L77.9,56.2 L79.8,56.2 Z"></path>
    <path d="M93.1,56.2 L96.3,64.8 L94.3,64.8 L93.7,62.9 L90.5,62.9 L89.8,64.8 L87.9,64.8 L91.1,56.2 C91.1,56.2 93.1,56.2 93.1,56.2 Z M93.2,61.4 L92.1,58.3 L92.1,58.3 L91,61.4 L93.2,61.4 Z"></path>
    <path d="M103.8,56.2 C104.2,56.2 104.5,56.3 104.8,56.4 C105.1,56.5 105.4,56.7 105.6,56.9 C105.8,57.1 106,57.4 106.1,57.7 C106.2,58 106.3,58.3 106.3,58.6 C106.3,59.1 106.2,59.5 106,59.9 C105.8,60.3 105.4,60.5 105,60.7 L105,60.7 C105.2,60.8 105.4,60.9 105.6,61 C105.8,61.1 105.9,61.3 106,61.5 C106.1,61.7 106.2,61.9 106.2,62.1 C106.2,62.3 106.3,62.5 106.3,62.7 L106.3,63.2 L106.3,63.8 C106.3,64 106.4,64.2 106.4,64.3 C106.4,64.4 106.5,64.6 106.6,64.7 L104.7,64.7 C104.6,64.4 104.5,64.1 104.5,63.7 C104.5,63.3 104.4,63 104.4,62.6 C104.3,62.2 104.2,61.8 104,61.6 C103.8,61.4 103.5,61.3 103,61.3 L101.1,61.3 L101.1,64.6 L99.2,64.6 L99.2,56 L103.8,56 L103.8,56.2 L103.8,56.2 Z M103.1,60 C103.5,60 103.9,59.9 104.1,59.7 C104.3,59.5 104.4,59.2 104.4,58.8 C104.4,58.4 104.3,58.1 104.1,57.9 C103.9,57.7 103.6,57.6 103.1,57.6 L101,57.6 L101,60 L103.1,60 Z"></path>
    <polygon points="109 57.7 109 56.1 116 56.1 116 57.7 113.4 57.7 113.4 64.7 111.5 64.7 111.5 57.7 109 57.7"></polygon>
</svg>