<svg width="120px" height="120px" viewBox="0 0 120 120" version="1.1" xmlns="http://www.w3.org/2000/svg">
    <path d="M29.1774194,65.8548387 L28.1048387,68.4516129 C28.0483871,68.6209677 27.8790323,68.733871 27.6532258,68.733871 C27.483871,68.733871 27.3145161,68.6209677 27.2016129,68.4516129 L25.1693548,63.5967742 C25.0564516,63.3709677 25.1693548,63.0887097 25.3951613,62.9758065 C25.6209677,62.8629032 25.9032258,62.9758065 26.016129,63.2016129 L27.6532258,67.0967742 L28.7258065,64.5 C28.7822581,64.3306452 28.9516129,64.2177419 29.1774194,64.2177419 C29.3467742,64.2177419 29.516129,64.3306452 29.6290323,64.5 L30.0806452,65.6854839 L30.6451613,67.0967742 L31.0967742,66.0806452 L32.2822581,63.2016129 C32.3951613,62.9758065 32.6774194,62.8629032 32.9032258,62.9758065 C33.1290323,63.0887097 33.2419355,63.3709677 33.1290323,63.5967742 L31.8306452,66.6451613 L31.0403226,68.5080645 C30.983871,68.6774194 30.8145161,68.7903226 30.5887097,68.7903226 C30.4193548,68.7903226 30.25,68.6774194 30.1370968,68.5080645 L29.1774194,65.8548387 Z"></path>
    <path d="M57.4596774,76.2983871 C57.7419355,75.7903226 58.25,75.5080645 58.4193548,74.8870968 C58.5887097,74.9435484 58.7016129,75 58.8145161,75.1129032 C58.8709677,75.2822581 58.6451613,75.1129032 58.6451613,75.2258065 C58.6451613,75.4516129 58.8145161,75.5080645 58.9274194,75.6209677 C58.983871,75.7903226 58.8709677,75.8467742 58.8145161,75.9032258 C59.5483871,77.8225806 60.1693548,80.1935484 60.1129032,82.3951613 C59.7741935,82.0564516 59.8306452,81.4919355 59.7741935,81.0403226 C59.6612903,80.25 59.266129,79.6290323 58.983871,78.8387097 C58.9274194,78.6693548 58.9274194,78.4435484 58.8709677,78.2741935 C58.4758065,77.5403226 57.9112903,76.9193548 57.4596774,76.2983871 Z"></path>
    <path d="M59.7741935,81.5483871 C59.0403226,79.6854839 58.3064516,77.8225806 56.4435484,76.9193548 C56.1612903,77.3709677 55.4274194,77.4274194 54.9193548,77.7096774 C55.4274194,78.1612903 56.3870968,78.2177419 56.7822581,78.7822581 C57.9677419,79.4596774 58.7016129,80.5887097 59.266129,81.8870968 C59.2096774,81.9435484 59.2096774,82 59.2096774,82.1129032 C59.4919355,82.3387097 59.4354839,82.8467742 59.4354839,83.3548387 C59.3790323,83.5241935 59.0403226,83.5241935 58.983871,83.6935484 C59.6048387,83.8629032 59.6612903,84.4274194 60,84.8790323 C58.7580645,85.6129032 57.1774194,85.0483871 56.7822581,84.0887097 C56.5,83.3548387 56.8387097,82.9032258 57.3467742,82.6774194 C57.516129,82.2822581 57.1774194,82.1129032 57.0645161,81.8870968 C57.6854839,81.6048387 58.25,82.1693548 58.1370968,82.733871 C58.9274194,82.5080645 58.3064516,81.6612903 57.9677419,81.3790323 C57.0645161,81.266129 56.3870968,81.266129 55.8790323,81.7177419 C55.3145161,82.2258065 55.5403226,83.2983871 55.6532258,83.9758065 C55.0322581,83.2419355 54.4112903,81.4919355 55.4274194,80.8709677 C55.6532258,80.8145161 55.6532258,80.983871 55.8790323,80.9274194 C56.2741935,80.7580645 56.1048387,80.0806452 55.8225806,79.9112903 C56.7258065,79.8548387 56.3870968,80.7016129 56.3306452,80.983871 C56.6693548,80.8709677 56.6129032,80.4758065 56.7822581,80.25 C56.7258065,80.0241935 56.6129032,79.9112903 56.6129032,79.6854839 C56.3870968,79.7419355 56.3306452,79.5725806 56.2741935,79.4596774 C54.75,79.2903226 54.2419355,80.3064516 54.1290323,81.4354839 C53.9596774,80.8145161 53.7903226,79.9112903 54.016129,79.1774194 C54.016129,79.0080645 53.7903226,79.0645161 53.8467742,78.8951613 C54.0725806,78.8951613 54.6935484,78.3306452 54.6935484,78.2177419 C54.8064516,77.7096774 54.016129,77.6532258 53.6774194,77.8790323 C53.6209677,77.766129 53.6774194,77.7096774 53.6774194,77.5403226 C55.483871,76.8064516 57.233871,76.016129 57.2903226,73.7580645 C56.7258065,72.7983871 55.4274194,73.7016129 54.8064516,74.0967742 C54.5241935,74.4919355 54.2419355,74.8306452 53.9032258,75.1693548 C53.6209677,75.6209677 53.6774194,76.2419355 53.1693548,76.2983871 C53,76.2983871 52.9435484,76.1854839 52.7741935,76.1290323 C52.7741935,76.1290323 52.7177419,76.2419355 52.6612903,76.1854839 C52.4919355,76.1854839 52.266129,76.016129 52.0403226,76.0725806 C51.6451613,75.8467742 50.7983871,75.5080645 50.8548387,74.8870968 C50.8548387,74.5483871 51.25,74.2096774 51.8709677,74.2096774 C52.0967742,74.3790323 52.266129,74.8306452 51.983871,74.9435484 C51.7016129,74.9435484 51.7580645,74.6612903 51.5322581,74.7177419 C51.3629032,75.5645161 52.7177419,75.3387097 52.6612903,74.7741935 C52.6612903,74.3790323 52.266129,74.2096774 51.9274194,73.983871 C51.1935484,74.0403226 50.7419355,74.3790323 50.6290323,74.8870968 C50.4596774,75.9596774 52.0403226,76.6370968 53.2258065,76.6935484 C53.2258065,77.1451613 52.8306452,77.2580645 52.3790323,77.3709677 C51.7016129,76.8064516 50.7983871,76.3548387 49.6129032,76.5241935 C49.5,76.75 49.2177419,76.75 49.0483871,76.8629032 C48.8790323,77.0322581 48.9354839,77.3145161 48.6532258,77.3709677 C48.483871,77.4274194 47.8064516,77.1451613 47.5241935,77.0322581 C47.0725806,76.8064516 46.1693548,76.0725806 45.8870968,75.733871 C45.4354839,75.1129032 45.0967742,73.7016129 46.4516129,73.8145161 C46.4516129,73.9274194 46.6209677,73.9274194 46.6209677,74.0403226 C46.5645161,74.266129 46.3951613,74.1532258 46.1693548,74.1532258 C46.1693548,74.3225806 46.1693548,74.4919355 46.2258065,74.6048387 C46.7903226,75.0564516 47.5241935,74.6048387 47.5241935,74.0403226 C47.4677419,73.7016129 47.1290323,73.5887097 47.016129,73.3064516 C46.3387097,73.25 45.8306452,73.3629032 45.4919355,73.6451613 C45.3225806,74.0967742 45.2096774,74.5483871 45.3225806,75 C45.4354839,75.6774194 46.1693548,76.1290323 46.3951613,76.75 C46.6209677,76.6935484 46.6209677,76.8064516 46.7903226,76.8064516 C47.2419355,77.3145161 48.0887097,77.483871 48.766129,77.8225806 C48.483871,78.8951613 50.9112903,79.9112903 50.9677419,78.4435484 C50.9677419,78.2177419 50.6854839,78.2741935 50.7419355,78.0483871 C51.1370968,77.9919355 51.5887097,77.9354839 52.0403226,77.9354839 C53.0564516,79.0645161 53.3951613,80.8709677 53.9596774,82.3387097 C54.2419355,82.7903226 54.6370968,83.1290323 54.8064516,83.6935484 C55.1451613,83.75 55.3709677,84.0322581 55.4274194,84.2580645 C56.5,85.2177419 58.9274194,86.233871 60.4516129,85.1612903 C61.1290323,85.5 61.8064516,85.7822581 62.8225806,85.6693548 C63.9516129,85.5564516 64.7983871,84.766129 65.5322581,84.3145161 C65.7016129,84.2016129 65.7580645,83.9758065 65.983871,83.9758065 C66.9435484,82.9032258 67.7903226,81.4919355 68.0725806,79.9112903 C68.1290323,79.4596774 68.0725806,78.9516129 68.4112903,78.5564516 C68.3548387,78.3870968 68.5241935,78.0483871 68.5806452,77.8790323 C68.8064516,77.8225806 69.2580645,77.8790323 69.5403226,77.9354839 C69.2016129,79.7419355 72.25,79.1209677 71.6854839,77.5967742 C73.1532258,77.2016129 74.7903226,76.1854839 75.2419355,74.7741935 C75.5806452,73.7580645 74.9596774,72.7419355 73.7177419,72.7983871 C73.266129,72.9677419 72.9274194,73.4758065 73.0967742,73.9274194 C73.3225806,74.0967742 73.4919355,74.266129 73.7741935,74.3225806 C74,74.2096774 74.3387097,73.983871 74.1129032,73.6451613 C73.8870968,73.5887097 73.7177419,73.7580645 73.6612903,73.5887097 C73.6048387,73.4193548 73.7177419,73.3629032 73.7741935,73.3064516 C74.1693548,73.25 74.2822581,73.3064516 74.5645161,73.3629032 C74.7903226,73.6451613 74.9596774,73.983871 75.016129,74.4354839 C74.8467742,74.4919355 74.9596774,74.7741935 74.9032258,74.9435484 C74.1129032,75.9596774 73.266129,76.9758065 71.4596774,77.1451613 C71.233871,76.75 70.9516129,76.4112903 70.2177419,76.4677419 C69.9919355,76.2983871 69.5403226,76.2983871 69.2016129,76.4112903 C68.8064516,76.5806452 68.2419355,77.3145161 68.016129,77.3145161 C67.6209677,77.3145161 67.5080645,76.8064516 67.5080645,76.4677419 C68.1290323,76.3548387 68.5806452,76.1290323 69.0887097,75.9032258 C69.1451613,75.7903226 69.2016129,75.6774194 69.2580645,75.5645161 C69.3709677,75.5645161 69.4274194,75.5645161 69.483871,75.5080645 C69.8790323,74.8870968 69.8225806,74.0403226 69.2016129,73.5887097 C68.4112903,73.1935484 67.6209677,74.0403226 68.1854839,74.5483871 C68.4112903,74.7741935 69.0322581,74.7177419 69.0322581,74.266129 C68.8629032,74.0403226 68.4677419,74.3225806 68.4112903,73.983871 C68.4112903,73.9274194 68.4677419,73.7580645 68.5806452,73.7016129 C69.1451613,73.4758065 69.483871,74.1532258 69.483871,74.4919355 C69.5403226,75.3951613 68.4112903,76.1290323 67.3951613,76.1290323 C66.8870968,75.1693548 66.2096774,74.3225806 65.4193548,73.5887097 L65.1370968,73.5887097 C64.7983871,73.0806452 64.0645161,72.9677419 63.5564516,73.3629032 C63.5,73.5322581 63.3870968,73.6451613 63.2741935,73.7580645 C63.3306452,75.5645161 64.6854839,76.2983871 65.8709677,77.0887097 C66.3225806,77.3145161 67.2258065,77.3145161 67.2258065,77.8225806 C66.8306452,77.483871 66.0967742,77.7096774 66.266129,78.3306452 C66.8306452,78.8387097 67.1129032,79.7419355 67,80.7016129 C66.9435484,81.4354839 66.7177419,82.2822581 66.266129,82.7903226 C66.6612903,81.5483871 66.4919355,79.4596774 64.9677419,79.3467742 C64.3467742,79.2903226 63.6129032,79.7983871 64.1209677,80.1935484 C64.233871,79.8548387 64.7983871,79.516129 65.1935484,79.8548387 C64.9112903,79.9677419 64.6290323,80.1370968 64.7419355,80.6451613 C66.3225806,81.0403226 65.983871,83.4677419 64.9112903,84.2016129 C65.7580645,82.9596774 64.8548387,80.8709677 63.1048387,81.3225806 C62.8225806,81.3790323 62.3145161,81.7177419 62.2580645,82.1129032 C62.2016129,82.4516129 62.3709677,82.9596774 62.7096774,82.733871 C62.483871,82.5080645 62.483871,82.1693548 62.7096774,81.9435484 C62.9919355,81.9435484 63.1612903,81.7741935 63.4435484,81.9435484 C63.2177419,82.1693548 63.1612903,82.3951613 63.3306452,82.733871 C63.5564516,82.7903226 63.7822581,82.9032258 64.0645161,82.9596774 C65.25,84.5403226 62.2016129,86.1209677 60.8467742,84.9354839 C61.0725806,84.6532258 61.1854839,84.2580645 61.3548387,83.9193548 C61.4677419,83.9758065 61.8064516,84.0322581 61.8064516,83.8629032 C60.9596774,83.6935484 61.2983871,82.1129032 61.6370968,81.7741935 C62.3145161,80.0806452 63.4435484,78.7822581 65.3064516,78.1048387 L65.7580645,78.1048387 C65.7580645,77.8225806 65.5322581,77.8225806 65.3064516,77.766129 C64.9677419,77.4274194 64.2903226,77.2016129 63.7258065,76.9758065 C62.3709677,78.3306452 61.4677419,80.1370968 60.8467742,82.1129032 C61.2983871,80.1935484 61.8064516,77.766129 63.1048387,76.5241935 C62.9919355,76.0725806 62.483871,75.9596774 62.2580645,75.5645161 C62.1451613,75.3951613 62.2580645,75.2258065 61.9758065,75.1129032 C61.8064516,75.7903226 61.4677419,76.4677419 61.2419355,77.2016129 C61.1290323,77.6532258 61.1290323,78.1612903 61.0725806,78.6129032 C61.016129,79.0080645 60.8467742,79.4032258 60.7903226,79.8548387 C60.6774194,80.7016129 60.7903226,81.5483871 60.4516129,82.2822581 C60.3387097,81.3790323 60.733871,80.3629032 60.4516129,79.516129 C60.6209677,77.766129 60.6209677,75.733871 61.3548387,74.266129 C61.016129,73.6451613 60.733871,73.0806452 60.5080645,72.516129 C60.3951613,72.233871 60.3951613,71.8387097 60.0564516,71.7258065 C59.8306452,72.6290323 59.4919355,73.5322581 59.0403226,74.266129 C60.2822581,76.4112903 60.0564516,80.0241935 60.3387097,82.5645161 C60.0564516,82.5080645 59.8870968,82.733871 59.8306452,82.6209677 C59.8306452,82.2258065 59.6612903,82 59.7741935,81.5483871 Z M66.5483871,76.016129 C65.3629032,75.6774194 64.4032258,75.1693548 63.8387097,74.266129 C63.9516129,73.983871 63.8387097,73.983871 63.7822581,73.7016129 C64.4596774,73.3629032 64.9112903,73.983871 65.25,74.266129 C65.4193548,74.4354839 65.5887097,74.4919355 65.7580645,74.7177419 C66.0967742,75.1129032 66.5483871,75.5645161 66.5483871,76.016129 Z M54.0725806,75.9032258 C54.4677419,74.8306452 55.0322581,73.9274194 56.3870968,73.6451613 C57.1209677,74.7177419 55.2016129,75.7903226 54.0725806,75.9032258 Z M65.0241935,75.9596774 C65.5887097,76.3548387 67,76.1290323 66.9435484,76.9193548 C66.1532258,76.75 65.5322581,76.4112903 65.0241935,75.9596774 Z M54.9193548,76.2419355 C54.75,76.4677419 54.2419355,76.6935484 53.7903226,76.8629032 C53.6209677,76.3548387 54.5241935,76.4112903 54.9193548,76.2419355 Z M71.1209677,77.0322581 C71.1209677,77.1451613 70.9516129,77.1451613 70.9516129,77.2580645 C70.1612903,77.2016129 69.5967742,77.4274194 68.8064516,77.3145161 C68.9193548,76.9758065 69.3145161,77.0887097 69.4274194,76.75 C69.9354839,76.6370968 70.7822581,76.6935484 71.1209677,77.0322581 Z M51.5887097,77.3145161 C51.1935484,77.4274194 50.4596774,77.5967742 50.1774194,77.3709677 C49.8387097,77.483871 49.3306452,77.483871 48.9919355,77.3145161 C49.2741935,76.4677419 51.1370968,76.75 51.5887097,77.3145161 Z M53,77.5403226 C53.1693548,77.6532258 53.1693548,77.8790323 53.0564516,78.0483871 C52.8870968,77.9919355 52.9435484,77.766129 52.7741935,77.766129 C52.7741935,77.5967742 52.9435484,77.6532258 53,77.5403226 Z M71.4596774,77.5967742 C71.2903226,78.0483871 71.1209677,78.5564516 70.4435484,78.5564516 C70.1048387,78.4435484 70.1612903,78.0483871 70.3306452,77.766129 C70.7258065,77.766129 71.0080645,77.6532258 71.4596774,77.5967742 Z M49.1048387,77.766129 C49.5564516,77.8790323 49.9516129,77.8790323 50.2903226,77.8790323 C50.2903226,77.9919355 50.0645161,77.9919355 50.0645161,78.1048387 C50.1209677,78.1612903 50.2903226,78.1612903 50.2903226,78.2177419 C50.2903226,78.3306452 50.1774194,78.3306452 50.1774194,78.4435484 C49.6129032,78.6129032 48.9919355,78.2177419 49.1048387,77.766129 Z M60.5080645,82.1693548 C60.6774194,82.1693548 60.5645161,82.4516129 60.6774194,82.5080645 C60.7903226,82.5645161 60.7903226,82.4516129 60.9032258,82.4516129 L60.9032258,82.6774194 C60.733871,82.6774194 60.6209677,82.6209677 60.4516129,82.5645161 C60.5080645,82.4516129 60.5080645,82.3387097 60.5080645,82.1693548 Z M60.4516129,84.5403226 C60,84.2580645 59.6612903,82.9596774 60.5080645,82.9596774 C60.9032258,83.2983871 60.8467742,84.2016129 60.4516129,84.5403226 Z"></path>
    <path d="M60.4516129,87.4758065 C58.8709677,87.4193548 59.5483871,85.1612903 60.9032258,85.8387097 C61.1290323,85.9516129 61.3548387,86.3467742 61.3548387,86.5725806 C61.4677419,87.0806452 60.9596774,87.3064516 60.4516129,87.4758065 Z"></path>
    <path d="M63.0483871,44.1209677 C62.766129,44.6290323 62.2580645,44.9112903 62.0887097,45.5322581 C61.9193548,45.4758065 61.8064516,45.4193548 61.6935484,45.3064516 C61.6370968,45.1370968 61.8629032,45.3064516 61.8064516,45.1935484 C61.8064516,44.9677419 61.6370968,44.9112903 61.5241935,44.8548387 C61.4677419,44.6854839 61.5806452,44.6290323 61.6370968,44.5725806 C60.9032258,42.6532258 60.2822581,40.2822581 60.3387097,38.0806452 C60.6774194,38.4193548 60.6209677,38.983871 60.6774194,39.4354839 C60.7903226,40.2258065 61.1854839,40.8467742 61.4677419,41.6370968 C61.5241935,41.8064516 61.5241935,42.0322581 61.6370968,42.2016129 C61.9758065,42.8790323 62.5403226,43.5564516 63.0483871,44.1209677 Z"></path>
    <path d="M60.733871,38.8709677 C61.4677419,40.733871 62.2016129,42.5967742 64.0645161,43.5 C64.3467742,43.0483871 65.0806452,42.9919355 65.5887097,42.7096774 C65.0806452,42.3145161 64.1209677,42.2016129 63.7258065,41.6370968 C62.5403226,40.9596774 61.8064516,39.8306452 61.2419355,38.5322581 C61.2983871,38.4758065 61.2983871,38.4193548 61.2983871,38.3064516 C61.016129,38.0806452 61.0725806,37.5725806 61.0725806,37.0645161 C61.1290323,36.8951613 61.4677419,36.8951613 61.5241935,36.7258065 C60.9032258,36.5564516 60.8467742,35.9919355 60.5080645,35.5403226 C61.75,34.8064516 63.3306452,35.3709677 63.7258065,36.3306452 C64.0645161,37.0645161 63.6693548,37.516129 63.1612903,37.7419355 C62.9919355,38.1370968 63.3306452,38.3064516 63.4435484,38.5322581 C62.8225806,38.8145161 62.2580645,38.25 62.3709677,37.6854839 C61.5806452,37.9112903 62.2016129,38.7580645 62.483871,39.0403226 C63.3870968,39.1532258 64.0645161,39.1532258 64.5725806,38.7016129 C65.1370968,38.1935484 64.9112903,37.1209677 64.7983871,36.4435484 C65.4193548,37.1774194 66.0403226,38.9274194 65.0241935,39.5483871 C64.7983871,39.6048387 64.7983871,39.4354839 64.5725806,39.4919355 C64.1774194,39.6612903 64.3467742,40.3387097 64.6290323,40.5080645 C63.7258065,40.5645161 64.0645161,39.7177419 64.1209677,39.4354839 C63.7822581,39.5483871 63.8387097,39.9435484 63.6693548,40.1693548 C63.7258065,40.3951613 63.8387097,40.5080645 63.8387097,40.733871 C64.0645161,40.6774194 64.1209677,40.8467742 64.1774194,40.9596774 C65.7016129,41.1290323 66.2096774,40.1129032 66.3225806,38.983871 C66.4919355,39.6048387 66.6612903,40.5080645 66.4354839,41.2419355 C66.4354839,41.4112903 66.6612903,41.3548387 66.6048387,41.5241935 C66.3790323,41.5241935 65.7580645,42.0887097 65.7580645,42.2016129 C65.6451613,42.7096774 66.4354839,42.766129 66.7741935,42.5403226 C66.8306452,42.6532258 66.7741935,42.7096774 66.7741935,42.8790323 C64.9677419,43.6129032 63.2177419,44.4032258 63.1612903,46.6612903 C63.7258065,47.6209677 65.0241935,46.7177419 65.6451613,46.3225806 C65.9274194,45.983871 66.2096774,45.5887097 66.5483871,45.25 C66.8306452,44.7983871 66.7741935,44.1774194 67.2822581,44.1209677 C67.4516129,44.1209677 67.5080645,44.233871 67.6774194,44.2903226 C67.6774194,44.2903226 67.733871,44.1774194 67.8467742,44.233871 C68.016129,44.233871 68.2419355,44.4032258 68.4677419,44.3467742 C68.8629032,44.5725806 69.7096774,44.9112903 69.6532258,45.5322581 C69.6532258,45.8709677 69.2580645,46.2096774 68.6370968,46.2096774 C68.4112903,46.0403226 68.2419355,45.5887097 68.5241935,45.4758065 C68.8064516,45.4758065 68.75,45.7580645 68.9758065,45.7016129 C69.1451613,44.8548387 67.7903226,45.0806452 67.8467742,45.6451613 C67.8467742,46.0403226 68.2419355,46.2096774 68.5806452,46.4354839 C69.3145161,46.3790323 69.766129,46.0403226 69.8790323,45.5322581 C70.0483871,44.4596774 68.4677419,43.7822581 67.2822581,43.7258065 C67.2822581,43.2177419 67.6774194,43.1048387 68.1290323,43.0483871 C68.8064516,43.6129032 69.7096774,44.0645161 70.8951613,43.8951613 C71.0080645,43.6693548 71.2903226,43.6693548 71.4596774,43.5564516 C71.6290323,43.3870968 71.5725806,43.1048387 71.8548387,43.0483871 C72.0241935,42.9919355 72.7016129,43.2741935 72.983871,43.3870968 C73.4354839,43.6129032 74.3387097,44.3467742 74.6209677,44.6854839 C75.0725806,45.3064516 75.4112903,46.7177419 74.0564516,46.6048387 C74.0564516,46.4919355 73.8870968,46.4919355 73.8870968,46.3790323 C73.9435484,46.1532258 74.1129032,46.266129 74.3387097,46.266129 C74.3387097,46.0967742 74.3387097,45.9274194 74.2822581,45.8145161 C73.7177419,45.3629032 72.983871,45.8145161 72.983871,46.3790323 C73.0403226,46.7177419 73.3790323,46.8306452 73.4919355,47.1129032 C74.1693548,47.1693548 74.6774194,47.0564516 75.016129,46.7741935 C75.1854839,46.3225806 75.2983871,45.8709677 75.1854839,45.4193548 C75.0725806,44.7419355 74.3387097,44.2903226 74.1129032,43.6693548 C73.8870968,43.7258065 73.8870968,43.6129032 73.7177419,43.6129032 C73.266129,43.1048387 72.4193548,42.9354839 71.7419355,42.5967742 C72.0241935,41.5241935 69.5967742,40.5080645 69.5403226,41.9758065 C69.5403226,42.2016129 69.8225806,42.1451613 69.766129,42.3709677 C69.3709677,42.4274194 68.9193548,42.483871 68.4677419,42.483871 C67.4516129,41.3548387 67.1129032,39.5483871 66.5483871,38.0806452 C66.266129,37.6290323 65.8709677,37.2903226 65.7016129,36.7258065 C65.3629032,36.6693548 65.1370968,36.3870968 65.0806452,36.1612903 C64.0080645,35.2016129 61.5806452,34.1854839 60.0564516,35.2580645 C59.3790323,34.9193548 58.7016129,34.6370968 57.6854839,34.75 C56.5564516,34.8629032 55.7096774,35.6532258 54.9758065,36.1048387 C54.8064516,36.2177419 54.75,36.4435484 54.5241935,36.4435484 C53.5645161,37.516129 52.7177419,38.9274194 52.4354839,40.5080645 C52.3790323,40.9596774 52.4354839,41.4677419 52.0967742,41.8629032 C52.1532258,42.0322581 51.983871,42.3709677 51.9274194,42.483871 C51.7016129,42.5403226 51.25,42.483871 50.9677419,42.4274194 C51.3064516,40.6209677 48.2580645,41.2419355 48.8225806,42.766129 C47.3548387,43.1612903 45.7177419,44.1774194 45.266129,45.5887097 C44.9274194,46.6048387 45.4919355,47.6209677 46.7903226,47.5645161 C47.2419355,47.3951613 47.5806452,46.9435484 47.4112903,46.4354839 C47.1854839,46.266129 47.016129,46.0967742 46.733871,46.0403226 C46.5080645,46.1532258 46.1693548,46.3790323 46.3951613,46.7177419 C46.6209677,46.7741935 46.7903226,46.6048387 46.8467742,46.7741935 C46.9032258,46.9435484 46.7903226,47 46.733871,47.0564516 C46.3387097,47.1129032 46.2258065,47.0564516 45.9435484,47 C45.7177419,46.7177419 45.5483871,46.3790323 45.4919355,45.9274194 C45.6612903,45.8709677 45.5483871,45.5887097 45.6048387,45.4193548 C46.3951613,44.4032258 47.2419355,43.3870968 49.0483871,43.2177419 C49.2741935,43.6129032 49.5564516,43.9516129 50.2903226,43.8951613 C50.516129,44.0645161 50.9677419,44.0645161 51.3064516,43.9516129 C51.7016129,43.7822581 52.266129,43.0483871 52.4919355,43.0483871 C52.8870968,43.0483871 53,43.5564516 53,43.8951613 C52.3790323,44.0080645 51.9274194,44.233871 51.4193548,44.4596774 C51.3629032,44.5725806 51.3064516,44.6854839 51.25,44.7983871 C51.1370968,44.7983871 51.0806452,44.7983871 51.0241935,44.8548387 C50.6290323,45.4758065 50.6854839,46.3225806 51.3064516,46.7741935 C52.0967742,47.1693548 52.8870968,46.3225806 52.3225806,45.8145161 C52.0967742,45.5887097 51.4758065,45.6451613 51.4758065,46.0967742 C51.6451613,46.3225806 52.0403226,46.0403226 52.0967742,46.3790323 C52.0967742,46.4354839 52.0403226,46.6048387 51.9274194,46.6612903 C51.3629032,46.8870968 51.0241935,46.2096774 51.0241935,45.8709677 C50.9677419,44.9677419 52.0967742,44.233871 53.1129032,44.1774194 C53.6209677,45.1370968 54.2983871,45.983871 55.0887097,46.7177419 L55.3709677,46.7177419 C55.7096774,47.2258065 56.4435484,47.3387097 56.9516129,46.9435484 C57.0080645,46.7741935 57.1209677,46.6612903 57.233871,46.5483871 C57.1774194,44.7419355 55.8225806,44.0080645 54.6370968,43.2177419 C54.1854839,42.9919355 53.2822581,42.9919355 53.2822581,42.483871 C53.6774194,42.8225806 54.4112903,42.5967742 54.2419355,41.9758065 C53.6774194,41.4677419 53.3951613,40.5645161 53.5080645,39.6048387 C53.5645161,38.8709677 53.7903226,38.0241935 54.2419355,37.516129 C53.8467742,38.7580645 54.016129,40.8467742 55.5403226,40.9596774 C56.1612903,41.016129 56.8951613,40.5080645 56.3870968,40.1129032 C56.2741935,40.4516129 55.7096774,40.7903226 55.3145161,40.4516129 C55.5967742,40.3387097 55.8790323,40.1693548 55.766129,39.6612903 C54.1854839,39.266129 54.5241935,36.8387097 55.5967742,36.1048387 C54.75,37.3467742 55.6532258,39.4354839 57.4032258,38.983871 C57.6854839,38.9274194 58.1935484,38.5887097 58.25,38.1935484 C58.3064516,37.8548387 58.1370968,37.3467742 57.7983871,37.516129 C58.0241935,37.7419355 58.0241935,38.0806452 57.7983871,38.3064516 C57.516129,38.3064516 57.3467742,38.4758065 57.0645161,38.3064516 C57.2903226,38.0806452 57.3467742,37.8548387 57.1774194,37.516129 C56.9516129,37.4596774 56.7258065,37.3467742 56.4435484,37.2903226 C55.2580645,35.7096774 58.3064516,34.1290323 59.6612903,35.3145161 C59.4354839,35.5967742 59.3225806,35.9919355 59.1532258,36.3306452 C59.0967742,36.2741935 58.7016129,36.2177419 58.7016129,36.3870968 C59.5483871,36.5564516 59.2096774,38.1370968 58.8145161,38.4758065 C58.1370968,40.1693548 57.0080645,41.4677419 55.1451613,42.1451613 L54.6935484,42.1451613 C54.6935484,42.4274194 54.9193548,42.4274194 55.1451613,42.483871 C55.483871,42.766129 56.1612903,43.0483871 56.7258065,43.2741935 C58.0806452,41.9193548 58.983871,40.1129032 59.6048387,38.1370968 C59.1532258,40.1129032 58.6451613,42.483871 57.3467742,43.7258065 C57.4596774,44.1774194 57.9677419,44.2903226 58.1935484,44.6854839 C58.3064516,44.8548387 58.1935484,45.0241935 58.4758065,45.1370968 C58.6451613,44.4596774 58.983871,43.7822581 59.2096774,43.0483871 C59.3225806,42.5967742 59.3225806,42.0887097 59.3790323,41.6370968 C59.4354839,41.2419355 59.6048387,40.8467742 59.6612903,40.3951613 C59.7741935,39.5483871 59.6612903,38.7016129 60,37.9677419 C60.1129032,38.8709677 59.7177419,39.8870968 60,40.733871 C59.8306452,42.483871 59.8306452,44.516129 59.0967742,45.983871 C59.4919355,46.3790323 59.7741935,47 60,47.5645161 C60.1129032,47.8467742 60.1129032,48.2419355 60.4516129,48.3548387 C60.6774194,47.4516129 61.016129,46.5483871 61.4677419,45.8145161 C60.2258065,43.6693548 60.4516129,40.0564516 60.1693548,37.516129 C60.4516129,37.5725806 60.6209677,37.3467742 60.6774194,37.4596774 C60.6209677,38.1935484 60.7903226,38.4758065 60.733871,38.8709677 Z M53.9032258,44.4596774 C55.0887097,44.7983871 56.1048387,45.3064516 56.6129032,46.2096774 C56.5,46.4919355 56.6129032,46.4919355 56.6693548,46.7741935 C55.9919355,47.1129032 55.5403226,46.4919355 55.2016129,46.2096774 C55.0322581,46.0403226 54.8629032,45.983871 54.6935484,45.7580645 C54.3548387,45.3064516 53.9032258,44.9112903 53.9032258,44.4596774 Z M66.3790323,44.516129 C65.983871,45.5887097 65.4193548,46.4919355 64.0645161,46.7741935 C63.3306452,45.7016129 65.25,44.6854839 66.3790323,44.516129 Z M55.4274194,44.516129 C54.8629032,44.1209677 53.4516129,44.3467742 53.5080645,43.5564516 C54.2983871,43.6693548 54.9193548,44.0645161 55.4274194,44.516129 Z M65.5322581,44.233871 C65.7016129,44.0080645 66.2096774,43.7822581 66.6612903,43.6129032 C66.8306452,44.1209677 65.9274194,44.0645161 65.5322581,44.233871 Z M49.3306452,43.3870968 C49.3306452,43.2177419 49.5,43.2741935 49.5,43.1612903 C50.2903226,43.2177419 50.8548387,42.9919355 51.6451613,43.1048387 C51.5322581,43.4435484 51.1370968,43.3306452 51.0241935,43.6693548 C50.516129,43.8387097 49.6693548,43.7822581 49.3306452,43.3870968 Z M68.8629032,43.1048387 C69.2580645,42.9919355 69.9919355,42.8225806 70.2741935,43.0483871 C70.6129032,42.9354839 71.1209677,42.9354839 71.4596774,43.1048387 C71.1774194,44.0080645 69.3145161,43.6693548 68.8629032,43.1048387 Z M67.4516129,42.9354839 C67.3387097,42.766129 67.3387097,42.5967742 67.3951613,42.4274194 C67.5645161,42.483871 67.5080645,42.7096774 67.6774194,42.7096774 C67.6774194,42.8225806 67.5080645,42.8225806 67.4516129,42.9354839 Z M48.9919355,42.8225806 C49.1612903,42.3709677 49.3306452,41.8629032 50.0080645,41.8629032 C50.3467742,41.9758065 50.2903226,42.3709677 50.1774194,42.6532258 C49.7258065,42.6532258 49.4435484,42.8225806 48.9919355,42.8225806 Z M71.4032258,42.7096774 C70.9516129,42.5967742 70.5564516,42.5967742 70.2177419,42.5967742 C70.2177419,42.483871 70.4435484,42.483871 70.4435484,42.3709677 C70.3870968,42.3145161 70.2177419,42.3709677 70.2177419,42.2580645 C70.2177419,42.1451613 70.3306452,42.1451613 70.3306452,42.0322581 C70.8951613,41.8629032 71.4596774,42.2580645 71.4032258,42.7096774 Z M59.9435484,38.3064516 C59.7741935,38.3064516 59.8870968,38.0241935 59.8306452,37.9677419 C59.7177419,37.9112903 59.7177419,38.0241935 59.6048387,38.0241935 L59.6048387,37.7983871 C59.7741935,37.7983871 59.8870968,37.9112903 60.0564516,37.9112903 C59.9435484,37.9677419 59.9435484,38.1370968 59.9435484,38.3064516 Z M60,35.9354839 C60.4516129,36.2177419 60.7903226,37.516129 59.9435484,37.516129 C59.5483871,37.1209677 59.6048387,36.2741935 60,35.9354839 Z"></path>
    <path d="M60,33 C61.5806452,33.0564516 60.9032258,35.3145161 59.5483871,34.6935484 C59.3225806,34.5806452 59.0967742,34.1854839 59.0967742,33.9596774 C58.983871,33.3951613 59.4919355,33.1693548 60,33 Z"></path>
    <path d="M25,55.6370968 C25,53.9435484 26.4112903,52.5887097 28.1048387,52.5887097 C28.8387097,52.5887097 29.516129,52.8145161 30.0241935,53.266129 C30.25,53.4354839 30.25,53.7177419 30.1370968,53.9435484 C29.9677419,54.1693548 29.6854839,54.1693548 29.4596774,54 C29.1209677,53.7177419 28.6129032,53.5483871 28.1612903,53.5483871 C27.5403226,53.5483871 27.0322581,53.7741935 26.6370968,54.1693548 C26.2419355,54.5645161 26.016129,55.0725806 26.016129,55.6370968 C26.016129,56.2016129 26.2419355,56.7096774 26.6370968,57.1048387 C27.0322581,57.5 27.5403226,57.7258065 28.1612903,57.7258065 C28.5564516,57.7258065 28.9516129,57.6129032 29.2903226,57.3870968 L29.2903226,56.2580645 L28.0483871,56.2580645 C27.766129,56.2580645 27.5967742,56.0322581 27.5967742,55.8064516 C27.5967742,55.5241935 27.8225806,55.3548387 28.0483871,55.3548387 L29.6854839,55.3548387 L29.6854839,55.3548387 L29.6854839,55.3548387 C29.9677419,55.3548387 30.1935484,55.5806452 30.1935484,55.8064516 L30.1935484,57.6693548 L30.1935484,57.8387097 C30.1935484,57.8387097 30.1935484,57.8387097 30.1935484,57.8951613 L30.1935484,57.8951613 C30.1935484,57.9516129 30.1370968,58.0645161 30.0241935,58.1209677 C29.516129,58.516129 28.8387097,58.7983871 28.1048387,58.7983871 C26.4112903,58.6290323 25,57.3306452 25,55.6370968 Z"></path>
    <path d="M36.7983871,57.9516129 C36.8548387,58.1774194 36.7419355,58.4596774 36.516129,58.516129 L36.3467742,58.516129 L36.3467742,58.516129 C36.2903226,58.516129 36.1209677,58.516129 36.0080645,58.4032258 C35.8951613,58.3467742 35.7822581,58.233871 35.7258065,58.1209677 C35.6129032,57.8951613 35.5564516,57.5564516 35.5564516,57.1048387 C35.5564516,56.9354839 35.5,56.8225806 35.4435484,56.766129 C35.3870968,56.6532258 35.2741935,56.5967742 35.2177419,56.5403226 C35.0483871,56.4274194 34.8225806,56.3709677 34.766129,56.3145161 L33.75,56.3145161 L33.75,58.1209677 C33.75,58.3467742 33.5241935,58.5725806 33.2983871,58.5725806 C33.016129,58.5725806 32.8467742,58.3467742 32.8467742,58.1209677 L32.8467742,53.1532258 C32.8467742,52.8709677 33.0725806,52.7016129 33.2983871,52.7016129 L33.2983871,52.7016129 L34.766129,52.7016129 C35.7822581,52.7016129 36.5725806,53.4919355 36.5725806,54.5080645 C36.5725806,55.0725806 36.3467742,55.5241935 35.8951613,55.8629032 C36.0080645,55.9193548 36.1209677,56.0322581 36.1774194,56.1451613 C36.3467742,56.3709677 36.4596774,56.7096774 36.4596774,57.0483871 C36.4596774,57.2741935 36.4596774,57.4435484 36.516129,57.5564516 C36.6290323,57.7258065 36.7419355,57.7822581 36.7983871,57.9516129 Z M35.6129032,54.5645161 C35.6129032,54.0564516 35.2177419,53.7177419 34.766129,53.7177419 L33.75,53.7177419 L33.75,55.4677419 L34.766129,55.4677419 C35.2741935,55.4112903 35.6129032,55.0725806 35.6129032,54.5645161 Z"></path>
    <path d="M39,58.1774194 L39,53.2096774 C39,52.9274194 39.2258065,52.7580645 39.4516129,52.7580645 L39.4516129,52.7580645 L39.4516129,52.7580645 L42.1612903,52.7580645 C42.3870968,52.7580645 42.6129032,52.983871 42.6129032,53.2096774 C42.6129032,53.4919355 42.3870968,53.6612903 42.1612903,53.6612903 L39.9032258,53.6612903 L39.9032258,55.1854839 L41.8790323,55.1854839 C42.1048387,55.1854839 42.3306452,55.4112903 42.3306452,55.6370968 C42.3306452,55.9193548 42.1048387,56.0887097 41.8790323,56.0887097 L39.9032258,56.0887097 L39.9032258,57.6129032 L42.1612903,57.6129032 C42.3870968,57.6129032 42.6129032,57.8387097 42.6129032,58.0645161 C42.6129032,58.2903226 42.3870968,58.516129 42.1612903,58.516129 L39.4516129,58.516129 L39.4516129,58.516129 L39.4516129,58.516129 C39.2258065,58.6290323 39,58.4596774 39,58.1774194 Z"></path>
    <path d="M44.8145161,58.1774194 L44.8145161,53.2096774 C44.8145161,52.9274194 45.0403226,52.7580645 45.266129,52.7580645 L45.266129,52.7580645 L45.266129,52.7580645 L47.9758065,52.7580645 C48.2016129,52.7580645 48.4274194,52.983871 48.4274194,53.2096774 C48.4274194,53.4919355 48.2016129,53.6612903 47.9758065,53.6612903 L45.7177419,53.6612903 L45.7177419,55.1854839 L47.6935484,55.1854839 C47.9193548,55.1854839 48.1451613,55.4112903 48.1451613,55.6370968 C48.1451613,55.9193548 47.9193548,56.0887097 47.6935484,56.0887097 L45.7177419,56.0887097 L45.7177419,57.6129032 L47.9758065,57.6129032 C48.2016129,57.6129032 48.4274194,57.8387097 48.4274194,58.0645161 C48.4274194,58.2903226 48.2016129,58.516129 47.9758065,58.516129 L45.3225806,58.516129 L45.3225806,58.516129 L45.3225806,58.516129 C45.0403226,58.6290323 44.8145161,58.4596774 44.8145161,58.1774194 Z"></path>
    <path d="M51.5322581,58.1774194 C51.5322581,58.4032258 51.3064516,58.6290323 51.0806452,58.6290323 C50.7983871,58.6290323 50.6290323,58.4032258 50.6290323,58.1774194 L50.6290323,53.3225806 L50.6290323,53.3225806 C50.6290323,53.1532258 50.6854839,53.0403226 50.7983871,52.9274194 C51.0241935,52.7580645 51.3064516,52.8145161 51.4193548,53.0403226 L54.1290323,56.766129 L54.1290323,53.3225806 C54.1290323,53.0967742 54.3548387,52.8709677 54.5806452,52.8709677 C54.8064516,52.8709677 55.0322581,53.0967742 55.0322581,53.3225806 L55.0322581,58.1774194 C55.0322581,58.4032258 54.8064516,58.6290323 54.5806452,58.6290323 C54.4677419,58.6290323 54.2983871,58.5725806 54.2419355,58.4596774 L54.1854839,58.4032258 L51.5322581,54.6774194 L51.5322581,58.1774194 Z"></path>
    <path d="M61.2983871,58.1774194 L61.2983871,53.2096774 C61.2983871,52.9274194 61.5241935,52.7580645 61.75,52.7580645 L61.75,52.7580645 L61.75,52.7580645 L62.9354839,52.7580645 C63.8387097,52.7580645 64.516129,53.4919355 64.516129,54.3387097 C64.516129,54.6774194 64.4032258,55.016129 64.1774194,55.2983871 C64.6854839,55.6370968 65.0241935,56.2016129 65.0241935,56.8225806 C65.0241935,57.8387097 64.233871,58.6290323 63.2177419,58.6290323 L61.75,58.6290323 L61.75,58.6290323 L61.75,58.6290323 C61.5241935,58.6290323 61.2983871,58.4596774 61.2983871,58.1774194 Z M62.2016129,55.0725806 L62.9354839,55.0725806 C63.3306452,55.0725806 63.6129032,54.7903226 63.6129032,54.3951613 C63.6129032,54 63.3306452,53.7177419 62.9354839,53.7177419 L62.2016129,53.7177419 L62.2016129,55.0725806 Z M62.2016129,57.7258065 L63.2741935,57.7258065 C63.7258065,57.7258065 64.1209677,57.3306452 64.1209677,56.8790323 C64.1209677,56.4274194 63.7258065,56.0322581 63.2741935,56.0322581 L62.2016129,56.0322581 L62.2016129,57.7258065 Z"></path>
    <path d="M71.0080645,57.9516129 C71.0645161,58.1774194 70.9516129,58.4596774 70.7258065,58.516129 L70.5564516,58.516129 L70.5564516,58.516129 C70.5,58.516129 70.3306452,58.516129 70.2177419,58.4032258 C70.1048387,58.3467742 69.9919355,58.233871 69.9354839,58.1209677 C69.8225806,57.8951613 69.766129,57.5564516 69.766129,57.1048387 C69.766129,56.9354839 69.7096774,56.8225806 69.6532258,56.766129 C69.5967742,56.6532258 69.483871,56.5967742 69.4274194,56.5403226 C69.2580645,56.4274194 69.0322581,56.3709677 68.9758065,56.3145161 L67.9032258,56.3145161 L67.9032258,58.1209677 C67.9032258,58.3467742 67.6774194,58.5725806 67.4516129,58.5725806 C67.1693548,58.5725806 67,58.3467742 67,58.1209677 L67,53.1532258 C67,52.8709677 67.2258065,52.7016129 67.4516129,52.7016129 L67.4516129,52.7016129 L68.9193548,52.7016129 C69.9354839,52.7016129 70.7258065,53.4919355 70.7258065,54.5080645 C70.7258065,55.0725806 70.5,55.5241935 70.0483871,55.8629032 C70.1612903,55.9193548 70.2741935,56.0322581 70.3306452,56.1451613 C70.5,56.3709677 70.6129032,56.7096774 70.6129032,57.0483871 C70.6129032,57.2741935 70.6129032,57.4435484 70.6693548,57.5564516 C70.8387097,57.7258065 70.9516129,57.7822581 71.0080645,57.9516129 Z M69.8225806,54.5645161 C69.8225806,54.0564516 69.4274194,53.7177419 68.9758065,53.7177419 L67.9032258,53.7177419 L67.9032258,55.4677419 L68.9193548,55.4677419 C69.4274194,55.4112903 69.8225806,55.0725806 69.8225806,54.5645161 Z"></path>
    <path d="M73.266129,53.2096774 C73.266129,52.9274194 73.4919355,52.7580645 73.7177419,52.7580645 C73.9435484,52.7580645 74.1693548,52.983871 74.1693548,53.2096774 L74.1693548,58.1774194 C74.1693548,58.4596774 73.9435484,58.6290323 73.7177419,58.6290323 C73.4354839,58.6290323 73.266129,58.4032258 73.266129,58.1774194 L73.266129,53.2096774 Z"></path>
    <path d="M76.5967742,58.1774194 L76.5967742,53.2096774 C76.5967742,52.9274194 76.8225806,52.7580645 77.0483871,52.7580645 L78.0645161,52.7580645 C79.7016129,52.7580645 81,54.0564516 81,55.6935484 C81,57.3306452 79.7016129,58.6290323 78.0645161,58.6290323 L77.0483871,58.6290323 C76.8225806,58.6290323 76.5967742,58.4596774 76.5967742,58.1774194 Z M77.5,57.7258065 L78.0645161,57.7258065 C79.1935484,57.7258065 80.0403226,56.8225806 80.0403226,55.6935484 C80.0403226,54.6209677 79.1370968,53.7177419 78.0645161,53.7177419 L77.5,53.7177419 L77.5,57.7258065 Z"></path>
    <path d="M83.2016129,55.6370968 C83.2016129,53.9435484 84.6129032,52.5887097 86.3064516,52.5887097 C87.0403226,52.5887097 87.7177419,52.8145161 88.2258065,53.266129 C88.4516129,53.4354839 88.4516129,53.7177419 88.3387097,53.9435484 C88.1693548,54.1693548 87.8870968,54.1693548 87.6612903,54 C87.3225806,53.7177419 86.8145161,53.5483871 86.3629032,53.5483871 C85.7419355,53.5483871 85.233871,53.7741935 84.8387097,54.1693548 C84.4435484,54.5645161 84.2177419,55.0725806 84.2177419,55.6370968 C84.2177419,56.2016129 84.4435484,56.7096774 84.8387097,57.1048387 C85.233871,57.5 85.7419355,57.7258065 86.3629032,57.7258065 C86.7580645,57.7258065 87.1532258,57.6129032 87.4919355,57.3870968 L87.4919355,56.2580645 L86.3064516,56.2580645 C86.0241935,56.2580645 85.8548387,56.0322581 85.8548387,55.8064516 C85.8548387,55.5241935 86.0806452,55.3548387 86.3064516,55.3548387 L87.9435484,55.3548387 L87.9435484,55.3548387 L87.9435484,55.3548387 C88.2258065,55.3548387 88.4516129,55.5806452 88.4516129,55.8064516 L88.4516129,57.6693548 L88.4516129,57.8387097 C88.4516129,57.8387097 88.4516129,57.8387097 88.4516129,57.8951613 L88.4516129,57.8951613 C88.4516129,57.9516129 88.3951613,58.0645161 88.2822581,58.1209677 C87.7741935,58.516129 87.0967742,58.7983871 86.3629032,58.7983871 C84.6129032,58.6290323 83.2016129,57.3306452 83.2016129,55.6370968 Z"></path>
    <path d="M91.1048387,58.1774194 L91.1048387,53.2096774 C91.1048387,52.9274194 91.3306452,52.7580645 91.5564516,52.7580645 L91.5564516,52.7580645 L91.5564516,52.7580645 L94.266129,52.7580645 C94.4919355,52.7580645 94.7177419,52.983871 94.7177419,53.2096774 C94.7177419,53.4919355 94.4919355,53.6612903 94.266129,53.6612903 L92.0080645,53.6612903 L92.0080645,55.1854839 L93.983871,55.1854839 C94.2096774,55.1854839 94.4354839,55.4112903 94.4354839,55.6370968 C94.4354839,55.9193548 94.2096774,56.0887097 93.983871,56.0887097 L92.0080645,56.0887097 L92.0080645,57.6129032 L94.266129,57.6129032 C94.4919355,57.6129032 94.7177419,57.8387097 94.7177419,58.0645161 C94.7177419,58.2903226 94.4919355,58.516129 94.266129,58.516129 L91.6129032,58.516129 L91.6129032,58.516129 L91.6129032,58.516129 C91.3306452,58.6290323 91.1048387,58.4596774 91.1048387,58.1774194 Z"></path>
    <path d="M35.7258065,68.2258065 L35.7258065,63.2580645 C35.7258065,62.9758065 35.9516129,62.8064516 36.1774194,62.8064516 C36.4596774,62.8064516 36.6290323,63.0322581 36.6290323,63.2580645 L36.6290323,65.2903226 L38.7741935,65.2903226 L38.7741935,63.2580645 C38.7741935,62.9758065 39,62.8064516 39.2258065,62.8064516 C39.5080645,62.8064516 39.6774194,63.0322581 39.6774194,63.2580645 L39.6774194,68.2258065 C39.6774194,68.5080645 39.4516129,68.6774194 39.2258065,68.6774194 C38.9435484,68.6774194 38.7741935,68.4516129 38.7741935,68.2258065 L38.7741935,66.1935484 L36.6290323,66.1935484 L36.6290323,68.2258065 C36.6290323,68.5080645 36.4032258,68.6774194 36.1774194,68.6774194 C35.8951613,68.733871 35.7258065,68.5080645 35.7258065,68.2258065 Z"></path>
    <path d="M42.3306452,63.3145161 C42.3306452,63.0322581 42.5564516,62.8629032 42.7822581,62.8629032 C43.0080645,62.8629032 43.233871,63.0887097 43.233871,63.3145161 L43.233871,68.2822581 C43.233871,68.5645161 43.0080645,68.733871 42.7822581,68.733871 C42.5,68.733871 42.3306452,68.5080645 42.3306452,68.2822581 L42.3306452,63.3145161 L42.3306452,63.3145161 Z"></path>
    <path d="M49.5,63.766129 L48.1451613,63.766129 L48.1451613,68.2258065 C48.1451613,68.5080645 47.9193548,68.6774194 47.6935484,68.6774194 C47.4677419,68.6774194 47.2419355,68.4516129 47.2419355,68.2258065 L47.2419355,63.766129 L45.8870968,63.766129 C45.6048387,63.766129 45.4354839,63.5403226 45.4354839,63.3145161 C45.4354839,63.0322581 45.6612903,62.8629032 45.8870968,62.8629032 L49.4435484,62.8629032 C49.6693548,62.8629032 49.8951613,63.0887097 49.8951613,63.3145161 C49.9516129,63.5403226 49.7258065,63.766129 49.5,63.766129 Z"></path>
    <path d="M52.3790323,68.2258065 L52.3790323,63.2580645 C52.3790323,62.9758065 52.6048387,62.8064516 52.8306452,62.8064516 L52.8306452,62.8064516 L52.8306452,62.8064516 L55.5403226,62.8064516 C55.766129,62.8064516 55.9919355,63.0322581 55.9919355,63.2580645 C55.9919355,63.5403226 55.766129,63.7096774 55.5403226,63.7096774 L53.2822581,63.7096774 L53.2822581,65.233871 L55.2580645,65.233871 C55.483871,65.233871 55.7096774,65.4596774 55.7096774,65.6854839 C55.7096774,65.9677419 55.483871,66.1370968 55.2580645,66.1370968 L53.2822581,66.1370968 L53.2822581,67.6612903 L55.5403226,67.6612903 C55.766129,67.6612903 55.9919355,67.8870968 55.9919355,68.1129032 C55.9919355,68.3387097 55.766129,68.5645161 55.5403226,68.5645161 L52.8306452,68.5645161 L52.8306452,68.5645161 L52.8306452,68.5645161 C52.5483871,68.733871 52.3790323,68.5080645 52.3790323,68.2258065 Z"></path>
    <path d="M61.9193548,68.2258065 L61.9193548,63.2580645 C61.9193548,62.9758065 62.1451613,62.8064516 62.3709677,62.8064516 C62.5967742,62.8064516 62.8225806,63.0322581 62.8225806,63.2580645 L62.8225806,65.2903226 L64.9677419,65.2903226 L64.9677419,63.2580645 C64.9677419,62.9758065 65.1935484,62.8064516 65.4193548,62.8064516 C65.7016129,62.8064516 65.8709677,63.0322581 65.8709677,63.2580645 L65.8709677,68.2258065 C65.8709677,68.5080645 65.6451613,68.6774194 65.4193548,68.6774194 C65.1370968,68.6774194 64.9677419,68.4516129 64.9677419,68.2258065 L64.9677419,66.1935484 L62.8225806,66.1935484 L62.8225806,68.2258065 C62.8225806,68.5080645 62.5967742,68.6774194 62.3709677,68.6774194 C62.1451613,68.6774194 61.9193548,68.5080645 61.9193548,68.2258065 Z"></path>
    <path d="M73.266129,63.5967742 C73.7741935,64.1612903 74.1129032,64.8951613 74.1129032,65.7419355 C74.1129032,66.5887097 73.7741935,67.3225806 73.266129,67.8870968 C72.7580645,68.4516129 72.0241935,68.7903226 71.233871,68.7903226 C70.4435484,68.7903226 69.7096774,68.4516129 69.2016129,67.8870968 C68.6935484,67.3225806 68.3548387,66.5887097 68.3548387,65.7419355 C68.3548387,64.8951613 68.6370968,64.1612903 69.2016129,63.5967742 C69.7096774,63.0322581 70.4435484,62.6935484 71.233871,62.6935484 C72.0806452,62.6935484 72.8145161,63.0322581 73.266129,63.5967742 Z M73.2096774,65.6854839 C73.2096774,65.1209677 72.983871,64.6129032 72.6451613,64.2177419 C72.3064516,63.8225806 71.7983871,63.5967742 71.3467742,63.5967742 C70.7822581,63.5967742 70.3306452,63.8225806 69.9919355,64.2177419 C69.6532258,64.6129032 69.4274194,65.1209677 69.4274194,65.6854839 C69.4274194,66.25 69.6532258,66.7580645 69.9919355,67.1532258 C70.3306452,67.5483871 70.8387097,67.7741935 71.3467742,67.7741935 C71.8548387,67.7741935 72.3064516,67.5483871 72.6451613,67.1532258 C72.983871,66.8145161 73.2096774,66.25 73.2096774,65.6854839 Z"></path>
    <path d="M78.9112903,68.733871 C77.5564516,68.733871 76.483871,67.6612903 76.483871,66.3064516 L76.483871,63.3145161 C76.483871,63.0322581 76.7096774,62.8629032 76.9354839,62.8629032 C77.1612903,62.8629032 77.3870968,63.0887097 77.3870968,63.3145161 L77.3870968,66.3064516 C77.3870968,67.1532258 78.0645161,67.7741935 78.8548387,67.7741935 C79.7016129,67.7741935 80.3225806,67.0967742 80.3225806,66.3064516 L80.3225806,63.3145161 C80.3225806,63.0322581 80.5483871,62.8629032 80.7741935,62.8629032 C81.0564516,62.8629032 81.2258065,63.0887097 81.2258065,63.3145161 L81.2258065,66.3064516 C81.3387097,67.6048387 80.2096774,68.733871 78.9112903,68.733871 Z"></path>
    <path d="M84.1612903,67.266129 C84.3306452,67.0967742 84.6129032,67.0403226 84.7822581,67.2096774 C85.1774194,67.4919355 85.7983871,67.8870968 86.3629032,67.8306452 C86.7580645,67.8306452 87.1532258,67.7177419 87.4354839,67.5483871 C87.6612903,67.3790323 87.7741935,67.1532258 87.7741935,66.9274194 C87.7741935,66.8145161 87.7741935,66.7580645 87.7177419,66.6451613 C87.6612903,66.5887097 87.6048387,66.4758065 87.4919355,66.4193548 C87.266129,66.25 86.8145161,66.1370968 86.3629032,66.0241935 L86.3629032,66.0241935 C85.9677419,65.9677419 85.5725806,65.8548387 85.2903226,65.6854839 C84.9516129,65.516129 84.6693548,65.3467742 84.5,65.0080645 C84.3870968,64.7822581 84.3306452,64.5564516 84.3306452,64.3306452 C84.3306452,63.8225806 84.6129032,63.3709677 85.0080645,63.0887097 C85.4032258,62.8064516 85.9112903,62.6370968 86.4758065,62.6370968 C87.266129,62.6370968 87.8870968,63.0322581 88.2822581,63.3145161 C88.4516129,63.4274194 88.5080645,63.7096774 88.3951613,63.9354839 C88.2822581,64.1612903 88,64.2177419 87.7741935,64.0483871 C87.3225806,63.766129 86.9274194,63.483871 86.4193548,63.483871 C86.0241935,63.483871 85.6854839,63.5967742 85.4596774,63.766129 C85.233871,63.9354839 85.1209677,64.1048387 85.1209677,64.2741935 C85.1209677,64.3870968 85.1209677,64.4435484 85.1774194,64.5 C85.233871,64.5564516 85.2903226,64.6693548 85.4032258,64.7258065 C85.6290323,64.8951613 86.0241935,65.0080645 86.4758065,65.1209677 L86.4758065,65.1209677 C86.9274194,65.1774194 87.3225806,65.2903226 87.6612903,65.4596774 C88,65.6290323 88.2822581,65.8548387 88.5080645,66.1370968 C88.6209677,66.3629032 88.733871,66.5887097 88.733871,66.8709677 C88.733871,67.4354839 88.4516129,67.8870968 88,68.1693548 C87.6048387,68.4516129 87.0403226,68.6209677 86.4758065,68.6209677 C85.5725806,68.6209677 84.7822581,68.1693548 84.3306452,67.7741935 C84.0483871,67.7177419 83.9919355,67.4354839 84.1612903,67.266129 Z"></path>
    <path d="M90.9354839,68.2258065 L90.9354839,63.2580645 C90.9354839,62.9758065 91.1612903,62.8064516 91.3870968,62.8064516 L91.3870968,62.8064516 L91.3870968,62.8064516 L94.0967742,62.8064516 C94.3225806,62.8064516 94.5483871,63.0322581 94.5483871,63.2580645 C94.5483871,63.5403226 94.3225806,63.7096774 94.0967742,63.7096774 L91.8387097,63.7096774 L91.8387097,65.233871 L93.8145161,65.233871 C94.0403226,65.233871 94.266129,65.4596774 94.266129,65.6854839 C94.266129,65.9677419 94.0403226,66.1370968 93.8145161,66.1370968 L91.8387097,66.1370968 L91.8387097,67.6612903 L94.0967742,67.6612903 C94.3225806,67.6612903 94.5483871,67.8870968 94.5483871,68.1129032 C94.5483871,68.3387097 94.3225806,68.5645161 94.0967742,68.5645161 L91.3870968,68.5645161 L91.3870968,68.5645161 L91.3870968,68.5645161 C91.1612903,68.733871 90.9354839,68.5080645 90.9354839,68.2258065 Z"></path>
</svg>