<svg width="120px" height="120px" viewBox="0 0 120 120" version="1.1" xmlns="http://www.w3.org/2000/svg">
    <path d="M62.8965517,18 C42.137931,18 25,32.2413793 25,49.862069 L25,49.862069 L25,97.1724138 L49.137931,102 L49.137931,49.3793103 C49.137931,36.1034483 60.4827586,25.2413793 74.4827586,25.2413793 C79.7931034,25.2413793 83.8965517,26.4482759 87.7586207,28.6206897 C87.7586207,28.6206897 88.4827586,28.862069 88.9655172,28.3793103 C89.4482759,27.8965517 88.9655172,27.1724138 88.9655172,27.1724138 C82.2068966,21.3793103 72.7931034,18 62.8965517,18 Z"></path>
    <path d="M75.9310345,36.5862069 C69.8965517,36.5862069 64.5862069,39.2413793 61.2068966,43.3448276 C60.9655172,43.8275862 60.4827586,44.5517241 61.2068966,45.5172414 C61.9310345,46.4827586 62.8965517,46 63.137931,45.7586207 C64.5862069,44.5517241 66.5172414,43.5862069 68.6896552,43.5862069 C73.2758621,43.5862069 76.8965517,46.9655172 76.8965517,51.3103448 L76.8965517,96.4482759 L95,100.793103 L95,54.9310345 C95,44.7931034 86.5517241,36.5862069 75.9310345,36.5862069 Z"></path>
</svg>