<svg width="120px" height="120px" viewBox="0 0 120 120" version="1.1" xmlns="https://www.w3.org/2000/svg">
    <path d="M94.1894737,58.6631579 C95.1473684,49.8947368 88.6631579,38.8421053 74.1473684,37.8105263 C59.7789474,36.7052632 52.4842105,44.7368421 46.9578947,55.7894737 C46.9578947,55.8631579 46.7368421,56.1578947 46.6631579,55.7894737 C46,53.4315789 42.5368421,42.2315789 32.1473684,45.0315789 C29.1263158,45.8421053 25.3684211,48.7894737 25.7368421,51.7368421 C25.8105263,52.5473684 26.9157895,53.1368421 27.8736842,52.9157895 C30.5263158,52.2526316 32.6631579,51.0736842 35.3894737,49.3052632 C38.3368421,47.3894737 42.1684211,53.7263158 42.6105263,55.6421053 C43.4947368,59.1052632 42.6105263,63.8947368 41.8736842,66.9894737 C41.1368421,70.3052632 39.9578947,73.7684211 39,77.8947368 C38.0421053,82.0210526 38.6315789,82.1684211 40.4736842,82.3157895 C42.9052632,82.4631579 44.3789474,76.4947368 45.7052632,73.3263158 C47.0315789,70.0842105 49.9789474,63.8947368 53.5894737,67.3578947 C57.2736842,70.8210526 57.0526316,66.7684211 55.4315789,64.9263158 C53.8842105,63.2315789 51.4526316,62.9368421 49.9052632,63.5263158 C49.7578947,63.6 49.5368421,63.7473684 49.6842105,63.3052632 C51.3052632,58.5157895 56.2421053,57.9263158 57.2736842,59.9157895 C58.3789474,61.9052632 60.2947368,59.6210526 58.3052632,57.6315789 C56.3894737,55.6421053 54.2526316,56.3789474 51.6736842,57.5578947 C51.3052632,57.7052632 51.4526316,57.3368421 51.5263158,57.2631579 C59.9263158,39.3578947 75.0315789,37.9578947 85.2736842,46.3578947 C85.4947368,46.5052632 85.5684211,47.1684211 85.1263158,47.1684211 C69.6526316,47.9052632 54.5473684,70.1578947 65.7473684,79.8105263 C77.5368421,89.9789474 92.7894737,71.5578947 94.1894737,58.6631579 M66.6315789,69.1263158 C65.8210526,61.3894737 74.9578947,49.0842105 87.5578947,49.6736842 C88.2210526,49.6736842 88.7368421,51.1473684 88.9578947,51.6631579 C94.4842105,65.2947368 77.3157895,82.8315789 70.0210526,77.4526316 C68.6947368,76.4947368 67.8105263,75.7578947 68.6210526,74.4315789 C69.3578947,73.3263158 72.2315789,72.1473684 74.4421053,70.6736842 C77.5368421,68.6105263 83.0631579,61.9052632 85.8631579,55.6421053 C87.1894737,52.6210526 86.4526316,51.0736842 83.2842105,56.0105263 C74.9578947,69.0526316 66.8526316,71.4105263 66.6315789,69.1263158"></path>
</svg>