<svg width="120px" height="120px" viewBox="0 0 120 120" version="1.1" xmlns="https://www.w3.org/2000/svg">
    <path d="M40.0294118,60.2602208 C40.0294118,49.1701455 48.9852941,40.1529814 60,40.1529814 C71.0147059,40.1529814 79.9705882,49.1701455 79.9705882,60.2602208 C79.9705882,60.5089702 79.9705882,60.7784486 79.95,61.027198 C84.9941176,61.8149043 89.9352941,62.872089 94.7735294,64.1987522 C94.9176471,62.8928181 95,61.586884 95,60.2394917 C95,40.7748548 79.3323529,25 60,25 C40.6676471,25 25,40.7748548 25,60.2394917 C25,61.4210511 25.0617647,62.6026105 25.1647059,63.7634409 C30.0235294,62.498965 34.9852941,61.4832385 40.0294118,60.7577195 L40.0294118,60.2602208 Z"></path>
    <path d="M92.8588235,72.9257087 C92.55,73.7963314 92.2,74.5840377 91.8088235,75.371744 C91.6235294,75.7655971 91.5205882,76.2630959 91.1911765,76.4911161 C90.8617647,76.7191363 90.3882353,76.4911161 89.9970588,76.4911161 C88.0205882,76.4081996 86.0441176,76.3252832 84.0676471,76.3460123 C81.5764706,76.3667414 79.1058824,76.470387 76.6147059,76.6984072 C73.7735294,76.9471566 70.9529412,77.2788224 68.1323529,77.7348629 C62.5735294,78.6676729 57.1176471,79.9114197 51.7441176,81.6733943 C47.4411765,83.082974 43.2,84.6169283 39.0617647,86.4618193 C38.5882353,86.6691105 38.0941176,86.8971307 37.6205882,87.1251509 C37.4352941,87.2080674 37.3117647,87.2287965 37.1470588,87.0629636 C34.7794118,84.9693232 32.6794118,82.6683917 30.8882353,80.0565235 C30.8676471,80.0357944 30.8676471,79.9943362 30.8470588,79.9321488 C30.9294118,79.8492324 31.0529412,79.8077741 31.1764706,79.7663159 C36.8176471,77.5068426 42.6235294,75.744868 48.5323529,74.3767466 C51.3323529,73.7341441 54.1323529,73.2159163 56.9529412,72.7391467 C59.5058824,72.3245644 62.0588235,72.0343569 64.6323529,71.7856075 C66.8558824,71.5783164 69.1,71.4332126 71.3235294,71.329567 C73.9176471,71.2051923 76.5323529,71.2673797 79.1264706,71.3710252 C80.8558824,71.4332126 82.5852941,71.5575873 84.2941176,71.702691 C86.3117647,71.8892531 88.3294118,72.1172733 90.3264706,72.4489391 C91.1705882,72.614772 91.9941176,72.7598758 92.8588235,72.9257087 Z"></path>
    <path d="M93.8264706,69.8992582 C92.4264706,69.5675924 91.0470588,69.2566557 89.6882353,68.9871773 C87.5676471,68.572595 85.4470588,68.199471 83.3058824,67.9092634 C81.5970588,67.6605141 79.8882353,67.4532229 78.1588235,67.3081191 C75.6470588,67.0800989 73.1352941,66.9557242 70.6235294,66.8935369 C67.7617647,66.8106204 64.9,66.8728078 62.0382353,67.0593698 C59.3,67.2252027 56.5617647,67.4117647 53.8235294,67.7641596 C45.0735294,68.8420735 36.5294118,70.7906101 28.2735294,73.8792479 C28.2117647,73.899977 28.15,73.9207061 28.0882353,73.9414352 C27.8411765,74.086539 27.7382353,73.9621643 27.6558824,73.7341441 C26.8529412,71.6612328 26.2147059,69.5468633 25.7,67.3703065 C25.6176471,67.0179116 25.6176471,66.9971825 26.0294118,66.8728078 C29.2411765,65.815623 32.5147059,64.9450003 35.8294118,64.2402105 C38.2176471,63.7427117 40.6058824,63.3281295 43.0147059,62.9757346 C45.1558824,62.6647979 47.3176471,62.4160485 49.4794118,62.2294865 C53.6382353,61.8770916 57.7970588,61.7112587 61.9558824,61.7941751 C64.3235294,61.8356334 66.6911765,61.9392789 69.0588235,62.125841 C71.8588235,62.3331321 74.6382353,62.6440688 77.3970588,63.058651 C83.0382353,63.8878155 88.5970588,65.0901041 94.0117647,66.914266 C94.5264706,67.0800989 94.4441176,67.100828 94.3617647,67.5361394 C94.2382353,68.3238457 94.0529412,69.0908228 93.8264706,69.8992582 Z"></path>
    <path d="M46.4735294,92.9293025 C48.9029412,91.6233684 51.3323529,90.441809 53.7823529,89.343166 C62.8,85.3217181 72.1676471,82.4611006 81.9264706,80.9686045 C84.2323529,80.6162095 86.5382353,80.3467311 88.9676471,80.2223564 C88.7411765,80.5332931 88.5970588,80.7613133 88.4323529,80.9893336 C85.9,84.3681789 82.9147059,87.2702547 79.4558824,89.6748318 C76.3058824,91.8513886 72.8882353,93.4268012 69.1823529,94.4010695 C66.6088235,95.0644011 63.9941176,95.4375252 61.3382353,95.5204416 C59.7323529,95.5618998 58.1470588,95.5411707 56.5617647,95.3960669 C53.1029412,95.0851302 49.7676471,94.3181531 46.4735294,92.9293025 Z"></path>
</svg>