<svg width="120px" height="120px" viewBox="0 0 120 120" version="1.1" xmlns="https://www.w3.org/2000/svg">
    <path d="M15.9519553,73.0917023 C13.872067,73.0917023 9,71.7872541 9,59.5934987 C9,46.2087254 15.9234637,39.4596236 18.1173184,39.1476903 L18.1458101,39.1476903 L18.1458101,39.1193328 C19.2284916,37.1059453 20.9379888,36 22.9608939,36 C26.5223464,36 29.0011173,40.820787 29.0011173,47.7400342 C29.0011173,49.469846 28.8871508,51.3130881 28.6877095,53.3831908 L28.6877095,53.4399059 L28.7446927,53.4399059 C29.4569832,53.298118 30.226257,53.1279726 30.9955307,52.8727545 L31.0240223,52.8727545 L31.0240223,52.8443969 C31.7363128,46.3505133 32.4201117,40.3670659 32.5055866,39.7999145 C33.4173184,39.1476903 34.6709497,38.6939692 35.5826816,38.6939692 C36.0670391,38.6939692 36.4374302,38.8357571 36.6368715,39.0626176 C36.8363128,39.2894782 36.8932961,39.629769 36.8363128,40.0834902 L33.0469274,64.5844311 L33.1608939,64.3008554 C36.3519553,55.878657 38.8022346,51.9369547 40.9391061,51.9369547 C41.7653631,51.9369547 42.5631285,52.5891788 43.3039106,53.8652695 C40.5402235,62.6277588 41.1955307,66.8813944 42.0502793,67.9873396 C42.2497207,68.2425577 42.449162,68.3843456 42.677095,68.3843456 C43.503352,68.3843456 44.6145251,67.958982 45.9536313,64.726219 C46.1530726,64.5844311 46.4094972,64.527716 46.6659218,64.527716 C46.9793296,64.527716 47.2357542,64.6411463 47.3782123,64.8112917 C47.4921788,64.9530796 47.5206704,65.123225 47.4636872,65.321728 C46.722905,67.8455518 44.5290503,70.4260907 41.7653631,70.4260907 C40.8536313,70.4260907 40.0843575,70.0857998 39.4860335,69.3768606 C37.8905028,67.5052609 37.5201117,63.1665526 38.4603352,57.0980325 L38.4888268,56.9562447 L38.403352,57.0696749 C36.6938547,59.4517109 34.4145251,64.8396493 32.9899441,69.8872968 C32.0782123,70.2275877 31.3944134,70.3977331 30.9100559,70.3977331 C29.998324,70.3977331 29.627933,69.8589393 29.627933,68.4977759 C29.627933,66.8530368 30.0553073,62.1173225 30.8530726,54.4324209 L30.8530726,54.3757057 L30.7960894,54.4040633 C29.9128492,54.7443541 29.1435754,54.9995723 28.4597765,55.1980753 L28.4312849,55.1980753 L28.4312849,55.2264328 C27.3201117,62.0889649 24.898324,66.2858854 23.0748603,68.6112062 C20.8810056,71.4469632 18.2027933,73.0917023 15.9519553,73.0917023 Z M17.0631285,42.0685201 C14.5273743,46.7191617 13.3592179,53.9219846 13.3592179,58.6576989 C13.3592179,65.2933704 15.3251397,70.4828058 17.8324022,70.4828058 C20.7670391,70.4828058 23.4167598,64.6127887 24.4424581,55.8502994 L24.4424581,55.8219418 L24.1860335,55.8219418 C19.2569832,55.8219418 16.7497207,52.4473909 16.7497207,45.8117194 C16.7497207,44.4789136 16.8636872,43.2595381 17.0631285,42.0685201 L17.1201117,41.8700171 L17.0631285,42.0685201 Z M21.3368715,39.4029085 C20.2541899,39.4029085 19.5703911,40.7073567 19.5703911,42.7491018 C19.5703911,48.7609068 21.3083799,52.3056031 24.6988827,53.298118 L24.7273743,53.298118 L24.7273743,53.2697605 C24.8128492,51.4832335 24.898324,49.8384944 24.898324,48.0803251 C24.898324,42.0968777 22.8184358,39.4029085 21.3368715,39.4029085 Z"></path>
    <path d="M55.7547486,73.1200599 C55.2703911,73.1200599 54.3301676,72.9499145 53.4469274,71.8439692 C51.1960894,69.0932849 49.4865922,61.2382378 54.0167598,39.3745509 L54.0167598,39.3178358 L53.3614525,39.4029085 C51.0251397,39.6864842 48.4039106,40.026775 45.2413408,40.820787 L45.1558659,40.820787 C45.0134078,40.820787 44.927933,40.7357143 44.8709497,40.5372113 C44.6715084,39.9133447 45.0134078,38.3820359 45.2698324,38.1835329 C51.224581,37.3328058 55.5268156,36.9357998 58.803352,36.9357998 C66.3821229,36.9357998 69.7441341,38.8073995 69.7441341,43.0610351 C69.7441341,46.9460222 66.3536313,52.4190334 60.6837989,57.7218991 L60.6268156,57.7786142 L60.7122905,57.7786142 C64.5301676,58.0905475 66.2396648,59.5367836 66.2396648,62.4859709 C66.2111732,65.4635158 61.2251397,73.1200599 55.7547486,73.1200599 Z M58.4329609,39.1476903 C54.073743,61.9188195 54.8430168,68.7246364 56.2391061,70.3977331 C56.4955307,70.7096664 56.8089385,70.8798118 57.1793296,70.8798118 C59.9145251,70.8798118 61.9659218,67.6754063 61.9659218,63.4501283 C61.9659218,61.0113772 60.1709497,59.5367836 57.1223464,59.4233533 C56.8944134,59.1681352 56.1536313,58.2606929 56.8659218,57.4383234 C60.7122905,53.6667665 64.8150838,46.832592 64.8150838,42.6923867 C64.8150838,40.5372113 63.8748603,39.1193328 59.2877095,39.1193328 L58.4329609,39.1476903 L58.4329609,39.1476903 Z"></path>
    <path d="M84.3318436,83.2720701 C82.0810056,83.2720701 78.747486,82.2511976 78.747486,80.0676647 C78.747486,78.791574 80.0296089,78.2527802 80.5709497,78.2527802 L80.627933,78.3378529 C81.5396648,79.5572284 83.0782123,81.5989735 85.2150838,81.5989735 C88.1212291,81.5989735 90.0871508,76.5229683 91.3977654,65.6620188 L91.3407821,65.6620188 C90.4290503,69.2634303 88.5486034,70.5678785 87.2379888,70.5678785 C86.2407821,70.5678785 85.3860335,70.2275877 84.7022346,69.5186484 C83.4486034,68.2425577 82.8217877,65.8038067 82.9072626,62.5143285 L82.9072626,62.4576133 L82.8502793,62.4859709 C82.1664804,62.939692 81.226257,63.2516253 80.1150838,63.4217707 L80.0865922,63.4217707 L80.0865922,63.4501283 C78.4340782,68.355988 75.072067,70.539521 73.1916201,70.539521 C72.3368715,70.539521 68.0631285,70.1992301 68.0631285,63.2232678 C68.0631285,60.103935 68.6899441,57.5517536 69.8581006,55.878657 C70.7413408,54.6025663 71.9379888,53.8369119 73.049162,53.8369119 L73.1346369,53.8369119 L73.1346369,53.8085543 C73.875419,52.4190334 75.0150838,51.6250214 76.2687151,51.6250214 C78.4340782,51.6250214 80.998324,53.2130453 80.998324,57.7502566 C80.998324,58.9696322 80.8843575,60.2173653 80.5994413,61.6919589 L80.5994413,61.7486741 L80.6564246,61.7486741 C81.5111732,61.5785287 82.2519553,61.2382378 83.0497207,60.7561591 C83.3061453,58.118905 83.9614525,55.2264328 84.901676,52.3623182 C86.0698324,52.0503849 87.0100559,51.9085971 87.6368715,51.9085971 C88.2351955,51.9085971 88.6055866,52.0220274 88.7765363,52.2772455 C88.947486,52.5041061 88.9189944,52.8727545 88.7195531,53.4399059 C86.3832402,59.8203593 86.2122905,65.6336612 87.4089385,67.3351155 C87.6368715,67.6470488 87.8932961,67.8171942 88.1782123,67.8171942 C89.3748603,67.8171942 91.0558659,61.0680924 91.9960894,52.4473909 C93.1927374,52.1354577 94.0759777,51.9653122 94.7027933,51.9653122 C95.2726257,51.9653122 95.6430168,52.0787425 95.8709497,52.3339607 C96.0703911,52.5608212 96.1558659,52.9011121 96.0703911,53.3831908 L94.9592179,65.1515825 C94.3039106,71.0215997 92.8223464,75.8140291 90.7139665,79.0751497 C88.8050279,81.7407613 86.5541899,83.2720701 84.3318436,83.2720701 Z M72.1659218,58.8278443 C71.3396648,62.6844739 72.0804469,66.4843884 73.2486034,67.9306245 C73.5905028,68.3276305 73.9324022,68.554491 74.3027933,68.554491 C76.126257,68.554491 77.0094972,64.9530796 77.322905,63.3934132 L77.322905,63.3650556 L77.2944134,63.3650556 C75.2715084,63.0814799 72.7357542,61.7203165 72.2513966,58.8278443 L72.222905,58.6576989 L72.1659218,58.8278443 Z M76.1547486,53.496621 C75.4139665,53.496621 74.6731844,54.5458512 74.6731844,56.5592387 C74.5592179,58.912917 75.6134078,60.7561591 77.550838,61.4934559 L77.5793296,61.5218135 L77.5793296,61.4934559 C77.7502793,60.2457228 77.8357542,58.9979897 77.8357542,57.9204021 C77.8642458,54.8577844 77.0094972,53.496621 76.1547486,53.496621 Z"></path>
    <path d="M99.147486,83.2720701 C96.896648,83.2720701 93.5631285,82.2511976 93.5631285,80.0676647 C93.5631285,78.791574 94.8452514,78.2527802 95.3865922,78.2527802 L95.4435754,78.3378529 C96.3553073,79.5572284 97.8938547,81.5989735 100.030726,81.5989735 C102.936872,81.5989735 104.902793,76.5229683 106.213408,65.6620188 L106.156425,65.6620188 C105.244693,69.2634303 103.364246,70.5678785 102.053631,70.5678785 C100.828492,70.5678785 99.8597765,70.0574423 99.1189944,69.0649273 C97.0675978,66.2291702 97.2670391,59.508426 99.6603352,52.3339607 C100.828492,52.0220274 101.768715,51.8802395 102.395531,51.8802395 C102.993855,51.8802395 103.364246,51.9936698 103.535196,52.2488879 C103.706145,52.4757485 103.677654,52.8443969 103.478212,53.4115483 C101.141899,59.7920017 100.97095,65.6053037 102.167598,67.3067579 C102.395531,67.6186912 102.651955,67.7888366 102.936872,67.7888366 C104.13352,67.7888366 105.814525,61.0397348 106.754749,52.4190334 C107.951397,52.1071001 108.834637,51.9369547 109.461453,51.9369547 C110.031285,51.9369547 110.401676,52.0503849 110.629609,52.3056031 C110.82905,52.5324636 110.914525,52.8727545 110.82905,53.3548332 L109.717877,65.123225 C109.06257,70.9932421 107.581006,75.7856715 105.472626,79.0467921 C103.62067,81.7407613 101.369832,83.2720701 99.147486,83.2720701 Z"></path>
</svg>