<svg width="120px" height="120px" viewBox="0 0 120 120" version="1.1" xmlns="http://www.w3.org/2000/svg">
    <path d="M45.7961686,57.8394366 C45.7961686,56.3336748 44.4659004,55.1290653 42.7923372,55.1290653 L39.4022989,55.1290653 L39.4022989,64.1206146 L41.6337165,64.1206146 L41.6337165,60.5498079 L42.1915709,60.5498079 L43.3931034,64.1206146 L45.667433,64.1206146 L44.2942529,60.162612 C45.2383142,59.6463508 45.7961686,58.8289373 45.7961686,57.8394366 Z M41.6766284,56.6778489 L42.1057471,56.6778489 C42.835249,56.6778489 43.3931034,57.1941101 43.3931034,57.8394366 C43.3931034,58.4847631 42.7923372,59.0010243 42.1057471,59.0010243 L41.6766284,59.0010243 L41.6766284,56.6778489 Z"></path>
    <path d="M37.2137931,58.3987196 C37.2137931,57.3661972 36.6988506,55 34.0812261,55 C32.1501916,55 30.605364,56.2476312 30.605364,59.6463508 C30.605364,63.0880922 32.1501916,64.2927017 34.0812261,64.2927017 C34.810728,64.2927017 35.497318,64.0775928 36.0551724,63.6473752 L36.0551724,64.2066581 L37.2137931,64.2066581 L37.2137931,59.6033291 L34.0812261,59.6033291 L34.0812261,61.1521127 L35.1111111,61.1521127 L35.1111111,61.1951344 C35.1111111,61.9695262 34.6390805,62.571831 34.0812261,62.571831 C33.5233716,62.571831 33.051341,61.9265045 33.051341,61.1951344 L33.051341,58.1836108 C33.051341,57.409219 33.5233716,56.8069142 34.0812261,56.8069142 C34.6390805,56.8069142 35.1111111,57.4522407 35.1111111,58.1836108 L35.1111111,58.3987196 C35.1111111,58.3987196 36.0122605,58.3987196 37.2137931,58.3987196 Z"></path>
    <path d="M83.0436782,58.3987196 C83.0436782,57.3661972 82.5287356,55 79.9111111,55 C77.9800766,55 76.435249,56.2476312 76.435249,59.6463508 C76.435249,63.0880922 77.9800766,64.2927017 79.9111111,64.2927017 C80.640613,64.2927017 81.3272031,64.0775928 81.8850575,63.6473752 L81.8850575,64.2066581 L83.0436782,64.2066581 L83.0436782,59.6033291 L79.9111111,59.6033291 L79.9111111,61.1521127 L80.9409962,61.1521127 L80.9409962,61.1951344 C80.9409962,61.9695262 80.4689655,62.571831 79.9111111,62.571831 C79.3532567,62.571831 78.8812261,61.9265045 78.8812261,61.1951344 L78.8812261,58.1836108 C78.8812261,57.409219 79.3532567,56.8069142 79.9111111,56.8069142 C80.4689655,56.8069142 80.9409962,57.4522407 80.9409962,58.1836108 L80.9409962,58.3987196 C80.9409962,58.3987196 81.7992337,58.3987196 83.0436782,58.3987196 Z"></path>
    <polygon points="4 56.9790013 6.05977011 56.9790013 6.05977011 64.1206146 8.29118774 64.1206146 8.29118774 56.9790013 10.2651341 56.9790013 10.2651341 55.1290653 4 55.1290653"></polygon>
    <polygon points="15.6720307 55.1290653 15.6720307 58.6568502 13.9555556 58.6568502 13.9555556 55.1290653 11.6812261 55.1290653 11.6812261 64.1206146 13.9555556 64.1206146 13.9555556 60.4637644 15.6720307 60.4637644 15.6720307 64.1206146 17.9034483 64.1206146 17.9034483 55.1290653"></polygon>
    <polygon points="25.9708812 56.9790013 25.9708812 55.1290653 20.2636015 55.1290653 20.2636015 64.1206146 25.9708812 64.1206146 25.9708812 62.2706786 22.4950192 62.2706786 22.4950192 60.5067862 24.8122605 60.5067862 24.8122605 58.699872 22.4950192 58.699872 22.4950192 56.9790013"></polygon>
    <rect x="47.3409962" y="55.1290653" width="2.23141762" height="8.9915493"></rect>
    <polygon points="54.5931034 62.571831 54.5931034 55.1290653 52.3187739 55.1290653 52.3187739 64.1206146 57.4681992 64.1206146 57.4681992 62.571831"></polygon>
    <polygon points="61.2015326 62.571831 61.2015326 55.1290653 58.9701149 55.1290653 58.9701149 64.1206146 64.1195402 64.1206146 64.1195402 62.571831"></polygon>
    <path d="M71.4145594,59.6893726 C71.4145594,63.131114 69.8697318,64.3357234 67.9386973,64.3357234 C66.0076628,64.3357234 64.4628352,63.0880922 64.4628352,59.6893726 C64.4628352,56.2476312 66.0076628,55.0430218 67.9386973,55.0430218 C69.8697318,55.0430218 71.4145594,56.2476312 71.4145594,59.6893726 Z M69.0114943,61.1951344 L69.0114943,58.1836108 C69.0114943,57.409219 68.5394636,56.8069142 67.9816092,56.8069142 C67.4237548,56.8069142 66.9517241,57.4522407 66.9517241,58.1836108 L66.9517241,61.1951344 C66.9517241,61.9695262 67.4237548,62.571831 67.9816092,62.571831 C68.5394636,62.571831 69.0114943,61.9695262 69.0114943,61.1951344 Z"></path>
    <path d="M99.6076628,59.6893726 C99.6076628,63.131114 98.0628352,64.3357234 96.1318008,64.3357234 C94.2007663,64.3357234 92.6559387,63.0880922 92.6559387,59.6893726 C92.6559387,56.2476312 94.2007663,55.0430218 96.1318008,55.0430218 C98.0199234,55.0430218 99.6076628,56.2476312 99.6076628,59.6893726 Z M97.1616858,61.1951344 L97.1616858,58.1836108 C97.1616858,57.409219 96.6896552,56.8069142 96.1318008,56.8069142 C95.5739464,56.8069142 95.1019157,57.4522407 95.1019157,58.1836108 L95.1019157,61.1951344 C95.1019157,61.9695262 95.5739464,62.571831 96.1318008,62.571831 C96.6896552,62.571831 97.1616858,61.9695262 97.1616858,61.1951344 Z"></path>
    <path d="M112.953257,55.1290653 L109.563218,55.1290653 L109.563218,64.1206146 L111.794636,64.1206146 L111.794636,60.5498079 L112.953257,60.5498079 C114.583908,60.5498079 115.957088,59.3451985 115.957088,57.8394366 C115.957088,56.3766965 114.62682,55.1290653 112.953257,55.1290653 Z M112.266667,59.0010243 L111.837548,59.0010243 L111.837548,56.6778489 L112.266667,56.6778489 C112.996169,56.6778489 113.554023,57.1941101 113.554023,57.8394366 C113.554023,58.4847631 112.996169,59.0010243 112.266667,59.0010243 Z"></path>
    <path d="M105.314943,55.1290653 L105.314943,61.1951344 C105.314943,61.9695262 104.842912,62.571831 104.285057,62.571831 C103.727203,62.571831 103.255172,61.9265045 103.255172,61.1951344 L103.255172,55.1290653 L101.238314,55.1290653 L101.238314,61.1521127 C101.238314,61.5823303 101.324138,64.3357234 104.285057,64.3357234 C107.245977,64.3357234 107.288889,61.7113956 107.288889,61.1521127 L107.288889,55.1290653 L105.314943,55.1290653 L105.314943,55.1290653 Z"></path>
    <path d="M91.4544061,57.8394366 C91.4544061,56.3336748 90.1241379,55.1290653 88.4505747,55.1290653 L85.0605364,55.1290653 L85.0605364,64.1206146 L87.291954,64.1206146 L87.291954,60.5498079 L87.8498084,60.5498079 L89.051341,64.1206146 L91.3256705,64.1206146 L89.9524904,60.162612 C90.8536398,59.6463508 91.4544061,58.8289373 91.4544061,57.8394366 Z M87.291954,56.6778489 L87.7210728,56.6778489 C88.4505747,56.6778489 89.0084291,57.1941101 89.0084291,57.8394366 C89.0084291,58.4847631 88.4076628,59.0010243 87.7210728,59.0010243 L87.291954,59.0010243 L87.291954,56.6778489 Z"></path>
</svg>