<svg version="1.1" xmlns="http://www.w3.org/2000/svg" viewBox="0 0 5376 768"><path d="M895.336 753.327c2.311 0 3.466 2.347 3.466 7.040s-1.155 7.040-3.466 7.040c-23.875 0-42.745-0.392-56.609-1.174l-79.714-1.174-73.937 1.174c-12.323 0.782-29.652 1.174-51.987 1.174-1.54 0-2.311-2.347-2.311-7.040s0.77-7.040 2.311-7.040c26.186 0 45.633-2.151 58.341-6.454s21.18-11.929 25.416-22.882c4.236-10.952 5.584-28.162 4.043-51.63l-20.795-533.899-263.402 620.732c-1.54 3.129-4.621 4.693-9.242 4.693-3.851 0-7.317-1.564-10.397-4.693l-284.197-613.691-10.397 494.004c-0.77 41.461 6.161 70.796 20.795 88.006s40.434 25.815 77.403 25.815c1.54 0 2.311 2.347 2.311 7.040s-0.77 7.040-2.311 7.040c-21.566 0-38.124-0.391-49.677-1.174l-62.385-1.174-60.074 1.174c-10.783 0.782-26.186 1.174-46.211 1.174-1.54 0-2.311-2.347-2.311-7.040s0.77-7.040 2.311-7.040c32.348 0 55.645-8.801 69.894-26.402s21.757-46.741 22.528-87.418l10.397-544.46c-23.105-31.291-54.682-46.936-94.733-46.936-1.54 0-2.311-2.347-2.311-7.040s0.77-7.040 2.311-7.040l42.745 1.174c7.702 0.782 18.484 1.174 32.347 1.174s25.609-0.392 35.236-1.174c9.627-0.782 17.137-1.174 22.528-1.174 10.012 0 18.292 3.715 24.838 11.147s15.981 24.055 28.304 49.87l257.626 551.501 251.849-583.183c8.472-19.557 20.025-29.335 34.658-29.335 3.851 0 9.435 0.391 16.751 1.174s17.137 1.174 29.459 1.174l54.298-1.174c8.472-0.782 21.18-1.174 38.124-1.174 2.311 0 3.466 2.347 3.466 7.040s-1.155 7.040-3.466 7.040c-38.51 0-66.043 5.672-82.602 17.015s-24.453 32.659-23.683 63.951l23.105 543.287c0.77 24.25 3.658 41.851 8.665 52.803s14.056 18.383 27.149 22.294c13.094 3.911 34.273 5.867 63.54 5.867zM1891.054 753.327c3.081 0 4.621 2.347 4.621 7.040s-1.541 7.040-4.621 7.040c-14.633 0-37.354-0.782-68.161-2.347s-53.143-2.347-67.006-2.347c-16.944 0-38.509 0.782-64.695 2.347-24.646 1.565-43.515 2.347-56.608 2.347-3.081 0-4.621-2.347-4.621-7.040s1.541-7.040 4.621-7.040c28.497 0 49.292-2.738 62.385-8.214s19.64-14.863 19.64-28.162c0-10.951-5.006-27.77-15.019-50.456l-102.819-221.773h-274.955l-72.782 173.664c-10.783 26.597-16.174 48.109-16.174 64.537 0 24.25 9.435 42.047 28.304 53.39s47.173 17.014 84.913 17.014c3.851 0 5.776 2.347 5.776 7.040s-1.925 7.040-5.776 7.040c-13.863 0-33.888-0.782-60.074-2.347-29.267-1.564-54.682-2.347-76.248-2.347-20.025 0-43.13 0.782-69.316 2.347-23.105 1.565-42.36 2.347-57.764 2.347-3.851 0-5.776-2.347-5.776-7.040s1.925-7.040 5.776-7.040c21.565 0 39.857-4.107 54.875-12.321s29.266-22.686 42.745-43.416c13.478-20.73 28.304-50.652 44.478-89.765l243.763-584.357c1.541-2.347 4.236-3.52 8.087-3.52s6.161 1.174 6.932 3.52l272.644 583.183c26.186 57.888 48.521 96.806 67.006 116.754s40.435 29.922 65.851 29.922zM1333.057 421.252h255.316l-135.167-289.832-120.149 289.832zM2844.026 753.327c1.541 0 2.311 2.347 2.311 7.040s-0.77 7.040-2.311 7.040h-149.030c-19.255 0-55.453-32.464-108.595-97.393s-116.297-154.107-189.465-267.536c-20.795 4.694-42.36 7.040-64.695 7.040-4.621 0-21.95-1.174-51.987-3.52v266.363c0 24.25 2.311 41.851 6.932 52.803s13.671 18.383 27.149 22.295c13.478 3.911 34.85 5.867 64.117 5.867 2.311 0 3.466 2.347 3.466 7.040s-1.155 7.040-3.466 7.040c-23.876 0-42.745-0.392-56.609-1.174l-79.714-1.174-78.559 1.174c-13.863 0.782-33.503 1.174-58.919 1.174-1.541 0-2.311-2.347-2.311-7.040s0.77-7.040 2.311-7.040c29.267 0 50.832-1.956 64.695-5.867s23.298-11.539 28.304-22.882c5.006-11.343 7.509-28.748 7.509-52.216v-543.287c0-23.468-2.311-40.678-6.932-51.63s-13.671-18.579-27.149-22.882c-13.478-4.303-34.85-6.454-64.117-6.454-2.311 0-3.466-2.347-3.466-7.040s1.155-7.040 3.466-7.040l56.609 1.174c32.347 1.564 58.534 2.347 78.559 2.347 16.944 0 32.733-0.392 47.366-1.174s26.956-1.565 36.969-2.347c28.497-2.347 54.298-3.521 77.403-3.521 60.845 0 107.825 14.081 140.943 42.242s49.677 65.71 49.677 112.647c0 42.243-12.13 80.378-36.391 114.407s-56.416 60.821-96.465 80.378c64.696 94.655 119.186 168.775 163.472 222.361s83.564 92.112 117.838 115.58c34.273 23.468 67.969 35.202 101.087 35.202zM2280.253 377.837c19.255 3.129 41.974 4.693 68.161 4.693 60.074 0 103.012-13.298 128.813-39.896s38.702-67.666 38.702-123.208c0-61.018-13.285-104.825-39.857-131.422s-65.273-39.896-116.105-39.896c-30.038 0-50.832 5.476-62.385 16.428s-17.329 33.246-17.329 66.884v246.415zM3733.458 753.327c2.311 0 3.466 2.347 3.466 7.040s-1.155 7.040-3.466 7.040h-129.391c-6.161 0-17.137 0.196-32.925 0.587s-37.931-19.556-66.428-59.844c-28.497-40.287-55.838-77.249-82.024-110.887l-176.757-226.468-38.124 37.549v264.017c0 23.468 2.311 40.873 6.932 52.216s13.671 18.97 27.149 22.882c13.478 3.911 34.85 5.867 64.117 5.867 2.311 0 3.466 2.347 3.466 7.040s-1.155 7.040-3.466 7.040c-23.105 0-41.59-0.392-55.453-1.174l-80.869-1.174-78.559 1.174c-13.863 0.782-33.118 1.174-57.764 1.174-1.541 0-2.311-2.347-2.311-7.040s0.77-7.040 2.311-7.040c29.267 0 50.639-1.956 64.117-5.867s22.72-11.539 27.727-22.882c5.006-11.343 7.509-28.748 7.509-52.216v-543.287c0-23.468-2.311-40.678-6.932-51.63s-13.671-18.579-27.149-22.882c-13.478-4.303-34.85-6.454-64.118-6.454-1.541 0-2.311-2.347-2.311-7.040s0.77-7.040 2.311-7.040l57.764 1.174c32.348 1.564 58.149 2.347 77.403 2.347 22.336 0 49.676-0.782 82.024-2.347l54.298-1.174c2.311 0 3.466 2.347 3.466 7.040s-1.155 7.040-3.466 7.040c-28.497 0-49.484 2.347-62.963 7.040s-22.72 12.712-27.727 24.055c-5.006 11.343-7.509 28.748-7.509 52.216v247.588l247.229-249.935c25.416-25.815 38.124-44.98 38.124-57.497 0-15.646-22.72-23.468-68.161-23.468-1.541 0-2.311-2.347-2.311-7.040s0.77-7.040 2.311-7.040l49.677 1.174c30.808 1.564 58.919 2.347 84.335 2.347s51.987-0.782 79.714-2.347l42.745-1.174c2.311 0 3.466 2.347 3.466 7.040s-1.155 7.040-3.466 7.040c-31.578 0-65.081 7.040-100.509 21.121s-68.546 36.376-99.353 66.884l-182.533 181.878 166.359 215.907c56.224 74.316 99.16 126.728 128.813 157.237s52.565 48.501 68.739 53.977c16.174 5.476 39.664 8.214 70.472 8.214zM4453.065 592.571c0-1.564 1.54-2.347 4.621-2.347 2.311 0 4.429 0.392 6.354 1.174s2.888 1.956 2.888 3.52c-6.932 49.283-10.397 100.913-10.397 154.89 0 6.258-1.348 10.756-4.043 13.494s-7.509 4.107-14.441 4.107h-484.060c-1.541 0-2.311-2.347-2.311-7.040s0.77-7.040 2.311-7.040c29.267 0 50.639-1.956 64.117-5.867s22.72-11.539 27.727-22.882c5.006-11.343 7.509-28.748 7.509-52.216v-543.287c0-23.468-2.503-40.678-7.509-51.63s-14.248-18.579-27.727-22.882c-13.478-4.303-34.85-6.454-64.117-6.454-1.541 0-2.311-2.347-2.311-7.040s0.77-7.040 2.311-7.040h464.419c6.931 0 10.397 3.52 10.397 10.561l2.311 144.329c0 2.347-1.925 3.715-5.776 4.107s-6.161-0.586-6.931-2.933c-2.311-41.461-14.633-73.729-36.969-96.806s-51.987-34.615-88.956-34.615h-70.472c-26.957 0-46.789 2.151-59.497 6.454s-21.565 11.734-26.571 22.294c-5.006 10.561-7.509 26.402-7.509 47.523v238.201h140.943c36.969 0 63.347-6.258 79.136-18.775s23.683-33.638 23.683-63.364c0-1.565 2.311-2.347 6.932-2.347s6.931 0.782 6.931 2.347l-1.155 95.046c0 22.686 0.385 39.895 1.155 51.63l1.155 56.323c0 1.565-2.311 2.347-6.932 2.347s-6.932-0.782-6.932-2.347c0-34.42-8.279-59.061-24.838-73.925s-44.092-22.295-82.602-22.295h-137.477v269.884c0 21.904 2.311 37.94 6.932 48.109s13.093 17.21 25.416 21.122c12.323 3.911 31.577 5.867 57.764 5.867h92.422c36.969 0 67.776-13.298 92.422-39.895s41.205-63.364 49.677-110.3zM4903.493 55.15c-48.522 0-84.913 12.516-109.173 37.549s-41.783 67.666-52.565 127.901c0 1.565-2.118 2.347-6.354 2.347s-6.354-0.782-6.354-2.347c3.081-28.162 6.547-64.928 10.397-110.3s5.776-79.4 5.776-102.086c0-3.911 2.118-5.867 6.354-5.867s6.354 1.956 6.354 5.867c0 17.21 20.794 25.815 62.385 25.815 65.466 2.347 142.868 3.521 232.21 3.521 45.441 0 93.577-0.782 144.41-2.347l78.559-1.174c27.727 0 48.329-1.956 61.807-5.867s22.143-11.734 25.994-23.468c0.77-3.129 3.081-4.694 6.931-4.694s5.777 1.565 5.777 4.694c-2.311 22.686-4.621 57.106-6.932 103.26s-3.466 83.703-3.466 112.647c0 1.565-2.311 2.347-6.931 2.347s-6.931-0.782-6.931-2.347c-2.311-61.018-14.633-103.846-36.969-128.488s-59.304-36.962-110.906-36.962c-34.658 0-59.304 1.564-73.937 4.693s-24.646 9.779-30.037 19.948c-5.391 10.169-8.087 27.379-8.087 51.63v540.94c0 24.251 2.695 41.851 8.087 52.803s15.789 18.383 31.193 22.294c15.403 3.911 39.664 5.867 72.782 5.867 2.311 0 3.466 2.347 3.466 7.040s-1.155 7.040-3.466 7.040c-25.416 0-45.826-0.392-61.229-1.174l-90.111-1.174-86.645 1.174c-15.404 0.782-36.584 1.174-63.54 1.174-1.54 0-2.311-2.347-2.311-7.040s0.77-7.040 2.311-7.040c33.118 0 57.379-1.956 72.782-5.867s25.994-11.539 31.77-22.882c5.777-11.343 8.665-28.748 8.665-52.216v-543.287c0-24.251-2.695-41.265-8.087-51.044s-15.404-16.037-30.037-18.775c-14.633-2.738-39.279-4.107-73.937-4.107z"></path></svg>
