<svg xmlns="http://www.w3.org/2000/svg" width="720" height="360" viewBox="0 0 720 360" version="1.1"><g stroke="none" stroke-width="1" fill="none" fill-rule="evenodd" opacity="0.1"><g transform="translate(34.000000, 45.000000)" fill="#000000"><path d="M104 4C106.2 4 108 5.8 108 8L108 82C108 84.2 106.2 86 104 86L8 86C5.8 86 4 84.2 4 82L4 8C4 5.8 5.8 4 8 4L104 4 104 4ZM104 0L8 0C3.6 0 0 3.6 0 8L0 82C0 86.4 3.6 90 8 90L104 90C108.4 90 112 86.4 112 82L112 8C112 3.5 108.4 0 104 0L104 0 104 0Z"/><rect x="4" y="16" width="104" height="4"/><rect x="30" y="18" width="4" height="71"/><path d="M66.98 70C66.78 70 66.68 70 66.48 69.9 65.38 69.6 64.78 68.5 65.08 67.5L73.11 37.48C73.41 36.38 74.51 35.78 75.52 36.08 76.62 36.38 77.22 37.48 76.92 38.48L68.89 68.5C68.69 69.4 67.89 70 66.98 70L66.98 70 66.98 70Z"/><path d="M82 65C81.5 65 81 64.8 80.6 64.4 79.8 63.6 79.8 62.4 80.6 61.6L89.2 53 80.6 44.4C79.8 43.6 79.8 42.4 80.6 41.6 81.4 40.8 82.6 40.8 83.4 41.6L93.4 51.6C94.2 52.4 94.2 53.6 93.4 54.4L83.4 64.4C83 64.8 82.5 65 82 65L82 65 82 65Z"/><path d="M60 65C59.5 65 59 64.8 58.6 64.4L48.6 54.4C47.8 53.6 47.8 52.4 48.6 51.6L58.6 41.6C59.4 40.8 60.6 40.8 61.4 41.6 62.2 42.4 62.2 43.6 61.4 44.4L52.8 53 61.4 61.6C62.2 62.4 62.2 63.6 61.4 64.4 61 64.8 60.5 65 60 65L60 65 60 65Z"/><rect x="8" y="24" width="18" height="4"/><rect x="8" y="30" width="14" height="4"/><rect x="8" y="36" width="16" height="4"/><rect x="8" y="42" width="16" height="4"/><rect x="8" y="54" width="18" height="4"/><rect x="8" y="60" width="14" height="4"/><rect x="8" y="48" width="10" height="4"/><circle cx="10" cy="10" r="2"/><circle cx="16" cy="10" r="2"/><circle cx="22" cy="10" r="2"/></g><g transform="translate(393.500000, 225.000000)" fill="#000000"><path d="M104 4C106.2 4 108 5.8 108 8L108 82C108 84.2 106.2 86 104 86L8 86C5.8 86 4 84.2 4 82L4 8C4 5.8 5.8 4 8 4L104 4 104 4ZM104 0L8 0C3.6 0 0 3.6 0 8L0 82C0 86.4 3.6 90 8 90L104 90C108.4 90 112 86.4 112 82L112 8C112 3.5 108.4 0 104 0L104 0 104 0Z"/><rect x="4" y="16" width="104" height="4"/><rect x="30" y="18" width="4" height="71"/><path d="M66.98 70C66.78 70 66.68 70 66.48 69.9 65.38 69.6 64.78 68.5 65.08 67.5L73.11 37.48C73.41 36.38 74.51 35.78 75.52 36.08 76.62 36.38 77.22 37.48 76.92 38.48L68.89 68.5C68.69 69.4 67.89 70 66.98 70L66.98 70 66.98 70Z"/><path d="M82 65C81.5 65 81 64.8 80.6 64.4 79.8 63.6 79.8 62.4 80.6 61.6L89.2 53 80.6 44.4C79.8 43.6 79.8 42.4 80.6 41.6 81.4 40.8 82.6 40.8 83.4 41.6L93.4 51.6C94.2 52.4 94.2 53.6 93.4 54.4L83.4 64.4C83 64.8 82.5 65 82 65L82 65 82 65Z"/><path d="M60 65C59.5 65 59 64.8 58.6 64.4L48.6 54.4C47.8 53.6 47.8 52.4 48.6 51.6L58.6 41.6C59.4 40.8 60.6 40.8 61.4 41.6 62.2 42.4 62.2 43.6 61.4 44.4L52.8 53 61.4 61.6C62.2 62.4 62.2 63.6 61.4 64.4 61 64.8 60.5 65 60 65L60 65 60 65Z"/><rect x="8" y="24" width="18" height="4"/><rect x="8" y="30" width="14" height="4"/><rect x="8" y="36" width="16" height="4"/><rect x="8" y="42" width="16" height="4"/><rect x="8" y="54" width="18" height="4"/><rect x="8" y="60" width="14" height="4"/><rect x="8" y="48" width="10" height="4"/><circle cx="10" cy="10" r="2"/><circle cx="16" cy="10" r="2"/><circle cx="22" cy="10" r="2"/></g><g transform="translate(589.000000, 132.000000)"><rect fill="#000000" x="30" y="19" width="14" height="2"/><rect fill="#000000" x="30" y="23" width="24" height="2"/><rect fill="#000000" x="30" y="27" width="20" height="2"/><path d="M24 21L24 27 18 27 18 21 24 21 24 21ZM26 19L16 19 16 29 26 29 26 19 26 19Z" fill="#000000"/><rect fill="#000000" x="30" y="73" width="14" height="2"/><rect fill="#000000" x="30" y="77" width="22" height="2"/><rect fill="#000000" x="30" y="81" width="17" height="2"/><path d="M24 75L24 81 18 81 18 75 24 75 24 75ZM26 73L16 73 16 83 26 83 26 73 26 73Z" fill="#000000"/><rect fill="#000000" x="30" y="55" width="14" height="2"/><rect fill="#000000" x="30" y="59" width="24" height="2"/><rect fill="#000000" x="30" y="63" width="20" height="2"/><path d="M24 57L24 63 18 63 18 57 24 57 24 57ZM26 55L16 55 16 65 26 65 26 55 26 55Z" fill="#000000"/><rect fill="#000000" x="30" y="37" width="14" height="2"/><rect fill="#000000" x="30" y="41" width="24" height="2"/><rect fill="#000000" x="30" y="45" width="20" height="2"/><path d="M24 39L24 45 18 45 18 39 24 39 24 39ZM26 37L16 37 16 47 26 47 26 37 26 37Z" fill="#000000"/><path d="M33.5 93.6L68 59.2 68 7C68 5.3 66.7 4 65 4L4 4 4 98 31.6 98 33 94.4C33.1 94.1 33.3 93.8 33.5 93.6L33.5 93.6Z"/><path d="M80.2 55.3L80 55.5 83.2 58.7 83.4 58.5 88 53.9 84.8 50.7 80.2 55.3Z"/><path d="M65 98C66.7 98 68 96.7 68 95L68 83 52.9 98 65 98 65 98Z"/><path d="M93 54C93 53.4 92.8 52.9 92.4 52.6L86.4 46.6C86 46.2 85.5 46 85 46 84.4 46 83.9 46.2 83.6 46.6L77.1 53.1C75.7 52.7 74.2 53 73.1 54.1 73.1 54.1 73.1 54.2 73 54.2L72 55.2 72 7C72 3.1 68.9 0 65 0L2 0C0.9 0 0 0.9 0 2L0 100C0 101.1 0.9 102 2 102L30 102 27.1 109.2 27.1 109.3 27.1 109.4C27 109.6 27 109.8 27 110 27 111.1 27.9 112 29 112 29.2 112 29.4 112 29.6 111.9L29.7 111.9 29.8 111.9 44.6 106C44.9 105.9 45.2 105.7 45.4 105.5L48.9 102 65 102C68.9 102 72 98.9 72 95L72 79 84.9 66.1C84.9 66.1 85 66.1 85 66 86.1 64.9 86.4 63.4 86 62L92.5 55.5C92.8 55 93 54.5 93 54L93 54ZM4 98L4 4 65 4C66.7 4 68 5.3 68 7L68 59.2 33.5 93.6C33.3 93.8 33.1 94.1 33 94.4L31.6 98 4 98 4 98ZM32.5 106.3L35.7 98.5 40.4 103.2 32.5 106.3 32.5 106.3ZM43.7 101L37.5 94.8 39.9 92.4 46.1 98.6 43.7 101 43.7 101ZM68 95C68 96.7 66.7 98 65 98L52.9 98 68 83 68 95 68 95ZM47.6 97.1L41.4 90.9 72.8 59.5 79 65.7 47.6 97.1 47.6 97.1ZM83.4 58.5L83.2 58.7 80 55.5 80.2 55.3 84.8 50.7 88 53.9 83.4 58.5 83.4 58.5Z" fill="#000000"/></g><g transform="translate(229.000000, 312.000000)"><rect fill="#000000" x="30" y="19" width="14" height="2"/><rect fill="#000000" x="30" y="23" width="24" height="2"/><rect fill="#000000" x="30" y="27" width="20" height="2"/><path d="M24 21L24 27 18 27 18 21 24 21 24 21ZM26 19L16 19 16 29 26 29 26 19 26 19Z" fill="#000000"/><rect fill="#000000" x="30" y="37" width="14" height="2"/><rect fill="#000000" x="30" y="41" width="24" height="2"/><rect fill="#000000" x="30" y="45" width="20" height="2"/><path d="M24 39L24 45 18 45 18 39 24 39 24 39ZM26 37L16 37 16 47 26 47 26 37 26 37Z" fill="#000000"/><path d="M33.5 93.6L68 59.2 68 7C68 5.3 66.7 4 65 4L4 4 4 98 31.6 98 33 94.4C33.1 94.1 33.3 93.8 33.5 93.6L33.5 93.6Z"/><path d="M93 54C93 53.4 92.8 52.9 92.4 52.6L86.4 46.6C86 46.2 85.5 46 85 46 84.4 46 83.9 46.2 83.6 46.6L77.1 53.1C75.7 52.7 74.2 53 73.1 54.1 73.1 54.1 73.1 54.2 73 54.2L72 55.2 72 7C72 3.1 68.9 0 65 0L2 0C0.9 0 0 0.9 0 2L0 100C0 101.1 0.9 102 2 102L30 102 27.1 109.2 27.1 109.3 27.1 109.4C27 109.6 27 109.8 27 110 27 111.1 27.9 112 29 112 29.2 112 29.4 112 29.6 111.9L29.7 111.9 29.8 111.9 44.6 106C44.9 105.9 45.2 105.7 45.4 105.5L48.9 102 65 102C68.9 102 72 98.9 72 95L72 79 84.9 66.1C84.9 66.1 85 66.1 85 66 86.1 64.9 86.4 63.4 86 62L92.5 55.5C92.8 55 93 54.5 93 54L93 54ZM4 98L4 4 65 4C66.7 4 68 5.3 68 7L68 59.2 33.5 93.6C33.3 93.8 33.1 94.1 33 94.4L31.6 98 4 98 4 98ZM32.5 106.3L35.7 98.5 40.4 103.2 32.5 106.3 32.5 106.3ZM43.7 101L37.5 94.8 39.9 92.4 46.1 98.6 43.7 101 43.7 101ZM68 95C68 96.7 66.7 98 65 98L52.9 98 68 83 68 95 68 95ZM47.6 97.1L41.4 90.9 72.8 59.5 79 65.7 47.6 97.1 47.6 97.1ZM83.4 58.5L83.2 58.7 80 55.5 80.2 55.3 84.8 50.7 88 53.9 83.4 58.5 83.4 58.5Z" fill="#000000"/></g><g transform="translate(229.000000, -48.000000)"><rect fill="#000000" x="30" y="73" width="14" height="2"/><rect fill="#000000" x="30" y="77" width="22" height="2"/><rect fill="#000000" x="30" y="81" width="17" height="2"/><path d="M24 75L24 81 18 81 18 75 24 75 24 75ZM26 73L16 73 16 83 26 83 26 73 26 73Z" fill="#000000"/><rect fill="#000000" x="30" y="55" width="14" height="2"/><rect fill="#000000" x="30" y="59" width="24" height="2"/><rect fill="#000000" x="30" y="63" width="20" height="2"/><path d="M24 57L24 63 18 63 18 57 24 57 24 57ZM26 55L16 55 16 65 26 65 26 55 26 55Z" fill="#000000"/><path d="M33.5 93.6L68 59.2 68 7C68 5.3 66.7 4 65 4L4 4 4 98 31.6 98 33 94.4C33.1 94.1 33.3 93.8 33.5 93.6L33.5 93.6Z"/><path d="M80.2 55.3L80 55.5 83.2 58.7 83.4 58.5 88 53.9 84.8 50.7 80.2 55.3Z"/><path d="M65 98C66.7 98 68 96.7 68 95L68 83 52.9 98 65 98 65 98Z"/><path d="M93 54C93 53.4 92.8 52.9 92.4 52.6L86.4 46.6C86 46.2 85.5 46 85 46 84.4 46 83.9 46.2 83.6 46.6L77.1 53.1C75.7 52.7 74.2 53 73.1 54.1 73.1 54.1 73.1 54.2 73 54.2L72 55.2 72 7C72 3.1 68.9 0 65 0L2 0C0.9 0 0 0.9 0 2L0 100C0 101.1 0.9 102 2 102L30 102 27.1 109.2 27.1 109.3 27.1 109.4C27 109.6 27 109.8 27 110 27 111.1 27.9 112 29 112 29.2 112 29.4 112 29.6 111.9L29.7 111.9 29.8 111.9 44.6 106C44.9 105.9 45.2 105.7 45.4 105.5L48.9 102 65 102C68.9 102 72 98.9 72 95L72 79 84.9 66.1C84.9 66.1 85 66.1 85 66 86.1 64.9 86.4 63.4 86 62L92.5 55.5C92.8 55 93 54.5 93 54L93 54ZM4 98L4 4 65 4C66.7 4 68 5.3 68 7L68 59.2 33.5 93.6C33.3 93.8 33.1 94.1 33 94.4L31.6 98 4 98 4 98ZM32.5 106.3L35.7 98.5 40.4 103.2 32.5 106.3 32.5 106.3ZM43.7 101L37.5 94.8 39.9 92.4 46.1 98.6 43.7 101 43.7 101ZM68 95C68 96.7 66.7 98 65 98L52.9 98 68 83 68 95 68 95ZM47.6 97.1L41.4 90.9 72.8 59.5 79 65.7 47.6 97.1 47.6 97.1ZM83.4 58.5L83.2 58.7 80 55.5 80.2 55.3 84.8 50.7 88 53.9 83.4 58.5 83.4 58.5Z" fill="#000000"/></g><g transform="translate(395.000000, 39.000000)"><rect fill="#000000" x="8" y="24" width="38" height="28"/><path d="M50 24L50 52 71 52 71 42C71 37.6 74.6 34 79 34L88 34 88 24 50 24 50 24Z" fill="#000000"/><rect fill="#000000" x="8" y="56" width="63" height="18"/><path d="M91.7 74L91.7 38 79 38C76.8 38 75 39.8 75 42L75 78 87.7 78C89.9 78 91.7 76.2 91.7 74L91.7 74Z"/><path d="M79 34L91.7 34 91.7 8C91.7 5.8 89.9 4 87.7 4L8 4C5.8 4 4 5.8 4 8L4 74C4 76.2 5.8 78 8 78L71 78 71 42C71 37.6 74.6 34 79 34L79 34Z"/><path d="M87.7 82L75 82 75 94C75 96.2 76.8 98 79 98L103 98C105.2 98 107 96.2 107 94L107 42C107 39.8 105.2 38 103 38L95.7 38 95.7 74C95.7 78.4 92.1 82 87.7 82L87.7 82Z"/><path d="M103 34L95.7 34 95.7 8C95.7 3.5 92.1 0 87.7 0L8 0C3.6 0 0 3.6 0 8L0 74C0 78.4 3.6 82 8 82L71 82 71 94C71 98.4 74.6 102 79 102L103 102C107.4 102 111 98.4 111 94L111 42C111 37.5 107.4 34 103 34L103 34ZM4 8C4 5.8 5.8 4 8 4L87.7 4C89.9 4 91.7 5.8 91.7 8L91.7 15 4 15 4 8 4 8ZM8 78C5.8 78 4 76.2 4 74L4 19 91.7 19 91.7 34 79 34C74.6 34 71 37.6 71 42L71 78 8 78 8 78ZM107 94C107 96.2 105.2 98 103 98L79 98C76.8 98 75 96.2 75 94L75 88 107 88 107 94 107 94ZM107 84L75 84 75 52 107 52 107 84 107 84ZM107 48L75 48 75 42C75 39.8 76.8 38 79 38L103 38C105.2 38 107 39.8 107 42L107 48 107 48Z" fill="#000000"/><ellipse fill="#000000" cx="87" cy="43" rx="1" ry="1"/><path d="M95.5 44L90.5 44C89.9 44 89.5 43.6 89.5 43 89.5 42.4 89.9 42 90.5 42L95.5 42C96.1 42 96.5 42.4 96.5 43 96.5 43.6 96.1 44 95.5 44L95.5 44 95.5 44Z" fill="#000000"/><rect fill="#000000" x="79" y="56" width="24" height="10"/><rect fill="#000000" x="79" y="70" width="24" height="10"/><ellipse fill="#000000" cx="10" cy="10" rx="2" ry="2"/><ellipse fill="#000000" cx="16" cy="10" rx="2" ry="2"/><ellipse fill="#000000" cx="22" cy="10" rx="2" ry="2"/></g><g transform="translate(35.000000, 219.000000)"><rect fill="#000000" x="8" y="24" width="38" height="28"/><path d="M50 24L50 52 71 52 71 42C71 37.6 74.6 34 79 34L88 34 88 24 50 24 50 24Z" fill="#000000"/><rect fill="#000000" x="8" y="56" width="63" height="18"/><path d="M91.7 74L91.7 38 79 38C76.8 38 75 39.8 75 42L75 78 87.7 78C89.9 78 91.7 76.2 91.7 74L91.7 74Z"/><path d="M79 34L91.7 34 91.7 8C91.7 5.8 89.9 4 87.7 4L8 4C5.8 4 4 5.8 4 8L4 74C4 76.2 5.8 78 8 78L71 78 71 42C71 37.6 74.6 34 79 34L79 34Z"/><path d="M87.7 82L75 82 75 94C75 96.2 76.8 98 79 98L103 98C105.2 98 107 96.2 107 94L107 42C107 39.8 105.2 38 103 38L95.7 38 95.7 74C95.7 78.4 92.1 82 87.7 82L87.7 82Z"/><path d="M103 34L95.7 34 95.7 8C95.7 3.5 92.1 0 87.7 0L8 0C3.6 0 0 3.6 0 8L0 74C0 78.4 3.6 82 8 82L71 82 71 94C71 98.4 74.6 102 79 102L103 102C107.4 102 111 98.4 111 94L111 42C111 37.5 107.4 34 103 34L103 34ZM4 8C4 5.8 5.8 4 8 4L87.7 4C89.9 4 91.7 5.8 91.7 8L91.7 15 4 15 4 8 4 8ZM8 78C5.8 78 4 76.2 4 74L4 19 91.7 19 91.7 34 79 34C74.6 34 71 37.6 71 42L71 78 8 78 8 78ZM107 94C107 96.2 105.2 98 103 98L79 98C76.8 98 75 96.2 75 94L75 88 107 88 107 94 107 94ZM107 84L75 84 75 52 107 52 107 84 107 84ZM107 48L75 48 75 42C75 39.8 76.8 38 79 38L103 38C105.2 38 107 39.8 107 42L107 48 107 48Z" fill="#000000"/><ellipse fill="#000000" cx="87" cy="43" rx="1" ry="1"/><path d="M95.5 44L90.5 44C89.9 44 89.5 43.6 89.5 43 89.5 42.4 89.9 42 90.5 42L95.5 42C96.1 42 96.5 42.4 96.5 43 96.5 43.6 96.1 44 95.5 44L95.5 44 95.5 44Z" fill="#000000"/><rect fill="#000000" x="79" y="56" width="24" height="10"/><rect fill="#000000" x="79" y="70" width="24" height="10"/><ellipse fill="#000000" cx="10" cy="10" rx="2" ry="2"/><ellipse fill="#000000" cx="16" cy="10" rx="2" ry="2"/><ellipse fill="#000000" cx="22" cy="10" rx="2" ry="2"/></g><g transform="translate(214.000000, 126.000000)" fill="#000000"><ellipse cx="56" cy="78" rx="5" ry="5"/><path d="M104 0L8 0C3.6 0 0 3.6 0 8L0 82C0 86.4 3.6 90 8 90L44.6 90C42 96.9 37.1 104 28 104 26.9 104 26 104.9 26 106 26 107.1 26.9 108 28 108L84 108C85.1 108 86 107.1 86 106 86 104.9 85.1 104 84 104 74.8 104 69.9 96.9 67.4 90L104 90C108.4 90 112 86.4 112 82L112 8C112 3.6 108.4 0 104 0L104 0ZM8 4L104 4C106.2 4 108 5.8 108 8L108 66 104 66 104 8 8 8 8 66 4 66 4 8C4 5.8 5.8 4 8 4L8 4ZM102 10L102 66 10 66 10 10 102 10 102 10ZM72 104L40 104C43.47 101.3 46.64 96.9 48.92 90L63.08 90C65.36 96.9 68.53 101.3 72 104L72 104ZM104 86L8 86C5.8 86 4 84.2 4 82L4 70 108 70 108 82C108 84.2 106.2 86 104 86L104 86Z"/><rect x="8" y="8" width="10" height="58"/><g transform="translate(36.000000, 15.000000)"><rect x="13" y="31" width="21" height="3"/><rect x="6" y="37" width="36" height="3"/><rect x="9" y="43" width="30" height="3"/><path d="M0 0L48 0 48 28 0 28 0 0 0 0ZM45 25L45 3 3 3 3 25 45 25 45 25Z"/><g transform="translate(5.000000, 13.000000)"><path d="M28.1 4.3L26.79 5.57 20.42 0 12.13 7.43 8.9 4.3 0 13 37 13 28.1 4.3Z"/></g><circle cx="12" cy="9" r="4"/></g></g><g transform="translate(574.000000, 306.000000)" fill="#000000"><path d="M104 0L8 0C3.6 0 0 3.6 0 8L0 82C0 86.4 3.6 90 8 90L44.6 90C42 96.9 37.1 104 28 104 26.9 104 26 104.9 26 106 26 107.1 26.9 108 28 108L84 108C85.1 108 86 107.1 86 106 86 104.9 85.1 104 84 104 74.8 104 69.9 96.9 67.4 90L104 90C108.4 90 112 86.4 112 82L112 8C112 3.6 108.4 0 104 0L104 0ZM8 4L104 4C106.2 4 108 5.8 108 8L108 66 104 66 104 8 8 8 8 66 4 66 4 8C4 5.8 5.8 4 8 4L8 4ZM102 10L102 66 10 66 10 10 102 10 102 10ZM72 104L40 104C43.47 101.3 46.64 96.9 48.92 90L63.08 90C65.36 96.9 68.53 101.3 72 104L72 104ZM104 86L8 86C5.8 86 4 84.2 4 82L4 70 108 70 108 82C108 84.2 106.2 86 104 86L104 86Z"/><rect x="8" y="8" width="10" height="58"/><g transform="translate(36.000000, 15.000000)"><rect x="13" y="31" width="21" height="3"/><rect x="6" y="37" width="36" height="3"/><path d="M0 0L48 0 48 28 0 28 0 0 0 0ZM45 25L45 3 3 3 3 25 45 25 45 25Z"/><g transform="translate(5.000000, 13.000000)"><path d="M28.1 4.3L26.79 5.57 20.42 0 12.13 7.43 8.9 4.3 0 13 37 13 28.1 4.3Z"/></g><circle cx="12" cy="9" r="4"/></g></g><g transform="translate(574.000000, -54.000000)" fill="#000000"><ellipse cx="56" cy="78" rx="5" ry="5"/><path d="M104 0L8 0C3.6 0 0 3.6 0 8L0 82C0 86.4 3.6 90 8 90L44.6 90C42 96.9 37.1 104 28 104 26.9 104 26 104.9 26 106 26 107.1 26.9 108 28 108L84 108C85.1 108 86 107.1 86 106 86 104.9 85.1 104 84 104 74.8 104 69.9 96.9 67.4 90L104 90C108.4 90 112 86.4 112 82L112 8C112 3.6 108.4 0 104 0L104 0ZM8 4L104 4C106.2 4 108 5.8 108 8L108 66 104 66 104 8 8 8 8 66 4 66 4 8C4 5.8 5.8 4 8 4L8 4ZM102 10L102 66 10 66 10 10 102 10 102 10ZM72 104L40 104C43.47 101.3 46.64 96.9 48.92 90L63.08 90C65.36 96.9 68.53 101.3 72 104L72 104ZM104 86L8 86C5.8 86 4 84.2 4 82L4 70 108 70 108 82C108 84.2 106.2 86 104 86L104 86Z"/><rect x="8" y="8" width="10" height="58"/><g transform="translate(36.000000, 15.000000)"><rect x="6" y="37" width="36" height="3"/><rect x="9" y="43" width="30" height="3"/></g></g></g></svg>