<svg width="64px" height="112px" viewBox="0 0 64 112" version="1.1" xmlns="http://www.w3.org/2000/svg" xmlns:xlink="http://www.w3.org/1999/xlink" xmlns:sketch="http://www.bohemiancoding.com/sketch/ns" opacity=".8">
    <!-- Generator: Sketch 3.3.3 (12072) - http://www.bohemiancoding.com/sketch -->
    <title>Group</title>
    <desc>Created with Sketch.</desc>
    <defs></defs>
    <g id="Page-1" stroke="none" stroke-width="1" fill="none" fill-rule="evenodd" sketch:type="MSPage">
        <g id="Group" sketch:type="MSLayerGroup">
            <path d="M9.2,20.7 L54.9,20.7 C59.7,20.7 63.6,24.6 63.6,29.4 L63.6,103.3 C63.6,108.1 59.7,112 54.9,112 L9.2,112 C4.4,112 0.5,108.1 0.5,103.3 L0.5,29.4 C0.5,24.6 4.4,20.7 9.2,20.7 L9.2,20.7 Z" id="Shape" fill="#000000" sketch:type="MSShapeGroup"></path>
            <circle id="Oval" fill="#41ff23" sketch:type="MSShapeGroup" cx="12.4" cy="71.8" r="4.3"></circle>
            <circle id="Oval" fill="#000000" sketch:type="MSShapeGroup" cx="21.1" cy="10.9" r="10.9"></circle>
            <circle id="Oval" fill="#41ff23" sketch:type="MSShapeGroup" cx="12.4" cy="84.8" r="4.3"></circle>
            <circle id="Oval" fill="#41ff23" sketch:type="MSShapeGroup" cx="12.4" cy="97.9" r="4.3"></circle>
            <circle id="Oval" fill="#41ff23" sketch:type="MSShapeGroup" cx="25.5" cy="71.8" r="4.3"></circle>
            <circle id="Oval" fill="#41ff23" sketch:type="MSShapeGroup" cx="25.5" cy="84.8" r="4.3"></circle>
            <circle id="Oval" fill="#41ff23" sketch:type="MSShapeGroup" cx="25.5" cy="97.9" r="4.3"></circle>
            <circle id="Oval" fill="#41ff23" sketch:type="MSShapeGroup" cx="38.5" cy="71.8" r="4.3"></circle>
            <circle id="Oval" fill="#41ff23" sketch:type="MSShapeGroup" cx="51.6" cy="71.8" r="4.3"></circle>
            <circle id="Oval" fill="#41ff23" sketch:type="MSShapeGroup" cx="38.5" cy="84.8" r="4.3"></circle>
            <circle id="Oval" fill="#41ff23" sketch:type="MSShapeGroup" cx="38.5" cy="97.9" r="4.3"></circle>
            <circle id="Oval" fill="#000000" sketch:type="MSShapeGroup" cx="53.2" cy="7.1" r="7.1"></circle>
            <circle id="Oval" fill="#41ff23" sketch:type="MSShapeGroup" cx="51.6" cy="84.8" r="4.3"></circle>
            <circle id="Oval" fill="#41ff23" sketch:type="MSShapeGroup" cx="51.6" cy="97.9" r="4.3"></circle>
            <rect id="Rectangle-path" fill="#41ff23" sketch:type="MSShapeGroup" x="7" y="28.3" width="50" height="9.8"></rect>
            <path d="M12.4,43.5 L52.6,43.5 C55,43.5 56.9,45.4 56.9,47.8 L56.9,56.5 C56.9,58.9 55,60.8 52.6,60.8 L12.4,60.8 C10,60.8 8.1,58.9 8.1,56.5 L8.1,47.8 C8.1,45.4 10,43.5 12.4,43.5 L12.4,43.5 Z" id="Shape" fill="#41ff23" sketch:type="MSShapeGroup"></path>
            <rect id="Rectangle-path" fill="#000000" sketch:type="MSShapeGroup" x="21.1" y="0" width="31.5" height="22.8"></rect>
            <rect id="Rectangle-path" fill="#41ff23" sketch:type="MSShapeGroup" x="47.2" y="84.8" width="8.7" height="13"></rect>
            <rect id="Rectangle-path" fill="#000000" sketch:type="MSShapeGroup" x="10.3" y="10.9" width="41.3" height="22.8"></rect>
            <path d="M53.5,34.8 L51.3,34.8 L51.3,15.2 C51.3,14.5 50.6,8.1 53.5,5.2 L55,6.8 C53.1,8.7 53.2,13.4 53.4,15 L53.5,15.1 L53.5,34.8" id="Shape" fill="#41ff23" sketch:type="MSShapeGroup"></path>
            <path d="M30.8,27.1 L30.8,24.7 C29.1,24.6 27.5,24.2 26.5,23.6 L27.3,20.7 C28.4,21.3 29.8,21.8 31.5,21.8 C32.9,21.8 33.9,21.2 33.9,20.2 C33.9,19.2 33.1,18.6 31.2,18 C28.5,17.1 26.7,15.8 26.7,13.4 C26.7,11.2 28.3,9.5 31,8.9 L31,6.5 L33.5,6.5 L33.5,8.7 C35.2,8.8 36.3,9.1 37.1,9.5 L36.4,12.3 C35.7,12 34.6,11.4 32.8,11.4 C31.2,11.4 30.6,12.1 30.6,12.8 C30.6,13.6 31.5,14.2 33.6,15 C36.6,16.1 37.8,17.4 37.8,19.7 C37.8,21.9 36.2,23.9 33.3,24.4 L33.3,27 L30.8,27" id="Shape" fill="#41ff23" sketch:type="MSShapeGroup"></path>
        </g>
    </g>
</svg>