<svg xmlns="http://www.w3.org/2000/svg" width="400px" height="200px" opacity=".1">
	<path d="M77.2,64.7h45.7c4.8,0,8.7,3.9,8.7,8.7v73.9c0,4.8-3.9,8.7-8.7,8.7 H77.2c-4.8,0-8.7-3.9-8.7-8.7V73.4C68.5,68.6,72.4,64.7,77.2,64.7z"/>
	<circle fill="#41ff23" cx="80.4" cy="115.8" r="4.3"/>
	<circle cx="89.1" cy="54.9" r="10.9"/>
	<circle fill="#41ff23" cx="80.4" cy="128.8" r="4.3"/>
	<circle fill="#41ff23" cx="80.4" cy="141.9" r="4.3"/>
	<circle fill="#41ff23" cx="93.5" cy="115.8" r="4.3"/>
	<circle fill="#41ff23" cx="93.5" cy="128.8" r="4.3"/>
	<circle fill="#41ff23" cx="93.5" cy="141.9" r="4.3"/>
	<circle fill="#41ff23" cx="106.5" cy="115.8" r="4.3"/>
	<circle fill="#41ff23" cx="119.6" cy="115.8" r="4.3"/>
	<circle fill="#41ff23" cx="106.5" cy="128.8" r="4.3"/>
	<circle fill="#41ff23" cx="106.5" cy="141.9" r="4.3"/>
	<circle cx="121.2" cy="51.1" r="7.1"/>
	<circle fill="#41ff23" cx="119.6" cy="128.8" r="4.3"/>
	<circle fill="#41ff23" cx="119.6" cy="141.9" r="4.3"/>
	<rect x="75" y="72.3" fill="#41ff23" width="50" height="9.8"/>
	<path fill="#41ff23" d="M80.4,87.5h40.2c2.4,0,4.3,1.9,4.3,4.3v8.7 c0,2.4-1.9,4.3-4.3,4.3H80.4c-2.4,0-4.3-1.9-4.3-4.3v-8.7C76.1,89.4,78,87.5,80.4,87.5z"/>
	<rect x="89.1" y="44" width="31.5" height="22.8"/>
	<rect x="115.2" y="128.8" fill="#41ff23" width="8.7" height="13"/>
	<rect x="78.3" y="54.9" width="41.3" height="22.8"/>
	<path fill="#41ff23" d="M121.5,78.8h-2.2V59.2c0-0.7-0.7-7.1,2.2-10l1.5,1.6 c-1.9,1.9-1.8,6.6-1.6,8.2l0.1,0.1V78.8"/>
	<path fill="#41ff23" d="M98.8,71.1v-2.4c-1.7-0.1-3.3-0.5-4.3-1.1l0.8-2.9 c1.1,0.6,2.5,1.1,4.2,1.1c1.4,0,2.4-0.6,2.4-1.6c0-1-0.8-1.6-2.7-2.2c-2.7-0.9-4.5-2.2-4.5-4.6c0-2.2,1.6-3.9,4.3-4.5v-2.4h2.5 v2.2c1.7,0.1,2.8,0.4,3.6,0.8l-0.7,2.8c-0.7-0.3-1.8-0.9-3.6-0.9c-1.6,0-2.2,0.7-2.2,1.4c0,0.8,0.9,1.4,3,2.2 c3,1.1,4.2,2.4,4.2,4.7c0,2.2-1.6,4.2-4.5,4.7v2.6H98.8"/>
	<path d="M277.2,164.7h45.7c4.8,0,8.7,3.9,8.7,8.7v73.9 c0,4.8-3.9,8.7-8.7,8.7h-45.7c-4.8,0-8.7-3.9-8.7-8.7v-73.9C268.5,168.6,272.4,164.7,277.2,164.7z"/>
	<circle fill="#41ff23" cx="280.4" cy="215.8" r="4.3"/>
	<circle cx="289.1" cy="154.9" r="10.9"/>
	<circle fill="#41ff23" cx="280.4" cy="228.8" r="4.3"/>
	<circle fill="#41ff23" cx="280.4" cy="241.9" r="4.3"/>
	<circle fill="#41ff23" cx="293.5" cy="215.8" r="4.3"/>
	<circle fill="#41ff23" cx="293.5" cy="228.8" r="4.3"/>
	<circle fill="#41ff23" cx="293.5" cy="241.9" r="4.3"/>
	<circle fill="#41ff23" cx="306.5" cy="215.8" r="4.3"/>
	<circle fill="#41ff23" cx="319.6" cy="215.8" r="4.3"/>
	<circle fill="#41ff23" cx="306.5" cy="228.8" r="4.3"/>
	<circle fill="#41ff23" cx="306.5" cy="241.9" r="4.3"/>
	<circle cx="321.2" cy="151.1" r="7.1"/>
	<circle fill="#41ff23" cx="319.6" cy="228.8" r="4.3"/>
	<circle fill="#41ff23" cx="319.6" cy="241.9" r="4.3"/>
	<rect x="275" y="172.3" fill="#41ff23" width="50" height="9.8"/>
	<path fill="#41ff23" d="M280.4,187.5h40.2c2.4,0,4.3,1.9,4.3,4.3v8.7 c0,2.4-1.9,4.3-4.3,4.3h-40.2c-2.4,0-4.3-1.9-4.3-4.3v-8.7C276.1,189.4,278,187.5,280.4,187.5z"/>
	<rect x="289.1" y="144" width="31.5" height="22.8"/>
	<rect x="315.2" y="228.8" fill="#41ff23" width="8.7" height="13"/>
	<rect x="278.3" y="154.9" width="41.3" height="22.8"/>
	<path fill="#41ff23" d="M321.5,178.8h-2.2v-19.6c0-0.7-0.7-7.1,2.2-10l1.5,1.6 c-1.9,1.9-1.8,6.6-1.6,8.2l0.1,0.1V178.8"/>
	<path fill="#41ff23" d="M298.8,171.1v-2.4c-1.7-0.1-3.3-0.5-4.3-1.1l0.8-2.9 c1.1,0.6,2.5,1.1,4.2,1.1c1.4,0,2.4-0.6,2.4-1.6c0-1-0.8-1.6-2.7-2.2c-2.7-0.9-4.5-2.2-4.5-4.6c0-2.2,1.6-3.9,4.3-4.5v-2.4h2.5 v2.2c1.7,0.1,2.8,0.4,3.6,0.8l-0.7,2.8c-0.7-0.3-1.8-0.9-3.6-0.9c-1.6,0-2.2,0.7-2.2,1.4c0,0.8,0.9,1.4,3,2.2 c3,1.1,4.2,2.4,4.2,4.7c0,2.2-1.6,4.2-4.5,4.7v2.6H298.8"/>
	<path d="M277.2-35.3h45.7c4.8,0,8.7,3.9,8.7,8.7v73.9c0,4.8-3.9,8.7-8.7,8.7 h-45.7c-4.8,0-8.7-3.9-8.7-8.7v-73.9C268.5-31.4,272.4-35.3,277.2-35.3z"/>
	<circle fill="#41ff23" cx="280.4" cy="15.8" r="4.3"/>
	<circle cx="289.1" cy="-45.1" r="10.9"/>
	<circle fill="#41ff23" cx="280.4" cy="28.8" r="4.3"/>
	<circle fill="#41ff23" cx="280.4" cy="41.9" r="4.3"/>
	<circle fill="#41ff23" cx="293.5" cy="15.8" r="4.3"/>
	<circle fill="#41ff23" cx="293.5" cy="28.8" r="4.3"/>
	<circle fill="#41ff23" cx="293.5" cy="41.9" r="4.3"/>
	<circle fill="#41ff23" cx="306.5" cy="15.8" r="4.3"/>
	<circle fill="#41ff23" cx="319.6" cy="15.8" r="4.3"/>
	<circle fill="#41ff23" cx="306.5" cy="28.8" r="4.3"/>
	<circle fill="#41ff23" cx="306.5" cy="41.9" r="4.3"/>
	<circle cx="321.2" cy="-48.9" r="7.1"/>
	<circle fill="#41ff23" cx="319.6" cy="28.8" r="4.3"/>
	<circle fill="#41ff23" cx="319.6" cy="41.9" r="4.3"/>
	<rect x="275" y="-27.7" fill="#41ff23" width="50" height="9.8"/>
	<path fill="#41ff23" d="M280.4-12.5h40.2c2.4,0,4.3,1.9,4.3,4.3v8.7 c0,2.4-1.9,4.3-4.3,4.3h-40.2c-2.4,0-4.3-1.9-4.3-4.3v-8.7C276.1-10.6,278-12.5,280.4-12.5z"/>
	<rect x="289.1" y="-56" width="31.5" height="22.8"/>
	<rect x="315.2" y="28.8" fill="#41ff23" width="8.7" height="13"/>
	<rect x="278.3" y="-45.1" width="41.3" height="22.8"/>
	<path fill="#41ff23" d="M321.5-21.2h-2.2v-19.6c0-0.7-0.7-7.1,2.2-10l1.5,1.6 c-1.9,1.9-1.8,6.6-1.6,8.2l0.1,0.1V-21.2"/>
	<path fill="#41ff23" d="M298.8-28.9v-2.4c-1.7-0.1-3.3-0.5-4.3-1.1l0.8-2.9 c1.1,0.6,2.5,1.1,4.2,1.1c1.4,0,2.4-0.6,2.4-1.6c0-1-0.8-1.6-2.7-2.2c-2.7-0.9-4.5-2.2-4.5-4.6c0-2.2,1.6-3.9,4.3-4.5v-2.4h2.5 v2.2c1.7,0.1,2.8,0.4,3.6,0.8l-0.7,2.8c-0.7-0.3-1.8-0.9-3.6-0.9c-1.6,0-2.2,0.7-2.2,1.4c0,0.8,0.9,1.4,3,2.2 c3,1.1,4.2,2.4,4.2,4.7c0,2.2-1.6,4.2-4.5,4.7v2.6H298.8"/>
</svg>
