<svg xmlns="http://www.w3.org/2000/svg" width="400px" height="200px" opacity=".1">
	<path d="M124.9,44H75.1c-5.5,0-10,4.5-10,10V146c0,5.5,4.5,10,10,10h49.8c5.5,0,10-4.5,10-10V54C134.8,48.5,130.4,44,124.9,44z M129.9,146c0,2.7-2.2,5-5,5H75.1c-2.7,0-5-2.2-5-5v-7.5h59.7V146z M129.9,133.6H70.1V66.4h59.7V133.6z M129.9,61.4H70.1V54 c0-2.7,2.2-5,5-5h49.8c2.7,0,5,2.2,5,5V61.4z"/>
	<circle cx="100" cy="144.8" r="3.7"/>
	<rect x="77.6" y="88.8" width="44.8" height="37.3"/>
	<rect x="82.6" y="73.9" width="34.8" height="5"/>
	<rect x="80.1" y="81.3" width="39.8" height="5"/>
	<circle class="st0" cx="95" cy="55.2" r="1.2"/>
	<path class="st0" d="M98.8,54h6.2c0.7,0,1.2,0.6,1.2,1.2c0,0.7-0.6,1.2-1.2,1.2h-6.2c-0.7,0-1.2-0.6-1.2-1.2 C97.5,54.5,98.1,54,98.8,54z"/>
	<rect x="85.1" y="101.2" fill="#41ff23" width="17.4" height="2.5"/>
	<rect x="85.1" y="106.2" fill="#41ff23" width="29.9" height="2.5"/>
	<rect x="85.1" y="111.2" fill="#41ff23" width="24.9" height="2.5"/>
	<path d="M324.9,144h-49.8c-5.5,0-10,4.5-10,10V246c0,5.5,4.5,10,10,10h49.8c5.5,0,10-4.5,10-10V154 C334.8,148.5,330.4,144,324.9,144z M329.9,246c0,2.7-2.2,5-5,5h-49.8c-2.7,0-5-2.2-5-5v-7.5h59.7V246z M329.9,233.6h-59.7v-67.2 h59.7V233.6z M329.9,161.4h-59.7V154c0-2.7,2.2-5,5-5h49.8c2.7,0,5,2.2,5,5V161.4z"/>
	<circle cx="300" cy="244.8" r="3.7"/>
	<rect x="277.6" y="188.8" width="44.8" height="37.3"/>
	<rect x="282.6" y="173.9" width="34.8" height="5"/>
	<rect x="280.1" y="181.3" width="39.8" height="5"/>
	<circle class="st0" cx="295" cy="155.2" r="1.2"/>
	<path class="st0" d="M298.8,154h6.2c0.7,0,1.2,0.6,1.2,1.2c0,0.7-0.6,1.2-1.2,1.2h-6.2c-0.7,0-1.2-0.6-1.2-1.2 C297.5,154.5,298.1,154,298.8,154z"/>
	<rect x="285.1" y="201.2" fill="#41ff23" width="17.4" height="2.5"/>
	<rect x="285.1" y="206.2" fill="#41ff23" width="29.9" height="2.5"/>
	<rect x="285.1" y="211.2" fill="#41ff23" width="24.9" height="2.5"/>
	<path d="M324.9-56h-49.8c-5.5,0-10,4.5-10,10V46c0,5.5,4.5,10,10,10h49.8c5.5,0,10-4.5,10-10V-46C334.8-51.5,330.4-56,324.9-56z M329.9,46c0,2.7-2.2,5-5,5h-49.8c-2.7,0-5-2.2-5-5v-7.5h59.7V46z M329.9,33.6h-59.7v-67.2h59.7V33.6z M329.9-38.6h-59.7V-46 c0-2.7,2.2-5,5-5h49.8c2.7,0,5,2.2,5,5V-38.6z"/>
	<circle cx="300" cy="44.8" r="3.7"/>
	<rect x="277.6" y="-11.2" width="44.8" height="37.3"/>
	<rect x="282.6" y="-26.1" width="34.8" height="5"/>
	<rect x="280.1" y="-18.7" width="39.8" height="5"/>
	<circle class="st0" cx="295" cy="-44.8" r="1.2"/>
	<path class="st0" d="M298.8-46h6.2c0.7,0,1.2,0.6,1.2,1.2c0,0.7-0.6,1.2-1.2,1.2h-6.2c-0.7,0-1.2-0.6-1.2-1.2 C297.5-45.5,298.1-46,298.8-46z"/>
	<rect x="285.1" y="1.2" fill="#41ff23" width="17.4" height="2.5"/>
	<rect x="285.1" y="6.2" fill="#41ff23" width="29.9" height="2.5"/>
	<rect x="285.1" y="11.2" fill="#41ff23" width="24.9" height="2.5"/>
</svg>
