<svg xmlns="http://www.w3.org/2000/svg" width="400px" height="200px" opacity=".1">
	<path d="M117.8,47.5H54.7c-5.5,0-10.1,4.5-10.1,10.1v88.3c0,5.5,4.5,10.1,10.1,10.1h63.1c5.5,0,10.1-4.5,10.1-10.1V57.6 C127.9,52.1,123.3,47.5,117.8,47.5z M122.8,145.9c0,2.8-2.3,5-5,5H54.7c-2.8,0-5-2.3-5-5V57.6c0-2.8,2.3-5,5-5h63.1 c2.8,0,5,2.3,5,5V145.9z"/>
	<circle cx="64.2" cy="69.6" r="5.7"/>
	<rect x="76.5" y="63.3" width="33.2" height="2.5"/>
	<rect x="76.5" y="68.3" width="28.6" height="2.5"/>
	<rect x="76.5" y="73.4" width="37.5" height="2.5"/>
	<circle cx="64.2" cy="91" r="5.7"/>
	<rect x="76.5" y="84.7" width="33.2" height="2.5"/>
	<rect x="76.5" y="89.8" width="28.6" height="2.5"/>
	<rect x="76.5" y="94.8" width="37.5" height="2.5"/>
	<circle cx="64.2" cy="112.5" r="5.7"/>
	<rect x="76.5" y="106.2" width="33.2" height="2.5"/>
	<rect x="76.5" y="111.2" width="28.6" height="2.5"/>
	<rect x="76.5" y="116.3" width="37.5" height="2.5"/>
	<circle cx="64.2" cy="133.9" r="5.7"/>
	<rect x="76.5" y="127.6" width="33.2" height="2.5"/>
	<rect x="76.5" y="132.7" width="28.6" height="2.5"/>
	<rect x="76.5" y="137.7" width="37.5" height="2.5"/>
	<path fill="#41ff23" d="M74.6,126c-0.8,0-1.3-0.5-1.3-1.3c0-0.1,0-0.3,0.1-0.4v-0.1l7.1-17.7h0.1l0.4-1.3c0.1-0.3,0.1-0.4,0.3-0.5 L131.2,55l0.1-0.1c0.6-0.6,1.5-1,2.5-1c0.4,0,0.8,0,1.1,0.1l0.8,0.3l8.7-8.7c0.3-0.3,0.5-0.4,0.9-0.4c0.4,0,0.6,0.1,0.9,0.4 l7.6,7.6c0.3,0.3,0.4,0.5,0.4,0.9c0,0.4-0.1,0.6-0.4,0.9l-8.7,8.7l0.3,0.8c0.4,1.4,0,2.8-0.9,3.8l0,0c0,0,0,0-0.1,0.1L94.6,118 c-0.1,0.1-0.3,0.3-0.5,0.3l-1.3,0.4v0.1l-17.7,7.1H75C74.9,126,74.8,126,74.6,126z"/>
	<path d="M154.6,55.9c0.5-0.5,0.8-1.1,0.8-1.8c0-0.8-0.3-1.4-0.8-1.8l0,0l-7.6-7.6c-0.5-0.5-1.1-0.8-1.8-0.8c-0.8,0-1.4,0.3-1.8,0.8 l-8.2,8.2c-1.8-0.5-3.7-0.1-5,1.3c0,0,0,0.1-0.1,0.1L80.5,104c-0.3,0.3-0.5,0.6-0.6,1l0,0l-7.4,18.7v0.1v0.1l0,0 c-0.1,0.3-0.1,0.5-0.1,0.8c0,1.4,1.1,2.5,2.5,2.5c0.3,0,0.5,0,0.8-0.1l0,0h0.1h0.1l18.7-7.4l0,0c0.4-0.1,0.8-0.4,1-0.6l0,0 l49.7-49.7c0,0,0.1,0,0.1-0.1c1.4-1.4,1.8-3.3,1.3-5L154.6,55.9L154.6,55.9z M79.2,120.2l3.9-10l5.9,5.9L79.2,120.2z M93.6,113.6 l-7.8-7.8l3-3l7.7,7.7l1.8-1.8l-7.7-7.7l30.8-30.8l7.8,7.8L93.6,113.6z M143.3,60l-4-4l6.1-6.1l4,4L143.3,60z"/>
	<path d="M317.8-52.5h-63.1c-5.5,0-10.1,4.5-10.1,10.1v88.3c0,5.5,4.5,10.1,10.1,10.1h63.1c5.5,0,10.1-4.5,10.1-10.1v-88.3 C327.9-47.9,323.3-52.5,317.8-52.5z M322.8,45.9c0,2.8-2.3,5-5,5h-63.1c-2.8,0-5-2.3-5-5v-88.3c0-2.8,2.3-5,5-5h63.1 c2.8,0,5,2.3,5,5V45.9z"/>
	<circle cx="264.2" cy="-30.4" r="5.7"/>
	<rect x="276.5" y="-36.7" width="33.2" height="2.5"/>
	<rect x="276.5" y="-31.7" width="28.6" height="2.5"/>
	<rect x="276.5" y="-26.6" width="37.5" height="2.5"/>
	<circle cx="264.2" cy="-9" r="5.7"/>
	<rect x="276.5" y="-15.3" width="33.2" height="2.5"/>
	<rect x="276.5" y="-10.2" width="28.6" height="2.5"/>
	<rect x="276.5" y="-5.2" width="37.5" height="2.5"/>
	<circle cx="264.2" cy="12.5" r="5.7"/>
	<rect x="276.5" y="6.2" width="33.2" height="2.5"/>
	<rect x="276.5" y="11.2" width="28.6" height="2.5"/>
	<rect x="276.5" y="16.3" width="37.5" height="2.5"/>
	<circle cx="264.2" cy="33.9" r="5.7"/>
	<rect x="276.5" y="27.6" width="33.2" height="2.5"/>
	<rect x="276.5" y="32.7" width="28.6" height="2.5"/>
	<rect x="276.5" y="37.7" width="37.5" height="2.5"/>
	<path fill="#41ff23" d="M274.6,26c-0.8,0-1.3-0.5-1.3-1.3c0-0.1,0-0.3,0.1-0.4v-0.1l7.1-17.7h0.1l0.4-1.3c0.1-0.3,0.1-0.4,0.3-0.5 L331.2-45l0.1-0.1c0.6-0.6,1.5-1,2.5-1c0.4,0,0.8,0,1.1,0.1l0.8,0.3l8.7-8.7c0.3-0.3,0.5-0.4,0.9-0.4s0.6,0.1,0.9,0.4l7.6,7.6 c0.3,0.3,0.4,0.5,0.4,0.9c0,0.4-0.1,0.6-0.4,0.9l-8.7,8.7l0.3,0.8c0.4,1.4,0,2.8-0.9,3.8l0,0c0,0,0,0-0.1,0.1L294.6,18 c-0.1,0.1-0.3,0.3-0.5,0.3l-1.3,0.4v0.1l-17.7,7.1H275C274.9,26,274.8,26,274.6,26z"/>
	<path d="M354.6-44.1c0.5-0.5,0.8-1.1,0.8-1.8c0-0.8-0.3-1.4-0.8-1.8l0,0l-7.6-7.6c-0.5-0.5-1.1-0.8-1.8-0.8c-0.8,0-1.4,0.3-1.8,0.8 l-8.2,8.2c-1.8-0.5-3.7-0.1-5,1.3c0,0,0,0.1-0.1,0.1L280.5,4c-0.3,0.3-0.5,0.6-0.6,1l0,0l-7.4,18.7v0.1V24l0,0 c-0.1,0.3-0.1,0.5-0.1,0.8c0,1.4,1.1,2.5,2.5,2.5c0.3,0,0.5,0,0.8-0.1l0,0h0.1h0.1l18.7-7.4l0,0c0.4-0.1,0.8-0.4,1-0.6l0,0 l49.7-49.7c0,0,0.1,0,0.1-0.1c1.4-1.4,1.8-3.3,1.3-5L354.6-44.1L354.6-44.1z M279.2,20.2l3.9-10l5.9,5.9L279.2,20.2z M293.6,13.6 l-7.8-7.8l3-3l7.7,7.7l1.8-1.8L290.5,1l30.8-30.8l7.8,7.8L293.6,13.6z M343.3-40l-4-4l6.1-6.1l4,4L343.3-40z"/>
	<path d="M317.8,147.5h-63.1c-5.5,0-10.1,4.5-10.1,10.1v88.3c0,5.5,4.5,10.1,10.1,10.1h63.1c5.5,0,10.1-4.5,10.1-10.1v-88.3 C327.9,152.1,323.3,147.5,317.8,147.5z M322.8,245.9c0,2.8-2.3,5-5,5h-63.1c-2.8,0-5-2.3-5-5v-88.3c0-2.8,2.3-5,5-5h63.1 c2.8,0,5,2.3,5,5V245.9z"/>
	<circle cx="264.2" cy="169.6" r="5.7"/>
	<rect x="276.5" y="163.3" width="33.2" height="2.5"/>
	<rect x="276.5" y="168.3" width="28.6" height="2.5"/>
	<rect x="276.5" y="173.4" width="37.5" height="2.5"/>
	<circle cx="264.2" cy="191" r="5.7"/>
	<rect x="276.5" y="184.7" width="33.2" height="2.5"/>
	<rect x="276.5" y="189.8" width="28.6" height="2.5"/>
	<rect x="276.5" y="194.8" width="37.5" height="2.5"/>
	<circle cx="264.2" cy="212.5" r="5.7"/>
	<rect x="276.5" y="206.2" width="33.2" height="2.5"/>
	<rect x="276.5" y="211.2" width="28.6" height="2.5"/>
	<rect x="276.5" y="216.3" width="37.5" height="2.5"/>
	<circle cx="264.2" cy="233.9" r="5.7"/>
	<rect x="276.5" y="227.6" width="33.2" height="2.5"/>
	<rect x="276.5" y="232.7" width="28.6" height="2.5"/>
	<rect x="276.5" y="237.7" width="37.5" height="2.5"/>
	<path fill="#41ff23" d="M274.6,226c-0.8,0-1.3-0.5-1.3-1.3c0-0.1,0-0.3,0.1-0.4v-0.1l7.1-17.7h0.1l0.4-1.3c0.1-0.3,0.1-0.4,0.3-0.5 l49.8-49.8l0.1-0.1c0.6-0.6,1.5-1,2.5-1c0.4,0,0.8,0,1.1,0.1l0.8,0.3l8.7-8.7c0.3-0.3,0.5-0.4,0.9-0.4c0.4,0,0.6,0.1,0.9,0.4 l7.6,7.6c0.3,0.3,0.4,0.5,0.4,0.9c0,0.4-0.1,0.6-0.4,0.9l-8.7,8.7l0.3,0.8c0.4,1.4,0,2.8-0.9,3.8l0,0c0,0,0,0-0.1,0.1L294.6,218 c-0.1,0.1-0.3,0.3-0.5,0.3l-1.3,0.4v0.1l-17.7,7.1H275C274.9,226,274.8,226,274.6,226z"/>
	<path d="M354.6,155.9c0.5-0.5,0.8-1.1,0.8-1.8c0-0.8-0.3-1.4-0.8-1.8l0,0l-7.6-7.6c-0.5-0.5-1.1-0.8-1.8-0.8 c-0.8,0-1.4,0.3-1.8,0.8l-8.2,8.2c-1.8-0.5-3.7-0.1-5,1.3c0,0,0,0.1-0.1,0.1L280.5,204c-0.3,0.3-0.5,0.6-0.6,1l0,0l-7.4,18.7v0.1 v0.1l0,0c-0.1,0.3-0.1,0.5-0.1,0.8c0,1.4,1.1,2.5,2.5,2.5c0.3,0,0.5,0,0.8-0.1l0,0h0.1h0.1l18.7-7.4l0,0c0.4-0.1,0.8-0.4,1-0.6l0,0 l49.7-49.7c0,0,0.1,0,0.1-0.1c1.4-1.4,1.8-3.3,1.3-5L354.6,155.9L354.6,155.9z M279.2,220.2l3.9-10l5.9,5.9L279.2,220.2z  M293.6,213.6l-7.8-7.8l3-3l7.7,7.7l1.8-1.8l-7.7-7.7l30.8-30.8l7.8,7.8L293.6,213.6z M343.3,160l-4-4l6.1-6.1l4,4L343.3,160z"/>
</svg>
