<?xml version="1.0" encoding="UTF-8" standalone="no"?>
<svg width="112px" height="113px" viewBox="0 0 112 113" version="1.1" xmlns="http://www.w3.org/2000/svg" xmlns:xlink="http://www.w3.org/1999/xlink" xmlns:sketch="http://www.bohemiancoding.com/sketch/ns">
    <!-- Generator: Sketch 3.3.3 (12072) - http://www.bohemiancoding.com/sketch -->
    <title>Group</title>
    <desc>Created with Sketch.</desc>
    <defs></defs>
    <g id="Page-1" stroke="none" stroke-width="1" fill="none" fill-rule="evenodd" sketch:type="MSPage">
        <g id="Group" sketch:type="MSLayerGroup">
            <path d="M73.8,4.5 L10.7,4.5 C5.2,4.5 0.6,9 0.6,14.6 L0.6,102.9 C0.6,108.4 5.1,113 10.7,113 L73.8,113 C79.3,113 83.9,108.5 83.9,102.9 L83.9,14.6 C83.9,9.1 79.3,4.5 73.8,4.5 L73.8,4.5 Z M78.8,102.9 C78.8,105.7 76.5,107.9 73.8,107.9 L10.7,107.9 C7.9,107.9 5.7,105.6 5.7,102.9 L5.7,14.6 C5.7,11.8 8,9.6 10.7,9.6 L73.8,9.6 C76.6,9.6 78.8,11.9 78.8,14.6 L78.8,102.9 L78.8,102.9 Z" id="Shape" fill="#000000" sketch:type="MSShapeGroup"></path>
            <circle id="Oval" fill="#000000" sketch:type="MSShapeGroup" cx="20.2" cy="26.6" r="5.7"></circle>
            <rect id="Rectangle-path" fill="#000000" sketch:type="MSShapeGroup" x="32.5" y="20.3" width="33.2" height="2.5"></rect>
            <rect id="Rectangle-path" fill="#000000" sketch:type="MSShapeGroup" x="32.5" y="25.3" width="28.6" height="2.5"></rect>
            <rect id="Rectangle-path" fill="#000000" sketch:type="MSShapeGroup" x="32.5" y="30.4" width="37.5" height="2.5"></rect>
            <circle id="Oval" fill="#000000" sketch:type="MSShapeGroup" cx="20.2" cy="48" r="5.7"></circle>
            <rect id="Rectangle-path" fill="#000000" sketch:type="MSShapeGroup" x="32.5" y="41.7" width="33.2" height="2.5"></rect>
            <rect id="Rectangle-path" fill="#000000" sketch:type="MSShapeGroup" x="32.5" y="46.8" width="28.6" height="2.5"></rect>
            <rect id="Rectangle-path" fill="#000000" sketch:type="MSShapeGroup" x="32.5" y="51.8" width="37.5" height="2.5"></rect>
            <circle id="Oval" fill="#000000" sketch:type="MSShapeGroup" cx="20.2" cy="69.5" r="5.7"></circle>
            <rect id="Rectangle-path" fill="#000000" sketch:type="MSShapeGroup" x="32.5" y="63.2" width="33.2" height="2.5"></rect>
            <rect id="Rectangle-path" fill="#000000" sketch:type="MSShapeGroup" x="32.5" y="68.2" width="28.6" height="2.5"></rect>
            <rect id="Rectangle-path" fill="#000000" sketch:type="MSShapeGroup" x="32.5" y="73.3" width="37.5" height="2.5"></rect>
            <circle id="Oval" fill="#000000" sketch:type="MSShapeGroup" cx="20.2" cy="90.9" r="5.7"></circle>
            <rect id="Rectangle-path" fill="#000000" sketch:type="MSShapeGroup" x="32.5" y="84.6" width="33.2" height="2.5"></rect>
            <rect id="Rectangle-path" fill="#000000" sketch:type="MSShapeGroup" x="32.5" y="89.7" width="28.6" height="2.5"></rect>
            <rect id="Rectangle-path" fill="#000000" sketch:type="MSShapeGroup" x="32.5" y="94.7" width="37.5" height="2.5"></rect>
            <path d="M30.6,83 C29.8,83 29.3,82.5 29.3,81.7 C29.3,81.6 29.3,81.4 29.4,81.3 L29.4,81.2 L36.5,63.5 L36.6,63.5 L37,62.2 C37.1,61.9 37.1,61.8 37.3,61.7 L87.2,12 L87.3,11.9 C87.9,11.3 88.8,10.9 89.8,10.9 C90.2,10.9 90.6,10.9 90.9,11 L91.7,11.3 L100.4,2.6 C100.7,2.3 100.9,2.2 101.3,2.2 C101.7,2.2 101.9,2.3 102.2,2.6 L109.8,10.2 C110.1,10.5 110.2,10.7 110.2,11.1 C110.2,11.5 110.1,11.7 109.8,12 L101.1,20.7 L101.4,21.5 C101.8,22.9 101.4,24.3 100.5,25.3 L100.5,25.3 C100.5,25.3 100.5,25.3 100.4,25.4 L50.6,75 C50.5,75.1 50.3,75.3 50.1,75.3 L48.8,75.7 L48.8,75.8 L31.1,82.9 L31,82.9 C30.9,83 30.8,83 30.6,83 L30.6,83 Z" id="Shape" fill="#41FF23" sketch:type="MSShapeGroup"></path>
            <path d="M110.6,12.9 C111.1,12.4 111.4,11.8 111.4,11.1 C111.4,10.3 111.1,9.7 110.6,9.3 L110.6,9.3 L103,1.7 C102.5,1.2 101.9,0.9 101.2,0.9 C100.4,0.9 99.8,1.2 99.4,1.7 L91.2,9.9 C89.4,9.4 87.5,9.8 86.2,11.2 C86.2,11.2 86.2,11.3 86.1,11.3 L36.5,61 C36.2,61.3 36,61.6 35.9,62 L35.9,62 L28.5,80.7 L28.5,80.8 L28.5,80.9 C28.4,81.2 28.4,81.4 28.4,81.7 C28.4,83.1 29.5,84.2 30.9,84.2 C31.2,84.2 31.4,84.2 31.7,84.1 L31.7,84.1 L31.8,84.1 L31.9,84.1 L50.6,76.7 C51,76.6 51.4,76.3 51.6,76.1 L51.6,76.1 L101.3,26.4 C101.3,26.4 101.4,26.4 101.4,26.3 C102.8,24.9 103.2,23 102.7,21.3 L110.6,12.9 L110.6,12.9 Z M35.2,77.2 L39.1,67.2 L45,73.1 L35.2,77.2 L35.2,77.2 Z M49.6,70.6 L41.8,62.8 L44.8,59.8 L52.5,67.5 L54.3,65.7 L46.6,58 L77.4,27.2 L85.2,35 L49.6,70.6 L49.6,70.6 Z M99.3,17 L95.3,13 L101.4,6.9 L105.4,10.9 L99.3,17 L99.3,17 Z" id="Shape" fill="#000000" sketch:type="MSShapeGroup"></path>
        </g>
    </g>
</svg>