<svg height="102px" viewBox="0 0 120 120" xmlns="http://www.w3.org/2000/svg" class="push-half-bottom">
    <title>UI Design Icon</title>
    <rect fill="#000000" x="12.5" y="33" width="38" height="28"></rect>
    <path d="M54.5,33 L54.5,61 L75.5,61 L75.5,51 C75.5,46.6 79.1,43 83.5,43 L92.5,43 L92.5,33 L54.5,33 L54.5,33 Z" fill="#000000"></path>
    <rect fill="#000000" x="12.5" y="65" width="63" height="18"></rect>
    <path d="M107.5,43 L100.2,43 L100.2,17 C100.2,12.5 96.6,9 92.2,9 L12.5,9 C8.1,9 4.5,12.6 4.5,17 L4.5,83 C4.5,87.4 8.1,91 12.5,91 L75.5,91 L75.5,103 C75.5,107.4 79.1,111 83.5,111 L107.5,111 C111.9,111 115.5,107.4 115.5,103 L115.5,51 C115.5,46.5 111.9,43 107.5,43 L107.5,43 Z M8.5,17 C8.5,14.8 10.3,13 12.5,13 L92.2,13 C94.4,13 96.2,14.8 96.2,17 L96.2,24 L8.5,24 L8.5,17 L8.5,17 Z M12.5,87 C10.3,87 8.5,85.2 8.5,83 L8.5,28 L96.2,28 L96.2,43 L83.5,43 C79.1,43 75.5,46.6 75.5,51 L75.5,87 L12.5,87 L12.5,87 Z M111.5,103 C111.5,105.2 109.7,107 107.5,107 L83.5,107 C81.3,107 79.5,105.2 79.5,103 L79.5,97 L111.5,97 L111.5,103 L111.5,103 Z M111.5,93 L79.5,93 L79.5,61 L111.5,61 L111.5,93 L111.5,93 Z M111.5,57 L79.5,57 L79.5,51 C79.5,48.8 81.3,47 83.5,47 L107.5,47 C109.7,47 111.5,48.8 111.5,51 L111.5,57 L111.5,57 Z" fill="#000000"></path>
    <circle fill="#000000" cx="91.5" cy="52" r="1"></circle>
    <path d="M100,53 L95,53 C94.4,53 94,52.6 94,52 C94,51.4 94.4,51 95,51 L100,51 C100.6,51 101,51.4 101,52 C101,52.6 100.6,53 100,53 L100,53 L100,53 Z" fill="#000000"></path>
    <rect fill="#000000" x="83.5" y="65" width="24" height="10"></rect>
    <rect fill="#000000" x="83.5" y="79" width="24" height="10"></rect>
    <circle fill="#000000" cx="14.5" cy="19" r="2"></circle>
    <circle fill="#000000" cx="20.5" cy="19" r="2"></circle>
    <circle fill="#000000" cx="26.5" cy="19" r="2"></circle>
</svg>