<svg width="102px" height="102px" viewBox="0 0 120 120" xmlns="http://www.w3.org/2000/svg">
    <title>UX Design</title>
    <circle cx="18" cy="22.1" r="1.8"></circle>
    <circle cx="23.5" cy="22.1" r="1.8"></circle>
    <circle cx="29" cy="22.1" r="1.8"></circle>
    <rect id="Rectangle-path" x="16.2" y="34.9" width="34.7" height="25.6"></rect>
    <circle cx="88.1" cy="52.3" r="1"></circle>
    <path d="M95.9,53.3 L91.4,53.3 C90.9,53.3 90.4,53 90.4,52.4 C90.4,51.9 90.7,51.5 91.4,51.5 L95.9,51.5 C96.4,51.5 96.8,51.8 96.8,52.4 C96.7,52.9 96.4,53.3 95.9,53.3 Z"></path>
    <path d="M102.9,44.1 L96.2,44.1 L96.2,20.3 C96.2,16.2 92.9,13 88.9,13 L16.3,13 C12.3,13 9,16.3 9,20.3 L9,80.5 C9,84.5 12.3,87.8 16.3,87.8 L73.7,87.8 L73.7,98.9 C73.7,102.9 77,106.2 81,106.2 L102.9,106.2 C106.9,106.2 110.2,102.9 110.2,98.9 L110.2,51.4 C110.2,47.4 106.9,44.1 102.9,44.1 Z M12.5,20.3 C12.5,18.3 14.1,16.7 16.1,16.7 L88.8,16.7 C90.8,16.7 92.5,18.3 92.5,20.3 L92.5,26.6 L12.5,26.6 L12.5,20.3 L12.5,20.3 Z M16.2,84.2 L16.2,84.2 C14.2,84.2 12.6,82.6 12.6,80.6 L12.6,30.5 L92.6,30.5 L92.6,44.2 L89.3,44.2 L89.3,35 L54.5,35 L54.5,60.6 L73.7,60.6 L73.7,64.3 L16.2,64.3 L16.2,80.7 L73.7,80.7 L73.7,84.4 L16.2,84.2 Z M102.9,102.5 L81,102.5 C79,102.5 77.4,100.9 77.4,98.9 L77.4,93.4 L106.6,93.4 L106.6,98.9 L106.6,98.9 C106.6,100.9 105,102.5 102.9,102.5 Z M106.6,89.8 L77.4,89.8 L77.4,60.6 L106.6,60.6 L106.6,89.8 L106.6,89.8 Z M77.4,56.9 L77.4,51.4 C77.4,49.4 79,47.7 81.1,47.7 L103,47.7 C105,47.7 106.7,49.3 106.7,51.4 L106.7,56.9 L106.7,56.9 L77.4,56.9 Z"></path>
    <path d="M81,76.9 L102.9,76.9 L102.9,86 L81,86 L81,76.9 Z M81,64.1 L102.9,64.1 L102.9,73.2 L81,73.2 L81,64.1 Z"></path>
</svg>