<svg xmlns="http://www.w3.org/2000/svg" width="100" height="100" viewBox="0 0 100 100">
    <rect fill="none" width="78" height="70" x="4" y="8" stroke-width="4" rx="8"/>
    <path stroke-width="4" d="M4,22 L82,22"/>
    <circle cx="11" cy="15" r="1"/>
    <circle cx="16" cy="15" r="1"/>
    <circle cx="21" cy="15" r="1"/>
    <rect width="31" height="24" x="10" y="28"/>
    <rect width="66" height="16" x="10" y="56"/>
    <rect width="31" height="24" x="45" y="28"/>
    <rect width="31" height="56" x="65" y="36" stroke-width="3" rx="8" fill="#fff"/>
    <rect width="21" height="9" x="70" y="54"/>
    <rect width="30" height="3" x="66" y="48"/>
    <rect width="30" height="3" x="66" y="78"/>
    <circle cx="77" cy="43" r="1"/>
    <path stroke-width="2" d="M80,43 L85,43" stroke-linecap="round"/>
    <rect width="21" height="9" x="70" y="66"/>
</svg>
