<svg xmlns="http://www.w3.org/2000/svg" width="100" height="100" viewBox="0 0 100 100" xmlns:xlink="http://www.w3.org/1999/xlink">
  <path fill="#fff"  stroke-width="3" d="M4,3.5 C3.72385763,3.5 3.5,3.72385763 3.5,4 L3.5,87 C3.5,87.2761424 3.72385763,87.5 4,87.5 L58,87.5 C60.4852814,87.5 62.5,85.4852814 62.5,83 L62.5,8 C62.5,5.51471863 60.4852814,3.5 58,3.5 L4,3.5 Z"/>
  <path stroke-width="2" d="M28 19L40 19M28 35L41 35M28 41L41 41M28 38L46 38M28 67L41 67M28 73L41 73M28 70L46 70M28 22L48.0249844 22M28 25L45.0293864 25M28 51L40 51M28 54L48.0249844 54M28 57L45.0293864 57"/>
  <rect width="8" height="8" x="17" y="18"/>
  <rect width="8" height="8" x="17" y="34"/>
  <rect width="8" height="8" x="17" y="50"/>
  <rect width="8" height="8" x="17" y="66"/>
  <path transform="rotate(45 50.577 73.234)" fill="#fff" stroke-width="3" d="M50.1338469,102.465396 C50.1811355,102.555935 50.2550193,102.629818 50.3455582,102.677107 C50.5903254,102.804949 50.892385,102.710163 51.0202273,102.465396 L56.9066076,91.1953128 C57.018566,90.9809568 57.0770371,90.7427091 57.0770371,90.5008762 L57.0770371,45.2339659 C57.0770371,44.4055388 56.4054642,43.7339659 55.5770371,43.7339659 L45.5770371,43.7339659 C44.7486099,43.7339659 44.0770371,44.4055388 44.0770371,45.2339659 L44.0770371,90.5008762 C44.0770371,90.7427091 44.1355081,90.9809568 44.2474665,91.1953128 L50.1338469,102.465396 Z"/>
  <path stroke-width="4" d="M61.9619408,54.8492424 L75.1148872,54.8492424" transform="rotate(45 68.962 54.85)"/>
  <path stroke-width="2" d="M35.7989899,81.0121933 L49.7989899,81.0121933" transform="rotate(45 42.799 81.012)"/>
  <path stroke-width="3" d="M31.9099026,84.9012806 L45.9099026,84.9012806" transform="rotate(45 38.91 84.901)"/>
  <rect width="7" height="11" x="69.705" y="45.107" stroke-width="3" transform="rotate(45 73.205 50.607)" rx="2"/>
</svg>
