<svg width="102px" height="102px" viewBox="0 0 120 120" xmlns="https://www.w3.org/2000/svg">
    <title>UX Design</title>
    <path d="M30,23 L39.6,23 L39.6,32.8 L30,32.8 L30,23 Z M43.5,23 L57.5,23 L57.5,25 L43.5,25 L43.5,23 Z M43.5,27 L67.5,27 L67.5,29 L43.5,29 L43.5,27 Z M43.5,31 L63.5,31 L63.5,33 L43.5,33 L43.5,31 Z M43.5,77 L57.5,77 L57.5,79 L43.5,79 L43.5,77 Z M43.5,81 L65.5,81 L65.5,83 L43.5,83 L43.5,81 Z M43.5,85 L60.5,85 L60.5,87 L43.5,87 L43.5,85 Z M30,77 L39.6,77 L39.6,86.8 L30,86.8 L30,77 Z M43.5,59 L57.5,59 L57.5,61 L43.5,61 L43.5,59 Z M43.5,63 L67.5,63 L67.5,65 L43.5,65 L43.5,63 Z M43.5,67 L63.5,67 L63.5,69 L43.5,69 L43.5,67 Z M30,41 L39.6,41 L39.6,50.8 L30,50.8 L30,41 Z M43.5,41 L57.5,41 L57.5,43 L43.5,43 L43.5,41 Z M43.5,45 L67.5,45 L67.5,47 L43.5,47 L43.5,45 Z M43.5,49 L63.5,49 L63.5,51 L43.5,51 L43.5,49 Z M30,59 L39.6,59 L39.6,68.8 L30,68.8 L30,59 Z"></path>
    <path d="M106.5,58 C106.5,57.4 106.3,56.9 105.9,56.6 L99.9,50.6 C99.5,50.2 99,50 98.5,50 C97.9,50 97.4,50.2 97.1,50.6 L90.6,57.1 C89.2,56.7 87.7,57 86.6,58.1 C86.6,58.1 86.6,58.2 86.5,58.2 L85.5,59.2 L85.5,11 C85.5,7.1 82.4,4 78.5,4 L15.5,4 C14.4,4 13.5,4.9 13.5,6 L13.5,104 C13.5,105.1 14.4,106 15.5,106 L43.5,106 L40.6,113.2 L40.6,113.4 C40.5,113.6 40.5,113.8 40.5,114 C40.5,115.1 41.4,116 42.5,116 C42.7,116 42.9,116 43.1,115.9 L43.3,115.9 L58.1,110 C58.4,109.9 58.7,109.7 58.9,109.5 L62.4,106 L78.5,106 C82.4,106 85.5,102.9 85.5,99 L85.5,83 L98.4,70.1 C98.4,70.1 98.5,70.1 98.5,70 C99.6,68.9 99.9,67.4 99.5,66 L106,59.5 C106.3,59 106.5,58.5 106.5,58 Z M17.5,102 L17.5,8 L78.5,8 C80.2,8 81.5,9.3 81.5,11 L81.5,63.2 L47,97.6 C46.8,97.8 46.6,98.1 46.5,98.4 L45.1,102 L17.5,102 L17.5,102 Z M46,110.3 L49.2,102.5 L53.9,107.2 L46,110.3 L46,110.3 Z M57.2,105 L51,98.8 L53.4,96.4 L59.6,102.6 L57.2,105 L57.2,105 Z M81.5,99 C81.5,100.7 80.2,102 78.5,102 L66.4,102 L81.5,87 L81.5,99 Z M61.1,101.1 L54.9,94.9 L86.3,63.5 L92.5,69.7 L61.1,101.1 Z M96.9,62.5 L96.7,62.7 L93.5,59.5 L93.7,59.3 L98.3,54.7 L101.5,57.9 L96.9,62.5 Z"></path>
</svg>