<svg xmlns="http://www.w3.org/2000/svg" width="100" height="100" viewBox="0 0 100 100">
    <rect fill="none" width="92" height="73" x="4" y="6" stroke-width="4" rx="8"/>
    <circle cx="50.5" cy="70.5" r="4.5"/>
    <rect fill="none" width="80" height="50" x="10" y="12" stroke-width="2"/>
    <rect width="7" height="50" x="10" y="12"/>
    <path stroke-width="4" d="M4,62 L96,62"/>
    <path stroke-width="3" d="M44 45L63 45M38 50L69 50M41 55L67 55"/>
    <path fill-rule="nonzero" stroke-width="4" d="M26,95 L74,95" stroke-linecap="round"/>
    <circle cx="43" cy="24" r="3"/>
    <rect fill="none" width="39" height="22" x="34" y="18" stroke-width="2"/>
    <polygon points="55 28 63 36 47 36"/>
    <polygon points="62 32 70 40 54 40"/>
    <polygon points="46 32 54 40 38 40"/>
    <rect width="10" height="4" x="50" y="36"/>
    <path fill="none" stroke-width="3" d="M25 95C33.667 94.333 39.333 89.333 42 80M75 95C66.333 94.333 60.667 89.333 58 80"/>
</svg>
