<svg width="102px" height="102px" viewBox="0 0 120 120" xmlns="https://www.w3.org/2000/svg">
    <title>Visual Design</title>
    <circle cx="60" cy="84" r="5"></circle>
    <path d="M108,6 L12,6 C7.6,6 4,9.6 4,14 L4,88 C4,92.4 7.6,96 12,96 L48.6,96 C46,102.9 41.1,110 32,110 C30.9,110 30,110.9 30,112 C30,113.1 30.9,114 32,114 L88,114 C89.1,114 90,113.1 90,112 C90,110.9 89.1,110 88,110 C78.8,110 73.9,102.9 71.4,96 L108,96 C112.4,96 116,92.4 116,88 L116,14 C116,9.6 112.4,6 108,6 Z M12,10 L108,10 C110.2,10 112,11.8 112,14 L112,72 L108,72 L108,14 L12,14 L12,72 L8,72 L8,14 C8,11.8 9.8,10 12,10 Z M106,16 L106,72 L14,72 L14,16 L106,16 Z M76.2,110 L43.9,110 C47.4,107.3 50.6,102.9 52.9,96 L67.2,96 C69.5,102.9 72.7,107.3 76.2,110 Z M108,92 L12,92 C9.8,92 8,90.2 8,88 L8,76 L112,76 L112,88 C112,90.2 110.2,92 108,92 Z"></path>
    <polygon points="12 14 22 14 22 72 12 72"></polygon>
    <path d="M53.5,52 L74.5,52 L74.5,55 L53.5,55 L53.5,52 Z M46,58 L82,58 L82,61 L46,61 L46,58 Z M49,64 L79,64 L79,67 L49,67 L49,64 Z M40,21 L88,21 L88,49 L40,49 L40,21 Z M85,46 L85,24 L43,24 L43,46 L85,46 Z"></path>
    <polygon points="72.8 38.4 71.5 39.7 65.2 34 57 41.6 53.8 38.4 45 47.3 81.6 47.3 72.8 38.4"></polygon>
    <circle cx="52" cy="30" r="4"></circle>
</svg>