<svg xmlns="http://www.w3.org/2000/svg" width="100" height="100">
  <rect width="92" height="76" y="6" rx=".5"/>
  <rect width="36" height="4" x="28" y="90" rx=".5"/>
  <path fill="#FFF" d="M4 10h84v52H4V10zm0 56h84v12H4V66z"/>
  <path d="M44 78h4v16h-4z"/>
  <path fill="#E1BFFF" d="M88 10v52H4z"/>
  <path d="M42 74a2 2 0 1 1 0-4h8a2 2 0 1 1 0 4h-8z"/>
  <rect width="12" height="4" x="40" y="70" rx=".5"/>
  <path d="M22 29.968L23.696 27 22 24.032 20.304 27 22 29.968zm-5.736-3.96l4-7a2 2 0 0 1 3.472 0l4 7a2 2 0 0 1 0 1.984l-4 7a2 2 0 0 1-3.472 0l-4-7a2 2 0 0 1 0-1.984zM34 49.968L35.696 47 34 44.032 32.304 47 34 49.968zm-5.736-3.96l4-7a2 2 0 0 1 3.472 0l4 7a2 2 0 0 1 0 1.984l-4 7a2 2 0 0 1-3.472 0l-4-7a2 2 0 0 1 0-1.984zM62 49.968L63.696 47 62 44.032 60.304 47 62 49.968zm-5.736-3.96l4-7a2 2 0 0 1 3.472 0l4 7a2 2 0 0 1 0 1.984l-4 7a2 2 0 0 1-3.472 0l-4-7a2 2 0 0 1 0-1.984zm-8.432-16.04L49.528 27l-1.696-2.968L46.136 27l1.696 2.968zm-5.736-3.96l4-7a2 2 0 0 1 3.472 0l4 7a2 2 0 0 1 0 1.984l-4 7a2 2 0 0 1-3.472 0l-4-7a2 2 0 0 1 0-1.984zM58.6 20.576l2-2a2 2 0 0 1 3.416 1.416v14h-4v-10a2 2 0 0 1-1.412-3.416H58.6zm3.416-.584a2 2 0 0 1 2 2v12c0 2.664-4 2.664-4 0v-14h2zm-31.416.584l2-2a2 2 0 0 1 3.416 1.416v14h-4v-10a2 2 0 0 1-1.412-3.416H30.6zm3.416-.584a2 2 0 0 1 2 2v12c0 2.664-4 2.664-4 0v-14h2zm36.584.584l2-2a2 2 0 0 1 3.416 1.416v14h-4v-10a2 2 0 0 1-1.412-3.416H70.6zm3.416-.584a2 2 0 0 1 2 2v12c0 2.664-4 2.664-4 0v-14h2zM70.6 40.576l2-2a2 2 0 0 1 3.416 1.416v14h-4v-10a2 2 0 0 1-1.412-3.416H70.6zm3.416-.584a2 2 0 0 1 2 2v12c0 2.664-4 2.664-4 0v-14h2zm-29.576.584l2-2a2 2 0 0 1 3.416 1.416v14h-4v-10a2 2 0 0 1-1.416-3.416zm3.416-.584a2 2 0 0 1 2 2v12c0 2.668-4 2.668-4 0v-14h2zm-29.416.584l2-2a2 2 0 0 1 3.416 1.416v14h-4v-10a2 2 0 0 1-1.416-3.416zm3.416-.584a2 2 0 0 1 2 2v12c0 2.668-4 2.668-4 0v-14h2z"/>
</svg>
