<svg xmlns="http://www.w3.org/2000/svg" width="100" height="100">
  <rect width="92" height="92" y="4" rx=".5"/>
  <path fill="#FFF" d="M4 24h84v68H4z"/>
  <path d="M42.704 51.872a2 2 0 1 1-1.408-3.744l32-12a2 2 0 0 1 1.408 3.744l-32 12z"/>
  <rect width="12" height="12" x="32" y="44" rx=".5"/>
  <rect width="12" height="12" x="72" y="32" rx=".5"/>
  <rect width="16" height="40" x="8" y="32" rx=".5"/>
  <path fill="#FFF" d="M4 8h84v12H4z"/>
  <path fill="#E1BFFF" d="M36 48h4v4h-4v-4zM12 36h8v8h-8v-8zm0 12h8v8h-8v-8zm0 12h8v8h-8v-8zm64-24h4v4h-4v-4z"/>
  <path fill="#80F" fill-opacity=".25" d="M56 76h20v4H56z"/>
  <path d="M78 64a2 2 0 0 1 2 2v16a2 2 0 0 1-2 2H54a2 2 0 0 1-2-2V62a2 2 0 0 1 2-2h6a2 2 0 0 1 1.416.584L64.828 64H78z"/>
  <path fill="#FFF" d="M56 80h20V68H64a2 2 0 0 1-1.416-.584L59.172 64H56v16z"/>
  <path d="M10 16a2 2 0 1 1 0-4h4a2 2 0 1 1 0 4h-4zm12 0a2 2 0 1 1 0-4h4a2 2 0 1 1 0 4h-4z"/>
  <rect width="8" height="4" x="20" y="12" rx=".5"/>
  <rect width="8" height="4" x="8" y="12" rx=".5"/>
  <path fill="#E1BFFF" d="M56 76h20v4H56z"/>
</svg>
