<svg xmlns="http://www.w3.org/2000/svg" width="100" height="100">
  <path fill="#E1BFFF" d="M38 4h8v24h-8z"/>
  <path d="M38 30a2 2 0 0 1 1.896 2.632l-4 12A2 2 0 0 1 34 46H14a2 2 0 0 1-1.896-2.632l4-12A2 2 0 0 1 18 30h20z"/>
  <path fill="#E1BFFF" d="M35.224 34H19.44l-2.664 8H32.56z"/>
  <path d="M38 50a2 2 0 0 1 1.896 2.632l-4 12A2 2 0 0 1 34 66H14a2 2 0 0 1-1.896-2.632l4-12A2 2 0 0 1 18 50h20z"/>
  <path fill="#E1BFFF" d="M19.44 54l-2.664 8H32.56l2.664-8z"/>
  <path d="M38 70a2 2 0 0 1 1.896 2.632l-4 12A2 2 0 0 1 34 86H14a2 2 0 0 1-1.896-2.632l4-12A2 2 0 0 1 18 70h20z"/>
  <path fill="#E1BFFF" d="M19.44 74l-2.664 8H32.56l2.664-8z"/>
  <path d="M4 94h38a2 2 0 1 1 0 4H2a2 2 0 0 1-2-2V4a2 2 0 0 1 2-2h44a2 2 0 0 1 1.416.584l24 24A2 2 0 0 1 72 28v28a2 2 0 1 1-4 0V28.828L45.172 6H4v88z"/>
  <path d="M48 26h22a2 2 0 1 1 0 4H46a2 2 0 0 1-2-2V4a2 2 0 1 1 4 0v22zm0 12H36.8a2 2 0 1 1 0-4H50a2 2 0 0 1 2 2v40a2 2 0 0 1-2 2H36.8a2 2 0 1 1 0-4H48V38z"/>
  <path d="M36.8 58a2 2 0 1 1 0-4H62a2 2 0 1 1 0 4H36.8zm18.184 25.784l29.2-29.2a2 2 0 0 1 2.832 0l8.4 8.4a2 2 0 0 1 0 2.832l-29.2 29.2a2 2 0 0 1-.984.536l-10.8 2.4a2 2 0 0 1-2.384-2.384l2.4-10.8a2 2 0 0 1 .536-.984z"/>
  <path fill="#FFF" d="M56.636 93.364l7.16-1.592L91.172 64.4 85.6 58.828 58.228 86.204z"/>
  <path fill="#E1BFFF" d="M88.384 61.616l2.788 2.784-27.376 27.372-7.16 1.592z"/>
</svg>
