<svg width="120px" height="120px" viewBox="0 0 120 120" version="1.1" xmlns="http://www.w3.org/2000/svg" xmlns:xlink="http://www.w3.org/1999/xlink">
    <title>development</title>
    <path d="M108,19 C110.2,19 112,20.8 112,23 L112,97 C112,99.2 110.2,101 108,101 L12,101 C9.8,101 8,99.2 8,97 L8,23 C8,20.8 9.8,19 12,19 L108,19 L108,19 Z M108,15 L12,15 C7.6,15 4,18.6 4,23 L4,97 C4,101.4 7.6,105 12,105 L108,105 C112.4,105 116,101.4 116,97 L116,23 C116,18.5 112.4,15 108,15 L108,15 L108,15 Z" fill="#000000"></path>
    <rect fill="#000000" x="8" y="31" width="104" height="4"></rect>
    <rect fill="#000000" x="34" y="33" width="4" height="71"></rect>
    <path d="M71,85 C70.8,85 70.7,85 70.5,84.9 C69.4,84.6 68.8,83.5 69.1,82.5 L77.1,52.5 C77.4,51.4 78.5,50.8 79.5,51.1 C80.6,51.4 81.2,52.5 80.9,53.5 L72.9,83.5 C72.7,84.4 71.9,85 71,85 L71,85 L71,85 Z" fill="#000000"></path>
    <path d="M86,80 C85.5,80 85,79.8 84.6,79.4 C83.8,78.6 83.8,77.4 84.6,76.6 L93.2,68 L84.6,59.4 C83.8,58.6 83.8,57.4 84.6,56.6 C85.4,55.8 86.6,55.8 87.4,56.6 L97.4,66.6 C98.2,67.4 98.2,68.6 97.4,69.4 L87.4,79.4 C87,79.8 86.5,80 86,80 L86,80 L86,80 Z" fill="#000000"></path>
    <path d="M64,80 C63.5,80 63,79.8 62.6,79.4 L52.6,69.4 C51.8,68.6 51.8,67.4 52.6,66.6 L62.6,56.6 C63.4,55.8 64.6,55.8 65.4,56.6 C66.2,57.4 66.2,58.6 65.4,59.4 L56.8,68 L65.4,76.6 C66.2,77.4 66.2,78.6 65.4,79.4 C65,79.8 64.5,80 64,80 L64,80 L64,80 Z" fill="#000000"></path>
    <rect fill="#000000" x="12" y="39" width="18" height="4"></rect>
    <rect fill="#000000" x="12" y="45" width="14" height="4"></rect>
    <rect fill="#000000" x="12" y="51" width="16" height="4"></rect>
    <rect fill="#000000" x="12" y="57" width="16" height="4"></rect>
    <rect fill="#000000" x="12" y="69" width="18" height="4"></rect>
    <rect fill="#000000" x="12" y="75" width="14" height="4"></rect>
    <rect fill="#000000" x="12" y="63" width="10" height="4"></rect>
    <circle fill="#000000" cx="14" cy="25" r="2"></circle>
    <circle fill="#000000" cx="20" cy="25" r="2"></circle>
    <circle fill="#000000" cx="26" cy="25" r="2"></circle>
</svg>