<svg width="120px" height="120px" viewBox="0 0 120 120" version="1.1" xmlns="http://www.w3.org/2000/svg" xmlns:xlink="http://www.w3.org/1999/xlink">
    <title>ux-design</title>
    <rect fill="#000000" x="48.5" y="22" width="14" height="2"></rect>
    <rect fill="#000000" x="48.5" y="26" width="24" height="2"></rect>
    <rect fill="#000000" x="48.5" y="30" width="20" height="2"></rect>
    <path d="M42.5,24 L42.5,30 L36.5,30 L36.5,24 L42.5,24 L42.5,24 Z M44.5,22 L34.5,22 L34.5,32 L44.5,32 L44.5,22 L44.5,22 Z" fill="#000000"></path>
    <rect fill="#000000" x="48.5" y="76" width="14" height="2"></rect>
    <rect fill="#000000" x="48.5" y="80" width="22" height="2"></rect>
    <rect fill="#000000" x="48.5" y="84" width="17" height="2"></rect>
    <path d="M42.5,78 L42.5,84 L36.5,84 L36.5,78 L42.5,78 L42.5,78 Z M44.5,76 L34.5,76 L34.5,86 L44.5,86 L44.5,76 L44.5,76 Z" fill="#000000"></path>
    <rect fill="#000000" x="48.5" y="58" width="14" height="2"></rect>
    <rect fill="#000000" x="48.5" y="62" width="24" height="2"></rect>
    <rect fill="#000000" x="48.5" y="66" width="20" height="2"></rect>
    <path d="M42.5,60 L42.5,66 L36.5,66 L36.5,60 L42.5,60 L42.5,60 Z M44.5,58 L34.5,58 L34.5,68 L44.5,68 L44.5,58 L44.5,58 Z" fill="#000000"></path>
    <rect fill="#000000" x="48.5" y="40" width="14" height="2"></rect>
    <rect fill="#000000" x="48.5" y="44" width="24" height="2"></rect>
    <rect fill="#000000" x="48.5" y="48" width="20" height="2"></rect>
    <path d="M42.5,42 L42.5,48 L36.5,48 L36.5,42 L42.5,42 L42.5,42 Z M44.5,40 L34.5,40 L34.5,50 L44.5,50 L44.5,40 L44.5,40 Z" fill="#000333"></path>
    <path d="M111.5,57 C111.5,56.4 111.3,55.9 110.9,55.6 L104.9,49.6 C104.5,49.2 104,49 103.5,49 C102.9,49 102.4,49.2 102.1,49.6 L95.6,56.1 C94.2,55.7 92.7,56 91.6,57.1 C91.6,57.1 91.6,57.2 91.5,57.2 L90.5,58.2 L90.5,10 C90.5,6.1 87.4,3 83.5,3 L20.5,3 C19.4,3 18.5,3.9 18.5,5 L18.5,103 C18.5,104.1 19.4,105 20.5,105 L48.5,105 L45.6,112.2 L45.6,112.3 L45.6,112.4 C45.5,112.6 45.5,112.8 45.5,113 C45.5,114.1 46.4,115 47.5,115 C47.7,115 47.9,115 48.1,114.9 L48.2,114.9 L48.3,114.9 L63.1,109 C63.4,108.9 63.7,108.7 63.9,108.5 L67.4,105 L83.5,105 C87.4,105 90.5,101.9 90.5,98 L90.5,82 L103.4,69.1 C103.4,69.1 103.5,69.1 103.5,69 C104.6,67.9 104.9,66.4 104.5,65 L111,58.5 C111.3,58 111.5,57.5 111.5,57 L111.5,57 Z M22.5,101 L22.5,7 L83.5,7 C85.2,7 86.5,8.3 86.5,10 L86.5,62.2 L52,96.6 C51.8,96.8 51.6,97.1 51.5,97.4 L50.1,101 L22.5,101 L22.5,101 Z M51,109.3 L54.2,101.5 L58.9,106.2 L51,109.3 L51,109.3 Z M62.2,104 L56,97.8 L58.4,95.4 L64.6,101.6 L62.2,104 L62.2,104 Z M86.5,98 C86.5,99.7 85.2,101 83.5,101 L71.4,101 L86.5,86 L86.5,98 L86.5,98 Z M66.1,100.1 L59.9,93.9 L91.3,62.5 L97.5,68.7 L66.1,100.1 L66.1,100.1 Z M101.9,61.5 L101.7,61.7 L98.5,58.5 L98.7,58.3 L103.3,53.7 L106.5,56.9 L101.9,61.5 L101.9,61.5 Z" fill="#000000"></path>
</svg>